<svg xmlns="http://www.w3.org/2000/svg" xmlns:xlink="http://www.w3.org/1999/xlink" width="244.033" height="168.185" viewBox="0 0 244.033 168.185">
  <defs>
    <linearGradient id="linear-gradient" x1="0.051" y1="0.025" x2="0.93" y2="0.896" gradientUnits="objectBoundingBox">
      <stop offset="0" stop-color="#26ff59"/>
      <stop offset="1" stop-color="#00cf8a"/>
    </linearGradient>
    <linearGradient id="linear-gradient-2" y1="0.5" x2="1" y2="0.5" gradientUnits="objectBoundingBox">
      <stop offset="0" stop-color="#26ff5a"/>
      <stop offset="1" stop-color="#00f1ac"/>
    </linearGradient>
    <linearGradient id="linear-gradient-3" x1="0.975" y1="0.5" x2="0.006" y2="0.5" gradientUnits="objectBoundingBox">
      <stop offset="0" stop-color="#fff" stop-opacity="0.8"/>
      <stop offset="0.96" stop-color="#fff" stop-opacity="0.039"/>
      <stop offset="1" stop-color="#fff" stop-opacity="0"/>
    </linearGradient>
    <linearGradient id="linear-gradient-4" x1="0.106" y1="0.791" x2="1.006" y2="0.126" gradientUnits="objectBoundingBox">
      <stop offset="0" stop-color="#fff" stop-opacity="0.6"/>
      <stop offset="0.9" stop-color="#fff" stop-opacity="0.059"/>
      <stop offset="1" stop-color="#fff" stop-opacity="0"/>
    </linearGradient>
    <linearGradient id="linear-gradient-5" x1="395.84" y1="232.816" x2="380.34" y2="259.153" xlink:href="#linear-gradient-4"/>
    <linearGradient id="linear-gradient-6" x1="445.55" y1="6.111" x2="417.55" y2="8.351" xlink:href="#linear-gradient-4"/>
    <linearGradient id="linear-gradient-7" x1="430.79" y1="118.731" x2="418.79" y2="131.41" xlink:href="#linear-gradient-4"/>
    <linearGradient id="linear-gradient-8" x1="482.78" y1="0.67" x2="442.78" y2="0.893" xlink:href="#linear-gradient-4"/>
    <linearGradient id="linear-gradient-9" x1="399.9" y1="53.67" x2="399.9" y2="99.67" xlink:href="#linear-gradient-4"/>
    <radialGradient id="radial-gradient" cx="0.498" cy="0.488" r="0.257" gradientUnits="objectBoundingBox">
      <stop offset="0" stop-color="#fff" stop-opacity="0.102"/>
      <stop offset="1" stop-color="#fff" stop-opacity="0"/>
    </radialGradient>
    <radialGradient id="radial-gradient-2" cx="-99.52" cy="584.58" r="41.07" xlink:href="#radial-gradient"/>
  </defs>
  <g id="health-potion" transform="translate(0 0)">
    <g id="health-potion-2" data-name="health-potion" transform="translate(0 0)">
      <g id="background" transform="translate(23.634 98.383)">
        <g id="color" transform="translate(1.099 1.099)">
          <path id="Shape" d="M178.628,0c8.794,0,15.939,15,15.939,33.527s-7.145,33.527-15.939,33.527a8.283,8.283,0,0,1-7.09-4.012,4.732,4.732,0,0,0-3.9-2.583,4.276,4.276,0,0,0-2.913,1.264,19.8,19.8,0,0,1-13.851,5.331H2.2a2.2,2.2,0,0,1-2.2-2.2v-4.4a2.2,2.2,0,0,1,2.2-2.2H151.7a11.383,11.383,0,0,0,8.189-3.682,10.706,10.706,0,0,1,7.75-2.913,12.191,12.191,0,0,1,2.034.165,11.1,11.1,0,0,1,4.4,1.649,6.431,6.431,0,0,1,2.693,3.408,1.946,1.946,0,0,0,1.869,1.374c3.957,0,7.145-11.1,7.145-24.733s-3.188-24.733-7.145-24.733a1.946,1.946,0,0,0-1.869,1.374,6.639,6.639,0,0,1-2.693,3.408,10.789,10.789,0,0,1-4.4,1.649,12.686,12.686,0,0,1-2.034.165,10.706,10.706,0,0,1-7.75-2.913A11.383,11.383,0,0,0,151.7,8.794H2.2A2.2,2.2,0,0,1,0,6.6V2.2A2.2,2.2,0,0,1,2.2,0H150.872a19.71,19.71,0,0,1,13.851,5.331A4.045,4.045,0,0,0,167.635,6.6a4.551,4.551,0,0,0,3.9-2.583A8.211,8.211,0,0,1,178.628,0Z" transform="translate(0 0)" fill="#f2eeeb"/>
          <path id="Shape-2" data-name="Shape" d="M321.262,16c3.957,0,7.145,11.047,7.145,24.733s-3.188,24.733-7.145,24.733a1.946,1.946,0,0,1-1.869-1.374,6.639,6.639,0,0,0-2.693-3.408c1.759-4.507,2.913-11.762,2.913-19.951s-1.154-15.444-2.913-19.951a6.431,6.431,0,0,0,2.693-3.408A1.9,1.9,0,0,1,321.262,16Z" transform="translate(-142.634 -7.206)" fill="#f4f8f9"/>
          <path id="Shape-3" data-name="Shape" d="M313,24.7c1.759,4.507,2.913,11.762,2.913,19.951S314.756,60.1,313,64.6a10.789,10.789,0,0,0-4.4-1.649,44.244,44.244,0,0,0,1.594-7.31c.165-1.209.33-2.528.44-3.847.22-2.253.33-4.672.33-7.145,0-7.255-.879-13.8-2.363-18.3A10.492,10.492,0,0,0,313,24.7Z" transform="translate(-138.986 -11.124)" fill="#f7f3ed"/>
          <path id="Shape-4" data-name="Shape" d="M19.3,32.379a3.3,3.3,0,0,1-3.3-3.3V16H158.9a11.383,11.383,0,0,1,8.189,3.682,10.706,10.706,0,0,0,7.75,2.913,12.191,12.191,0,0,0,2.034-.165,63.82,63.82,0,0,1,2.363,18.3c0,2.473-.11,4.892-.33,7.145-.11,1.319-.275,2.638-.44,3.847a45.539,45.539,0,0,1-1.594,7.31,12.686,12.686,0,0,0-2.034-.165,10.706,10.706,0,0,0-7.75,2.913,11.383,11.383,0,0,1-8.189,3.682H16V58.761a3.3,3.3,0,0,1,3.3-3.3,3.3,3.3,0,0,1-3.3-3.3V35.677a3.3,3.3,0,0,1,3.3-3.3Zm137.021-4.287h8.794s-8.794,0-8.794-.55v-1.1H137.632v1.1c0,.55-8.794.55-8.794.55h8.794V53.374l9.344-9.344,4.947,4.947,4.4,4.4Z" transform="translate(-7.206 -7.206)" fill="#fffdfa"/>
          <path id="Shape-5" data-name="Shape" d="M251.59,57.535l-4.947-4.947L237.3,61.932V35h18.687V61.932Z" transform="translate(-106.874 -15.763)" fill="#ffe2df"/>
        </g>
        <g id="shadows" transform="translate(1.099 0.549)">
          <path id="Shape-6" data-name="Shape" d="M150.817,2a20.012,20.012,0,0,1,12.806,4.4V7.55a21,21,0,0,0-9.508-2.2H4.4a1.1,1.1,0,0,0-1.1,1.1v4.4H2.2A2.2,2.2,0,0,1,0,8.649v-4.4a2.2,2.2,0,0,1,2.2-2.2H150.817Z" transform="translate(0 -1.448)" fill="#fff" opacity="0.5"/>
          <path id="Shape-7" data-name="Shape" d="M322.366,6.056A8.75,8.75,0,0,0,317.2,4.3a8.607,8.607,0,0,0-4.067,1.044,7.7,7.7,0,0,0-2.968,2.968,4.732,4.732,0,0,1-3.9,2.583,4.276,4.276,0,0,1-2.913-1.264c-.55-.495-1.1-.989-1.649-1.429V7.375a3.226,3.226,0,0,0,1.264.22,4.551,4.551,0,0,0,3.9-2.583A7.953,7.953,0,0,1,313.9,1C317.035,1,319.948,2.868,322.366,6.056Z" transform="translate(-135.879 -0.998)" fill="#fff" opacity="0.5"/>
          <path id="Shape-8" data-name="Shape" d="M158.847,18a11.229,11.229,0,0,1,7.31,2.8v1.264a10.861,10.861,0,0,0-4.012-.769H16V18Z" transform="translate(-7.206 -8.655)" opacity="0.03"/>
          <path id="Shape-9" data-name="Shape" d="M306.43,29.742a12.927,12.927,0,0,1-4.727.934,10.706,10.706,0,0,1-7.75-2.913,12.352,12.352,0,0,0-2.253-1.869V25.4a12.273,12.273,0,0,0,13.191.11Z" transform="translate(-131.375 -11.988)" opacity="0.03"/>
          <path id="Shape-10" data-name="Shape" d="M175.989,100.617a12.059,12.059,0,0,0-5.606-1.319,10.706,10.706,0,0,0-7.75,2.913A12.691,12.691,0,0,1,158.9,104.9a10.327,10.327,0,0,1-4.452.989H5.5a2.2,2.2,0,0,0-2.2,2.2v3.3H2.2a2.2,2.2,0,0,1-2.2-2.2v-4.4a2.2,2.2,0,0,1,2.2-2.2H151.146a10.152,10.152,0,0,0,4.452-.989,11.773,11.773,0,0,0,3.737-2.693A10.706,10.706,0,0,1,167.086,96C171.263,96,174.78,97.924,175.989,100.617Z" transform="translate(0 -43.785)" fill="#fff" opacity="0.5"/>
          <path id="Shape-11" data-name="Shape" d="M334.713,47.733c0,13.631-3.188,24.733-7.145,24.733a2,2,0,0,1-1.869-1.429,5.634,5.634,0,0,0-1.1-1.924c3.792-.66,6.76-11.487,6.76-24.678,0-9.124-1.429-17.148-3.573-21.435C331.635,23.55,334.713,34.377,334.713,47.733Z" transform="translate(-146.192 -10.907)" fill="#fff" opacity="0.5"/>
          <path id="Shape-12" data-name="Shape" d="M321.42,104.95a2.3,2.3,0,0,0-.22-.55,8.684,8.684,0,0,1,2.418,1.924c-.11,0-.275.055-.385.055A1.929,1.929,0,0,1,321.42,104.95Z" transform="translate(-144.661 -47.568)" opacity="0.03"/>
          <path id="Shape-13" data-name="Shape" d="M331.275,23.595H331V23.1a2.226,2.226,0,0,0,.275.495Z" transform="translate(-149.075 -10.952)" opacity="0.03"/>
          <path id="Shape-14" data-name="Shape" d="M255.987,37v3.3H242.8a2.2,2.2,0,0,0-2.2,2.2V60.634l-3.3,3.3V37Z" transform="translate(-106.874 -17.213)" fill="#fff" opacity="0.5"/>
          <path id="Shape-15" data-name="Shape" d="M247.9,69l2.748,2.748-7.475,7.475a1.1,1.1,0,0,1-1.869-.769V75.6Z" transform="translate(-108.676 -31.625)" opacity="0.03"/>
          <path id="Shape-16" data-name="Shape" d="M274.048,42V66.293a1.1,1.1,0,0,1-1.869.769l-.879-.879V42Z" transform="translate(-122.187 -19.464)" opacity="0.03"/>
          <path id="Shape-17" data-name="Shape" d="M17.649,37.026,16,40.324V24h4.4V37.026Z" transform="translate(-7.206 -11.358)" fill="#fff" opacity="0.5"/>
          <rect id="Rectangle-path" width="4.397" height="30.119" transform="translate(8.794 28.966)" fill="#fff" opacity="0.5"/>
          <path id="Shape-18" data-name="Shape" d="M317.1,61.765l1.869,2.693,1.594,2.693,4.177-2.693L328.2,51.871l.385-16.324-2.968-13.081-4.4-5.166-3.353,4.342,1.924,22.425Z" transform="translate(-142.814 -8.34)" opacity="0.05"/>
          <path id="Shape-19" data-name="Shape" d="M41.612,51H16l1.649-3.3H44.965A3.353,3.353,0,0,1,41.612,51Z" transform="translate(-7.206 -22.032)" fill="#fff"/>
          <path id="Shape-20" data-name="Shape" d="M38.315,93H16l1.649-3.3H41.667A3.353,3.353,0,0,1,38.315,93Z" transform="translate(-7.206 -40.947)" fill="#fff"/>
        </g>
        <g id="lines" transform="translate(0 0)">
          <path id="Shape-21" data-name="Shape" d="M151.916,116.992H3.3a3.3,3.3,0,0,1-3.3-3.3v-4.4A3.3,3.3,0,0,1,3.3,106H152.8a1.1,1.1,0,1,1,0,2.2H3.3a1.1,1.1,0,0,0-1.1,1.1v4.4a1.1,1.1,0,0,0,1.1,1.1H151.971a1.1,1.1,0,0,1,1.1,1.1,1.149,1.149,0,0,1-1.154,1.1Z" transform="translate(0 -47.74)" fill="#d5e0e5"/>
          <path id="Shape-22" data-name="Shape" d="M17.1,70.487a1.1,1.1,0,0,1-1.1-1.1V52.9a1.1,1.1,0,1,1,2.2,0V69.388A1.1,1.1,0,0,1,17.1,70.487Z" transform="translate(-7.206 -23.33)" fill="#d5e0e5"/>
          <path id="Shape-23" data-name="Shape" d="M17.1,102.7a1.1,1.1,0,0,1-1.1-1.1V94.9a1.1,1.1,0,0,1,2.2,0V101.6A1.1,1.1,0,0,1,17.1,102.7Z" transform="translate(-7.206 -42.245)" fill="#d5e0e5"/>
          <path id="Shape-24" data-name="Shape" d="M17.1,31.28a1.1,1.1,0,0,1-1.1-1.1V17.1a1.1,1.1,0,0,1,2.2,0V30.18A1.1,1.1,0,0,1,17.1,31.28Z" transform="translate(-7.206 -7.206)" fill="#d5e0e5"/>
          <path id="Shape-25" data-name="Shape" d="M326.1,69.253a1.1,1.1,0,0,1,0-2.2c8.025,0,14.84-14.84,14.84-32.428S334.124,2.2,326.1,2.2a1.1,1.1,0,0,1,0-2.2c9.563,0,17.038,15.225,17.038,34.626S335.608,69.253,326.1,69.253Z" transform="translate(-146.372 0)" fill="#d5e0e5"/>
          <path id="Shape-26" data-name="Shape" d="M326.1,67.665a1.1,1.1,0,0,1,0-2.2c2.528,0,6.046-9.014,6.046-23.634S328.628,18.2,326.1,18.2a1.1,1.1,0,0,1,0-2.2c2.473,0,4.562,2.8,6.1,8.025a67.215,67.215,0,0,1,2.144,17.808A67.215,67.215,0,0,1,332.2,59.64C330.661,64.862,328.573,67.665,326.1,67.665Z" transform="translate(-146.372 -7.206)" fill="#d5e0e5"/>
          <path id="Shape-27" data-name="Shape" d="M168.734,17.588a12.058,12.058,0,0,1-8.574-3.243,10.25,10.25,0,0,0-7.42-3.353H3.3A3.3,3.3,0,0,1,0,7.695V3.3A3.3,3.3,0,0,1,3.3,0H151.971a20.424,20.424,0,0,1,14.62,5.661,3.122,3.122,0,0,0,2.144.934A3.527,3.527,0,0,0,171.7,4.562,9.344,9.344,0,0,1,179.727,0a1.1,1.1,0,0,1,0,2.2,6.991,6.991,0,0,0-6.1,3.463,5.714,5.714,0,0,1-4.892,3.133A5.128,5.128,0,0,1,165.052,7.2a18.457,18.457,0,0,0-13.081-5H3.3A1.1,1.1,0,0,0,2.2,3.3v4.4a1.1,1.1,0,0,0,1.1,1.1H152.8a12.444,12.444,0,0,1,9.014,4.012,9.781,9.781,0,0,0,6.98,2.583c3.9,0,7.31-1.869,8.079-4.4a3.05,3.05,0,0,1,2.913-2.2,1.1,1.1,0,1,1,0,2.2.9.9,0,0,0-.824.6C177.8,15.115,173.626,17.588,168.734,17.588Z" transform="translate(0 0)" fill="#d5e0e5"/>
          <path id="Shape-28" data-name="Shape" d="M303.986,102.794a3.05,3.05,0,0,1-2.913-2.2c-.769-2.583-4.177-4.4-8.079-4.4a9.877,9.877,0,0,0-6.98,2.583A12.443,12.443,0,0,1,277,102.794a1.1,1.1,0,1,1,0-2.2,10.251,10.251,0,0,0,7.42-3.353A11.964,11.964,0,0,1,292.993,94c4.947,0,9.124,2.473,10.168,5.991a.824.824,0,0,0,.824.6,1.1,1.1,0,1,1,0,2.2Z" transform="translate(-124.259 -42.335)" fill="#d5e0e5"/>
          <path id="Shape-29" data-name="Shape" d="M303.355,118.794a9.344,9.344,0,0,1-8.024-4.562,3.64,3.64,0,0,0-2.968-2.034,3.012,3.012,0,0,0-2.144.934,20.753,20.753,0,0,1-14.62,5.661,1.1,1.1,0,0,1,0-2.2,18.364,18.364,0,0,0,13.081-5A5.222,5.222,0,0,1,292.363,110a5.781,5.781,0,0,1,4.892,3.133,7.057,7.057,0,0,0,6.1,3.463,1.1,1.1,0,0,1,0,2.2Z" transform="translate(-123.628 -49.541)" fill="#d5e0e5"/>
          <path id="Shape-30" data-name="Shape" d="M257.086,64.13a1.1,1.1,0,0,1-.769-.33l-8.574-8.574L239.169,63.8a1.1,1.1,0,0,1-1.869-.769V36.1a1.1,1.1,0,0,1,1.1-1.1h18.687a1.1,1.1,0,0,1,1.1,1.1V63.031a1.1,1.1,0,0,1-.66.989A.594.594,0,0,1,257.086,64.13Zm-9.344-11.542a1.1,1.1,0,0,1,.769.33l7.475,7.475V37.2H239.5V60.393l7.475-7.475A1.1,1.1,0,0,1,247.743,52.588Z" transform="translate(-106.874 -15.763)" fill="#d5e0e5"/>
          <path id="Shape-31" data-name="Shape" d="M281.193,39.748H272.4a1.1,1.1,0,0,1-1.1-1.1V38.1a1.1,1.1,0,0,1,1.1-1.1,1.055,1.055,0,0,1,.66.22,66.821,66.821,0,0,0,8.134.33,1.1,1.1,0,0,1,0,2.2Z" transform="translate(-122.187 -16.664)" fill="#d5e0e5"/>
          <path id="Shape-32" data-name="Shape" d="M231.193,39.748H222.4a1.1,1.1,0,0,1,0-2.2,80.871,80.871,0,0,0,8.134-.33,1.176,1.176,0,0,1,.66-.22,1.1,1.1,0,0,1,1.1,1.1v.55a1.1,1.1,0,0,1-1.1,1.1Z" transform="translate(-99.668 -16.664)" fill="#d5e0e5"/>
          <path id="Shape-33" data-name="Shape" d="M265.849,73.244a.517.517,0,0,1-.55-.55V65.55a.55.55,0,1,1,1.1,0v7.145A.55.55,0,0,1,265.849,73.244Z" transform="translate(-119.484 -29.274)" fill="#d5e0e5"/>
          <path id="Shape-34" data-name="Shape" d="M20.4,45.3A4.4,4.4,0,0,1,16,40.9a1.1,1.1,0,1,1,2.2,0,2.2,2.2,0,0,0,2.2,2.2,1.1,1.1,0,1,1,0,2.2Z" transform="translate(-7.206 -17.925)" fill="#d5e0e5"/>
          <path id="Shape-35" data-name="Shape" d="M17.1,51.3A1.1,1.1,0,0,1,16,50.2a4.4,4.4,0,0,1,4.4-4.4H44.416a1.1,1.1,0,1,1,0,2.2H20.4a2.2,2.2,0,0,0-2.2,2.2A1.1,1.1,0,0,1,17.1,51.3Z" transform="translate(-7.206 -20.627)" fill="#d5e0e5"/>
          <path id="Shape-36" data-name="Shape" d="M79.531,48H74.2a1.1,1.1,0,0,1,0-2.2h5.331a1.1,1.1,0,1,1,0,2.2Z" transform="translate(-32.923 -20.627)" fill="#d5e0e5"/>
          <path id="Shape-37" data-name="Shape" d="M20.4,87.3A4.4,4.4,0,0,1,16,82.9a1.1,1.1,0,0,1,2.2,0,2.2,2.2,0,0,0,2.2,2.2,1.1,1.1,0,1,1,0,2.2Z" transform="translate(-7.206 -36.841)" fill="#d5e0e5"/>
          <path id="Shape-38" data-name="Shape" d="M17.1,93.3A1.1,1.1,0,0,1,16,92.2a4.4,4.4,0,0,1,4.4-4.4H36.721a1.1,1.1,0,0,1,0,2.2H20.4a2.2,2.2,0,0,0-2.2,2.2A1.1,1.1,0,0,1,17.1,93.3Z" transform="translate(-7.206 -39.543)" fill="#d5e0e5"/>
          <path id="Shape-39" data-name="Shape" d="M304.638,83.2H294.8a1.1,1.1,0,0,1,0-2.2h9.838a1.1,1.1,0,0,1,0,2.2Z" transform="translate(-132.276 -36.481)" fill="#d5e0e5"/>
          <path id="Shape-40" data-name="Shape" d="M308.57,74.2H302.8a1.1,1.1,0,0,1,0-2.2h5.771a1.1,1.1,0,0,1,0,2.2Z" transform="translate(-135.879 -32.427)" fill="#d5e0e5"/>
          <path id="Shape-41" data-name="Shape" d="M317.7,66.727a.934.934,0,0,1-.385-.055,1.1,1.1,0,0,1-.6-1.429c1.759-4.507,2.858-11.817,2.858-19.567s-1.044-15-2.858-19.567a1.1,1.1,0,1,1,2.034-.824c1.924,4.837,2.968,12.257,2.968,20.336s-1.1,15.5-2.968,20.336A1.1,1.1,0,0,1,317.7,66.727Z" transform="translate(-142.591 -11.051)" fill="#d5e0e5"/>
          <path id="Shape-42" data-name="Shape" d="M309.8,66.507a.7.7,0,0,1-.33-.055,1.1,1.1,0,0,1-.715-1.374,63.789,63.789,0,0,0,2.308-17.973c0-6.87-.824-13.411-2.308-17.973a1.066,1.066,0,0,1,.715-1.374,1.1,1.1,0,0,1,1.374.715,64.707,64.707,0,0,1,2.418,18.632,64.707,64.707,0,0,1-2.418,18.632A1.1,1.1,0,0,1,309.8,66.507Z" transform="translate(-139.028 -12.479)" fill="#d5e0e5"/>
        </g>
      </g>
      <g id="bung" transform="translate(101.109)">
        <g id="color-2" transform="translate(1.498 1.649)">
          <path id="Shape-43" data-name="Shape" d="M35.265.495A6.6,6.6,0,0,1,39.332,7.53L35.7,32.813a6.6,6.6,0,0,1-6.541,5.661H10.917a6.6,6.6,0,0,1-6.541-5.661L.749,7.53A6.623,6.623,0,0,1,7.289,0H26.581a3.562,3.562,0,0,0-.11,1.1,4.4,4.4,0,1,0,8.794,0,2.2,2.2,0,0,0,0-.6ZM29.439,30.669a2.2,2.2,0,1,0-2.2,2.2A2.2,2.2,0,0,0,29.439,30.669ZM22.184,8.959a2.748,2.748,0,1,0-2.748,2.748A2.748,2.748,0,0,0,22.184,8.959ZM15.7,17.753a2.2,2.2,0,1,0-2.2,2.2A2.2,2.2,0,0,0,15.7,17.753Z" transform="translate(-0.686 0)" fill="#e68a5c"/>
          <circle id="Oval" cx="2.198" cy="2.198" r="2.198" transform="translate(24.356 28.47)" fill="#cc7a52"/>
          <path id="Shape-44" data-name="Shape" d="M32.548,11.3A2.748,2.748,0,1,1,29.8,14.048,2.792,2.792,0,0,1,32.548,11.3Z" transform="translate(-13.798 -5.089)" fill="#cc7a52"/>
          <circle id="Oval-2" data-name="Oval" cx="2.198" cy="2.198" r="2.198" transform="translate(10.615 15.554)" fill="#cc7a52"/>
        </g>
        <g id="shadows-2" data-name="shadows" transform="translate(1.608 1.649)">
          <path id="Shape-45" data-name="Shape" d="M24.093,30.413a1.522,1.522,0,0,0-.715-.165,1.418,1.418,0,0,0-1.429,1.429,1.522,1.522,0,0,0,.165.715,1.456,1.456,0,0,1-.715-1.264A1.418,1.418,0,0,1,22.829,29.7,1.347,1.347,0,0,1,24.093,30.413Z" transform="translate(-10.125 -13.375)" opacity="0.2"/>
          <path id="Shape-46" data-name="Shape" d="M34.827,13.579a1.984,1.984,0,0,0-2.748,2.748,1.869,1.869,0,0,1-.879-1.649A1.973,1.973,0,0,1,33.178,12.7,2,2,0,0,1,34.827,13.579Z" transform="translate(-14.538 -5.72)" opacity="0.2"/>
          <path id="Shape-47" data-name="Shape" d="M38.961,39,36.488,52.905l-4.067,3.573H10.326L6.149,52.851,4.5,39H8.9l6.321,6.266L21.483,39Z" transform="translate(-2.514 -17.565)" opacity="0.2"/>
          <path id="Shape-48" data-name="Shape" d="M27.88,3.847H19.086V5.5a3.545,3.545,0,0,0-3.078,3.463,3.5,3.5,0,0,0,1.979,3.133h0a4.1,4.1,0,0,1-.66-.385,2.605,2.605,0,0,0,.55.55l-.055.055a4.276,4.276,0,0,1-7.31-3.023V3.847h-.66a4.4,4.4,0,0,0-4.342,5L7.324,21.435h-4.4L.949,7.53A6.623,6.623,0,0,1,7.489,0H26.506l.33,2.253Z" transform="translate(-0.886 0)" fill="#fff" opacity="0.25"/>
          <path id="Shape-49" data-name="Shape" d="M49.093,53.913a1.522,1.522,0,0,0-.715-.165,1.418,1.418,0,0,0-1.429,1.429,1.522,1.522,0,0,0,.165.715,1.456,1.456,0,0,1-.715-1.264A1.418,1.418,0,0,1,47.829,53.2,1.347,1.347,0,0,1,49.093,53.913Z" transform="translate(-21.385 -23.958)" opacity="0.2"/>
          <path id="Shape-50" data-name="Shape" d="M49.4,24.984c7.75,0,9.893-11.872,10.223-15.884a44.405,44.405,0,0,1-.33,15.609Z" transform="translate(-22.736 -4.098)" opacity="0.1"/>
          <path id="Shape-51" data-name="Shape" d="M51.9,7.426c3.353,2.308,7.8-.44,8.409-2.968A2.223,2.223,0,0,0,58.386,1.6Z" transform="translate(-23.862 -0.721)" fill="#fff" opacity="0.25"/>
        </g>
        <g id="lines-2" transform="translate(0)">
          <path id="Shape-52" data-name="Shape" d="M40.94,2.968a4.6,4.6,0,0,0-3.957-1.759A4.01,4.01,0,0,0,33.9,3.682a2.638,2.638,0,0,1-2.144,1.649c-.879-.055-1.374-.934-1.649-1.649V3.627h0A5.452,5.452,0,0,0,24.946,0H9.171A8.107,8.107,0,0,0,2.961,2.858,8.321,8.321,0,0,0,1.037,9.4L4.665,34.681a8.272,8.272,0,0,0,8.134,7.09H31.046a8.244,8.244,0,0,0,8.134-7.09L42.808,9.4A8.525,8.525,0,0,0,40.94,2.968ZM39.456,8.959,35.828,34.241a4.947,4.947,0,0,1-4.892,4.232H12.689A4.947,4.947,0,0,1,7.8,34.241L4.17,8.959A4.947,4.947,0,0,1,5.324,5,4.892,4.892,0,0,1,9.061,3.3H24.836a2.248,2.248,0,0,1,2.089,1.484v.055c.879,2.308,2.528,3.737,4.617,3.792a5.853,5.853,0,0,0,5.276-3.518c.165-.33.33-.6.495-.6a1.648,1.648,0,0,1,.989.6A4.479,4.479,0,0,1,39.456,8.959Z" transform="translate(-0.96 0)" fill="#2e4d5c"/>
          <path id="Shape-53" data-name="Shape" d="M38.445,16.373A3.567,3.567,0,1,0,37.4,18.9a3.573,3.573,0,0,0,1.045-2.528ZM34.873,18.3a1.913,1.913,0,1,1,1.364-.56,1.924,1.924,0,0,1-1.364.56Z" transform="translate(-14.624 -5.765)" fill="#2e4d5c"/>
          <path id="Shape-54" data-name="Shape" d="M24.523,29.8a3.023,3.023,0,1,0,3.023,3.023A3.023,3.023,0,0,0,24.523,29.8Zm0,4.4a1.363,1.363,0,1,1,.975-.4,1.374,1.374,0,0,1-.975.4Z" transform="translate(-10.211 -13.421)" fill="#2e4d5c"/>
          <path id="Shape-55" data-name="Shape" d="M49.523,53.3a3.023,3.023,0,1,0,3.023,3.023A3.023,3.023,0,0,0,49.523,53.3Zm0,4.4a1.363,1.363,0,1,1,.975-.4,1.374,1.374,0,0,1-.975.4Z" transform="translate(-21.47 -24.005)" fill="#2e4d5c"/>
          <path id="Shape-56" data-name="Shape" d="M17.2,16h0a1.1,1.1,0,1,0,1.1,1.1A1.1,1.1,0,0,0,17.2,16Z" transform="translate(-7.779 -7.206)" fill="#2e4d5c"/>
          <path id="Shape-57" data-name="Shape" d="M51.5,31.6a1.1,1.1,0,0,0,0-2.2h0a1.1,1.1,0,1,0,0,2.2Z" transform="translate(-23.227 -13.241)" fill="#2e4d5c"/>
          <path id="Shape-58" data-name="Shape" d="M42.9,47.4h0A1.1,1.1,0,1,0,44,48.5,1.1,1.1,0,0,0,42.9,47.4Z" transform="translate(-19.353 -21.348)" fill="#2e4d5c"/>
          <path id="Shape-59" data-name="Shape" d="M59.7,23.3h0a1.1,1.1,0,1,0,1.1,1.1A1.1,1.1,0,0,0,59.7,23.3Z" transform="translate(-26.92 -10.494)" fill="#2e4d5c"/>
        </g>
      </g>
      <g id="bottle" transform="translate(0 1.814)">
        <g id="color-3" transform="translate(84.642 21.27)">
          <path id="Shape-60" data-name="Shape" d="M74.749,149.481v47.982a12.059,12.059,0,0,1-12.092,12.092H12.092A12.092,12.092,0,0,1,0,197.463V151.79c2.473-2.913,13.136-5.221,19.237-5,6.211.22,12.2,2.308,18.138,4.342s11.872,4.012,18.083,4.012C65.24,155.2,74.749,153.219,74.749,149.481Zm-9.893,29.24a3.3,3.3,0,1,0-3.3,3.3,3.3,3.3,0,0,0,3.3-3.3Zm-34.571-.55a2.2,2.2,0,1,0-2.2,2.2A2.2,2.2,0,0,0,30.284,178.172Zm-6.046-10.883a3.3,3.3,0,1,0-3.3,3.3,3.3,3.3,0,0,0,3.3-3.3Z" transform="translate(0 -66.103)" fill="url(#linear-gradient)"/>
          <path id="Shape-61" data-name="Shape" d="M74.749,78.985v30.064c0-2.528-5.716-4.4-13.246-4.4-10.992,0-15.115,3.408-24.128,6.1-5.936-2.034-11.927-4.177-18.138-4.342-6.1-.22-16.764,2.089-19.237,5V78.985A21.985,21.985,0,0,1,21.985,57H52.764A22.012,22.012,0,0,1,74.749,78.985ZM24.733,93.275a2.748,2.748,0,1,0-2.748,2.748,2.748,2.748,0,0,0,2.748-2.748Zm-9.508-8.354a1.913,1.913,0,1,0-.56,1.364,1.924,1.924,0,0,0,.56-1.364Z" transform="translate(0 -25.671)" fill="#f2f4ff" opacity="0.5"/>
          <path id="Shape-62" data-name="Shape" d="M92.128,143.6c7.53,0,13.246,1.869,13.246,4.4,0,3.737-9.454,5.716-19.292,5.716-6.211,0-12.147-1.979-18.083-4.012C76.959,147.063,81.081,143.6,92.128,143.6Z" transform="translate(-30.626 -64.674)" fill="url(#linear-gradient-2)"/>
          <circle id="Oval-3" data-name="Oval" cx="3.298" cy="3.298" r="3.298" transform="translate(58.26 109.32)" fill="#4df4a0"/>
          <path id="Shape-63" data-name="Shape" d="M72.367,6.6V18.687a5.5,5.5,0,0,1-5.5,5.5H29.5a5.5,5.5,0,0,1-5.5-5.5V6.6A6.6,6.6,0,0,1,30.6,0h4.452l6.541,6.541L48.128,0H65.771A6.6,6.6,0,0,1,72.367,6.6Z" transform="translate(-10.809)" fill="#f2f4ff" opacity="0.5"/>
          <path id="Shape-64" data-name="Shape" d="M71.176,45v6.6H36V45Z" transform="translate(-16.214 -20.267)" fill="#f2f4ff" opacity="0.5"/>
          <circle id="Oval-4" data-name="Oval" cx="2.198" cy="2.198" r="2.198" transform="translate(25.887 109.87)" fill="#4af778"/>
          <circle id="Oval-5" data-name="Oval" cx="2.748" cy="2.748" r="2.748" transform="translate(19.237 64.856)" fill="#4af778"/>
          <path id="Shape-65" data-name="Shape" d="M35.4,178.1a3.3,3.3,0,1,1-3.3,3.3A3.3,3.3,0,0,1,35.4,178.1Z" transform="translate(-14.457 -80.212)" fill="#4af778"/>
          <path id="Shape-66" data-name="Shape" d="M22.624,104.3a1.924,1.924,0,1,1-1.924,1.924A1.946,1.946,0,0,1,22.624,104.3Z" transform="translate(-9.323 -46.974)" fill="#4af778"/>
        </g>
        <g id="shadows-2-2" data-name="shadows-2" transform="translate(84.257 20.721)">
          <path id="Shape-67" data-name="Shape" d="M.685,193.357c4.012,15,76.563,14.84,75.738-41.057-2.089,29.68-1.319,51.115-1.319,51.115l-5.221,7.255-7.64,1.924H8.379L.3,203.415Z" transform="translate(-0.3 -68.592)" opacity="0.06"/>
          <path id="Shape-68" data-name="Shape" d="M95.136,169.212H88.815A6.815,6.815,0,0,1,82,162.4V75.776A6.381,6.381,0,0,1,88.376,69.4h6.76a13.136,13.136,0,0,1,13.136,13.136v73.54a13.136,13.136,0,0,1-13.136,13.136Z" transform="translate(-37.096 -31.256)" opacity="0.35" fill="url(#linear-gradient-3)"/>
          <path id="Shape-69" data-name="Shape" d="M79.3,159.813c12.751,5.936,26.382,3.188,31.164.495-.55-2.8,0-3.408,0-3.408A65.85,65.85,0,0,1,79.3,159.813Z" transform="translate(-35.88 -70.664)" fill="#fff" opacity="0.25"/>
          <path id="Shape-70" data-name="Shape" d="M72.8,150.262c20.281-10.883,36.22-1.209,36.22-1.209C96.819,156.693,79.56,158.4,72.8,150.262Z" transform="translate(-32.952 -65.346)" opacity="0.15"/>
          <path id="Shape-71" data-name="Shape" d="M1.509,156.213c14.015-8.025,28.141-4.4,38.584-1.209C20.2,142.363.3,153.3.3,153.3Z" transform="translate(-0.3 -67.064)" fill="#fff" opacity="0.25"/>
          <path id="Shape-72" data-name="Shape" d="M29.5,39.906c5.221,2.363,12.751-3.847,25.008.824C39.283,43.534,32.3,43.643,29.5,39.906Z" transform="translate(-13.451 -17.536)" fill="#fff" opacity="0.5"/>
          <path id="Shape-73" data-name="Shape" d="M96.5,15.1c-1.484,12.916-3.353,15.334-17.2,15.334,11.872,1.649,17.2,0,17.2,0l2.748-7.31Z" transform="translate(-35.88 -6.801)" fill="#fff" opacity="0.5"/>
          <circle id="Oval-6" data-name="Oval" cx="4.782" cy="4.782" r="4.782" transform="translate(52.104 44.904)" fill="#fff" opacity="0.5"/>
          <path id="Shape-74" data-name="Shape" d="M26.416,159.892h0A12.9,12.9,0,0,1,13.5,146.976V88.716A12.9,12.9,0,0,1,26.416,75.8h0A12.9,12.9,0,0,1,39.332,88.716v58.26a12.938,12.938,0,0,1-12.916,12.916Z" transform="translate(-6.245 -34.139)" opacity="0.95" fill="url(#linear-gradient-4)"/>
          <path id="Shape-75" data-name="Shape" d="M47.739,18.962h0A8.728,8.728,0,0,1,39,10.223V0h3.3l6.6,5.5L56.478,0V10.223a8.728,8.728,0,0,1-8.739,8.739Z" transform="translate(-17.73)" opacity="0.85" fill="url(#linear-gradient-5)"/>
          <path id="Shape-76" data-name="Shape" d="M99.882,154.663h0a4.787,4.787,0,0,1-4.782-4.782v-37.1A4.787,4.787,0,0,1,99.882,108h0a4.787,4.787,0,0,1,4.782,4.782v37.1a4.787,4.787,0,0,1-4.782,4.782Z" transform="translate(-42.996 -48.641)" opacity="0.85" fill="url(#linear-gradient-6)"/>
          <path id="Shape-77" data-name="Shape" d="M91.622,13.751h0A4.15,4.15,0,0,1,87.5,9.629V1h8.244V9.629a4.188,4.188,0,0,1-4.122,4.122Z" transform="translate(-39.573 -0.45)" opacity="0.85" fill="url(#linear-gradient-7)"/>
          <path id="Shape-78" data-name="Shape" d="M120.649,172.189h0A1.649,1.649,0,0,1,119,170.54V106.949a1.649,1.649,0,0,1,1.649-1.649h0a1.649,1.649,0,0,1,1.649,1.649V170.54A1.649,1.649,0,0,1,120.649,172.189Z" transform="translate(-53.76 -47.425)" opacity="0.85" fill="url(#linear-gradient-8)"/>
          <path id="Shape-79" data-name="Shape" d="M43.908,19.1h0A2.325,2.325,0,0,1,41.6,16.791V13.108A2.325,2.325,0,0,1,43.908,10.8h0a2.325,2.325,0,0,1,2.308,2.308v3.682A2.253,2.253,0,0,1,43.908,19.1Z" transform="translate(-18.901 -4.864)" fill="#fff" opacity="0.75"/>
          <circle id="Oval-7" data-name="Oval" cx="1.759" cy="1.759" r="1.759" transform="translate(49.246 8.025)" fill="#fff" opacity="0.5"/>
          <rect id="Rectangle-path-2" data-name="Rectangle-path" width="34.846" height="6.76" transform="translate(20.446 25.228)" opacity="0.15"/>
          <rect id="Rectangle-path-3" data-name="Rectangle-path" width="12.586" height="5.936" transform="translate(26.217 25.228)" fill="#fff" opacity="0.25"/>
          <path id="Shape-80" data-name="Shape" d="M25.5,258.039c12.641-3.188,37.649-3.408,50.126.66C46.77,259.138,25.5,258.039,25.5,258.039Z" transform="translate(-11.649 -115.137)" opacity="0.15"/>
          <path id="Shape-81" data-name="Shape" d="M68.057,206.8H19.086a6.5,6.5,0,0,0-6.486,6.486v6.156a11.542,11.542,0,0,0,11.542,11.542h38.8a11.542,11.542,0,0,0,11.542-11.542v-6.156a6.414,6.414,0,0,0-6.431-6.486Z" transform="translate(-5.84 -93.138)" opacity="0.35" fill="url(#linear-gradient-9)"/>
          <path id="Shape-82" data-name="Shape" d="M23.631,129.755h0a5.337,5.337,0,0,1-5.331-5.331V97.931A5.337,5.337,0,0,1,23.631,92.6h0a5.337,5.337,0,0,1,5.331,5.331v26.492A5.37,5.37,0,0,1,23.631,129.755Z" transform="translate(-8.407 -41.705)" fill="#fff" opacity="0.5"/>
          <path id="Shape-83" data-name="Shape" d="M15.644,238.86h0a2.144,2.144,0,0,1-2.144-2.144v-3.573A2.144,2.144,0,0,1,15.644,231h0a2.144,2.144,0,0,1,2.144,2.144v3.573a2.144,2.144,0,0,1-2.144,2.144Z" transform="translate(-6.245 -104.037)" fill="#fff" opacity="0.5"/>
          <circle id="Oval-8" data-name="Oval" cx="1.374" cy="1.374" r="1.374" transform="translate(60.129 111.134)" fill="#fff" opacity="0.5"/>
          <circle id="Oval-9" data-name="Oval" cx="1.374" cy="1.374" r="1.374" transform="translate(19.457 99.922)" fill="#fff" opacity="0.5"/>
          <circle id="Oval-10" data-name="Oval" cx="0.824" cy="0.824" r="0.824" transform="translate(27.371 111.299)" fill="#fff" opacity="0.5"/>
          <circle id="Oval-11" data-name="Oval" cx="1.374" cy="1.374" r="1.374" transform="translate(20.556 66.175)" fill="#fff" opacity="0.5"/>
        </g>
        <g id="lines-3" transform="translate(0 19.676)">
          <path id="Shape-84" data-name="Shape" d="M245.7,143.5H166.111a13.669,13.669,0,0,0,4.837-10.443V55.007a23.634,23.634,0,0,0-19.786-23.3V27.526a7.145,7.145,0,0,0,6.6-7.09V8.344A8.244,8.244,0,0,0,149.513.1H131.87a1.5,1.5,0,0,0-1.154.495L125.329,5.98,119.943.594A1.583,1.583,0,0,0,118.789.1h-4.452a8.244,8.244,0,0,0-8.244,8.244V20.436a7.145,7.145,0,0,0,6.6,7.09V31.7A23.683,23.683,0,0,0,92.9,55.007v78.047A13.669,13.669,0,0,0,97.738,143.5H23.649a1.649,1.649,0,0,0,0,3.3H245.7a1.649,1.649,0,1,0,0-3.3ZM116.535,34.671h30.779A20.336,20.336,0,0,1,167.65,55.007V81c-2.363-1.154-6.1-1.979-11.6-1.979-8.025,0-12.7,1.814-17.643,3.737-1.979.769-4.067,1.539-6.486,2.308h0C126.1,83.093,120.108,81,113.842,80.784c-4.892-.165-12.971,1.209-17.643,3.518V55.007a20.336,20.336,0,0,1,20.336-20.336Zm51.115,50.4c0,1.484-5.881,4.067-17.643,4.067a43.871,43.871,0,0,1-12.916-2.363c.879-.33,1.7-.66,2.528-.934,4.837-1.869,9.069-3.518,16.434-3.518C164.023,82.268,167.65,84.412,167.65,85.071ZM96.2,88.094c2.583-2.089,11.707-4.232,17.533-4.067s11.322,2.089,17.148,4.122c6.156,2.089,12.476,4.287,19.127,4.287,2.528,0,12.421-.165,17.643-2.968v43.585A10.443,10.443,0,0,1,157.207,143.5H106.642A10.443,10.443,0,0,1,96.2,133.053ZM109.39,20.381V8.289a4.947,4.947,0,0,1,4.947-4.947h3.737l5.551,5.551v3.518a1.649,1.649,0,1,0,3.3,0V8.893l5.551-5.551h12.861V7.025a.824.824,0,1,0,1.649,0V3.342h1.649V8.124a.824.824,0,0,0,1.649,0V3.4A4.947,4.947,0,0,1,154.4,8.289V20.381a3.847,3.847,0,0,1-3.847,3.847H113.183a3.814,3.814,0,0,1-3.792-3.847Zm6.6,10.992v-3.3h31.878v3.3Z" transform="translate(-9.908 -0.099)" fill="#2e4d5c"/>
          <path id="Shape-85" data-name="Shape" d="M439.649,261h0a1.649,1.649,0,1,0,1.649,1.649A1.649,1.649,0,0,0,439.649,261Z" transform="translate(-197.265 -117.603)" fill="#2e4d5c"/>
          <path id="Shape-86" data-name="Shape" d="M7.145,261h-5.5a1.649,1.649,0,0,0,0,3.3h5.5a1.649,1.649,0,0,0,0-3.3Z" transform="translate(0 -117.603)" fill="#2e4d5c"/>
          <path id="Shape-87" data-name="Shape" d="M188.722,187.944a4.122,4.122,0,1,0-4.122-4.122,4.122,4.122,0,0,0,4.122,4.122Zm0-6.6a2.462,2.462,0,1,1-1.752.721,2.473,2.473,0,0,1,1.752-.721Z" transform="translate(-83.14 -80.987)" fill="#2e4d5c"/>
          <path id="Shape-88" data-name="Shape" d="M262.622,208.644a4.122,4.122,0,1,0-4.122-4.122,4.122,4.122,0,0,0,4.122,4.122Zm0-6.6a2.462,2.462,0,1,1-1.752.721,2.473,2.473,0,0,1,1.752-.721Z" transform="translate(-116.422 -90.31)" fill="#2e4d5c"/>
          <path id="Shape-89" data-name="Shape" d="M202.623,207.446a3.012,3.012,0,1,0-2.141-.882,3.023,3.023,0,0,0,2.141.882Zm0-4.4a1.363,1.363,0,1,1-.975.4,1.374,1.374,0,0,1,.975-.4Z" transform="translate(-89.895 -90.76)" fill="#2e4d5c"/>
          <path id="Shape-90" data-name="Shape" d="M175.948,111.3a2.748,2.748,0,1,0-2.748-2.748A2.748,2.748,0,0,0,175.948,111.3Zm0-3.847a1.1,1.1,0,1,1-1.1,1.1A1.1,1.1,0,0,1,175.948,107.449Z" transform="translate(-78.005 -47.704)" fill="#2e4d5c"/>
          <path id="Shape-91" data-name="Shape" d="M191.073,126.645a3.567,3.567,0,1,0-2.528-1.045A3.573,3.573,0,0,0,191.073,126.645Zm0-5.5a1.913,1.913,0,1,1-1.364.56,1.924,1.924,0,0,1,1.364-.56Z" transform="translate(-84.446 -53.874)" fill="#2e4d5c"/>
          <path id="Shape-92" data-name="Shape" d="M186.549,238.7h0a1.649,1.649,0,1,0,1.649,1.649A1.649,1.649,0,0,0,186.549,238.7Z" transform="translate(-83.275 -107.559)" fill="#2e4d5c"/>
          <path id="Shape-93" data-name="Shape" d="M234.449,224.2a1.649,1.649,0,1,0,1.649,1.649A1.649,1.649,0,0,0,234.449,224.2Z" transform="translate(-104.848 -101.029)" fill="#2e4d5c"/>
          <path id="Shape-94" data-name="Shape" d="M233.149,178.1a1.649,1.649,0,1,0,0-3.3h0a1.649,1.649,0,0,0,0,3.3Z" transform="translate(-104.262 -78.78)" fill="#2e4d5c"/>
          <path id="Shape-95" data-name="Shape" d="M268.649,128.3a1.649,1.649,0,1,0,0-3.3h0a1.649,1.649,0,1,0,0,3.3Z" transform="translate(-120.251 -56.351)" fill="#2e4d5c"/>
          <path id="Shape-96" data-name="Shape" d="M165.323,188.062a.846.846,0,0,0,.824-.824v-2.913a.824.824,0,1,0-1.649,0v2.913a.78.78,0,0,0,.824.824Z" transform="translate(-74.086 -82.698)" fill="#2e4d5c"/>
          <path id="Shape-97" data-name="Shape" d="M165.324,214.331a.846.846,0,0,0,.824-.824V195.424a.824.824,0,0,0-1.649,0v18.083a.808.808,0,0,0,.824.824Z" transform="translate(-74.087 -87.698)" fill="#2e4d5c"/>
          <path id="Shape-98" data-name="Shape" d="M219.024,89.393a.846.846,0,0,0,.824-.824V73.124a.824.824,0,1,0-1.649,0V88.569a.808.808,0,0,0,.824.824Z" transform="translate(-98.272 -32.617)" fill="#2e4d5c"/>
          <path id="Shape-99" data-name="Shape" d="M225.024,95.793a.846.846,0,0,0,.824-.824V79.524a.824.824,0,0,0-1.649,0V94.969a.846.846,0,0,0,.824.824Z" transform="translate(-100.974 -35.499)" fill="#2e4d5c"/>
          <path id="Shape-100" data-name="Shape" d="M256.424,122.4a.846.846,0,0,0,.824-.824V110.524a.824.824,0,0,0-1.649,0v11.047a.808.808,0,0,0,.824.824Z" transform="translate(-115.116 -49.461)" fill="#2e4d5c"/>
          <path id="Shape-101" data-name="Shape" d="M256.423,104.518a.846.846,0,0,0,.824-.824v-1.869a.824.824,0,0,0-1.649,0v1.869a.78.78,0,0,0,.824.824Z" transform="translate(-115.115 -45.542)" fill="#2e4d5c"/>
        </g>
        <g id="lights" transform="translate(53.863 0)">
          <circle id="Oval-12" data-name="Oval" cx="27.481" cy="27.481" r="27.481" transform="translate(26.382)" fill="url(#radial-gradient)"/>
          <circle id="Oval-13" data-name="Oval" cx="43.97" cy="43.97" r="43.97" transform="translate(0 32.428)" fill="url(#radial-gradient-2)"/>
        </g>
      </g>
    </g>
  </g>
</svg>
