<svg xmlns="http://www.w3.org/2000/svg" xmlns:xlink="http://www.w3.org/1999/xlink" width="1501.641" height="442.099" viewBox="0 0 1501.641 442.099">
  <defs>
    <linearGradient id="linear-gradient" x1="0.5" y1="1" x2="0.5" y2="0.01" gradientUnits="objectBoundingBox">
      <stop offset="0" stop-color="#00c7fa"/>
      <stop offset="1" stop-color="#00c7fa" stop-opacity="0.239"/>
    </linearGradient>
  </defs>
  <g id="Group_21" data-name="Group 21" transform="translate(-418.359 -3226.566)">
    <path id="Path_581" data-name="Path 581" d="M1259.9,177.271a32.372,32.372,0,0,0-5.252-2.912,18.57,18.57,0,0,0-5.968-1.38c-.269-.016-.277.892-.026.926a28.911,28.911,0,0,1,5.79,1.083,15.208,15.208,0,0,1,5.112,2.782,16.7,16.7,0,0,1,4.472,7.293,18.254,18.254,0,1,0-6.847,25.6,11.49,11.49,0,0,1-3.705,2.3,21.74,21.74,0,0,1-11.142.856c-3.9-.733-7.288-3.027-10.422-5.694a15.287,15.287,0,0,1-3.645-5.078,38.63,38.63,0,0,1-1.968-6.069c-.06-.24-.77-.17-.723.094a59.786,59.786,0,0,0,1.37,6.518,17.41,17.41,0,0,0,3.118,6c2.915,3.413,6.534,6.591,11.046,7.818a23.67,23.67,0,0,0,24.142-7.724,22.4,22.4,0,0,0,5.406-11.533c.626-4.295-.61-8.546-2.286-12.3-1.753-3.87-5.252-6.4-8.472-8.572Zm-34.175,13.456a19.593,19.593,0,0,0,.3-5.344,9.774,9.774,0,0,1,1.357-5.532,11.773,11.773,0,0,1,3.93-3.022,8.361,8.361,0,0,0,3.59-3.032c.282-.462-2.02-3.131-2.437-2.7a38.668,38.668,0,0,0-6.255,8.934c-1.7,3.33-1.688,7.017-2.34,10.33a8.444,8.444,0,0,0,1.852.365Zm-16.5-7.05a38.825,38.825,0,0,0,1.67,24.189c2.852,7.578,7.518,14.751,14.385,19.223,6.852,4.488,15.234,5.808,22.827,5.433a39.936,39.936,0,0,0,11.234-2.2,37.164,37.164,0,0,0,9.916-5.433c5.9-4.629,9.6-11.176,11.914-17.83a30.266,30.266,0,0,0,1.7-10.393,41.671,41.671,0,0,0-1.326-10.26,51.1,51.1,0,0,0-3.34-10.1,25.377,25.377,0,0,0-6.4-8.76,38.13,38.13,0,0,0-19.936-8.5c-.2-.021-.329,1.132-.135,1.148,5.221.621,11.111,1.138,15.687,4.41,4.551,3.254,7.345,8.115,9.707,12.692,2.437,4.707,2.4,10.122,2.539,14.886a33.432,33.432,0,0,1-4.545,18.537,69.714,69.714,0,0,1-5.359,8.282,23.261,23.261,0,0,1-7.872,6.649,31.464,31.464,0,0,1-10.124,2.787,46.2,46.2,0,0,1-10.523-.274,27.128,27.128,0,0,1-10-3.731,51.932,51.932,0,0,1-8.48-6.513,43.546,43.546,0,0,1-7.316-8.17,25.651,25.651,0,0,1-4.253-10.568,38,38,0,0,1,4.063-22.472,36.365,36.365,0,0,1,14.721-15.163,23.928,23.928,0,0,1,9.065-2.387c3.118-.378,6.056-.459,8.95-1.487.945-.329.378-2.891-.666-2.656-3.961.848-7.878,1.735-11.742,2.949a38.179,38.179,0,0,0-10.933,5.229,45.31,45.31,0,0,0-9.42,8.786,33.53,33.53,0,0,0-6,11.7Z" transform="translate(501.094 4509.429) rotate(-90)" fill="#00c7fa" fill-rule="evenodd"/>
    <path id="Path_582" data-name="Path 582" d="M1369.158,560.776a22.607,22.607,0,0,0-.365,4.055,13.026,13.026,0,0,0,.757,4.11c.063.172.616-.055.569-.222a20.459,20.459,0,0,1-.887-3.922,10.521,10.521,0,0,1,.324-3.932,10.982,10.982,0,0,1,3.236-4.7,12.561,12.561,0,0,0-1.146,12.04,12.061,12.061,0,1,0,22.19-9.422,12.776,12.776,0,0,0-3.666-4.908,7.882,7.882,0,0,1,2.388,1.738,15.4,15.4,0,0,1,3.5,6.789,16.017,16.017,0,0,1-.678,8.024,10.054,10.054,0,0,1-2.108,3.6,24.811,24.811,0,0,1-3.163,2.8c-.131.1.1.53.25.433a38.515,38.515,0,0,0,3.593-2.544,11.353,11.353,0,0,0,2.811-3.507,15.776,15.776,0,0,0,1.8-8.966,16.711,16.711,0,0,0-3.835-8.313,16.316,16.316,0,0,0-7.307-4.879,13.243,13.243,0,0,0-15.312,4.18c-1.881,2.1-2.487,4.958-2.944,7.541Zm17.712,18.748a12.361,12.361,0,0,0-3.34,1.19,6.217,6.217,0,0,1-3.747.558,8.15,8.15,0,0,1-2.917-1.748,5.8,5.8,0,0,0-2.831-1.524c-.357-.062-1.357,2.114-.983,2.27a25.711,25.711,0,0,0,7.16,1.712c2.5.235,4.741-.731,6.941-1.169A6.087,6.087,0,0,0,1386.87,579.524Zm-.778,11.7a25.28,25.28,0,0,0,14.524-7.429c3.914-3.823,7.084-8.7,7.985-14.284s-.553-11.3-2.854-16.076a28.736,28.736,0,0,0-4.42-6.63,26.2,26.2,0,0,0-6.064-4.934,25.587,25.587,0,0,0-14.286-2.959,19.679,19.679,0,0,0-6.9,1.644,27.035,27.035,0,0,0-5.994,3.546,33.505,33.505,0,0,0-5.344,4.8,17.1,17.1,0,0,0-3.679,6.406,27.065,27.065,0,0,0,.165,15.03c.042.133.791-.089.749-.217-1.038-3.515-2.322-7.429-1.545-11.226.778-3.776,3.027-6.847,5.219-9.563,2.25-2.8,5.61-4.2,8.522-5.542a21.876,21.876,0,0,1,12.718-1.957,46.876,46.876,0,0,1,6.589,1.263,16.126,16.126,0,0,1,6.262,3.3,22.57,22.57,0,0,1,4.48,5.767,33.271,33.271,0,0,1,2.7,6.824,19.409,19.409,0,0,1,.415,7.395,36.379,36.379,0,0,1-1.725,7.157,29.576,29.576,0,0,1-3.066,6.839,16.877,16.877,0,0,1-5.383,5.506,25.121,25.121,0,0,1-28.424-2.161,17.14,17.14,0,0,1-3.945-5.19,29.535,29.535,0,0,0-3.358-5.352c-.462-.519-1.894.517-1.466,1.125,1.6,2.322,3.222,4.6,5.025,6.761a27.1,27.1,0,0,0,6.215,5.644,31.3,31.3,0,0,0,8.006,3.734,22.349,22.349,0,0,0,8.879.778Z" transform="translate(1118.854 5026.554) rotate(-90)" fill="#55fbdc" fill-rule="evenodd"/>
    <path id="Path_583" data-name="Path 583" d="M1313.251,174.666a16.771,16.771,0,0,0-2.724-1.513,9.665,9.665,0,0,0-3.1-.715c-.141-.01-.144.462-.015.48a15.169,15.169,0,0,1,3.006.564,7.848,7.848,0,0,1,2.654,1.446,8.711,8.711,0,0,1,2.322,3.789,9.478,9.478,0,1,0-3.554,13.3,5.989,5.989,0,0,1-1.923,1.2,11.249,11.249,0,0,1-5.785.444,11.971,11.971,0,0,1-5.406-2.956,7.923,7.923,0,0,1-1.892-2.635,20.339,20.339,0,0,1-1.023-3.157c-.031-.125-.4-.089-.376.05a31.48,31.48,0,0,0,.712,3.387,9.048,9.048,0,0,0,1.618,3.116,11.965,11.965,0,0,0,5.733,4.063,12.277,12.277,0,0,0,12.53-4.013,10.73,10.73,0,0,0,1.618-12.387,11.425,11.425,0,0,0-4.4-4.457Zm-16.937,5.6a11.687,11.687,0,0,0,.141-2.834,5.7,5.7,0,0,1,.642-2.933,5.62,5.62,0,0,1,1.853-1.6,4.125,4.125,0,0,0,1.7-1.607c.131-.245-.955-1.662-1.151-1.435a20.751,20.751,0,0,0-2.954,4.739c-.8,1.764-.8,3.718-1.1,5.477A3.74,3.74,0,0,0,1296.314,180.263Zm-10.678-2.831a21.494,21.494,0,0,0,.874,13.021,20.868,20.868,0,0,0,7.52,10.341,19.58,19.58,0,0,0,11.935,2.923,20.36,20.36,0,0,0,5.872-1.182,19.281,19.281,0,0,0,5.187-2.923,20.578,20.578,0,0,0,6.229-9.595,16.775,16.775,0,0,0,.887-5.594,23,23,0,0,0-.694-5.521,28.1,28.1,0,0,0-1.745-5.435,13.648,13.648,0,0,0-3.345-4.712,19.625,19.625,0,0,0-10.422-4.574c-.107-.013-.172.608-.073.618,2.732.331,5.811.611,8.2,2.372,2.377,1.748,3.838,4.368,5.072,6.829,1.276,2.534,1.255,5.448,1.331,8.011a18.42,18.42,0,0,1-2.38,9.976,37.181,37.181,0,0,1-2.8,4.457,12.275,12.275,0,0,1-4.118,3.58,16.061,16.061,0,0,1-5.291,1.5,23.443,23.443,0,0,1-5.5-.146,13.92,13.92,0,0,1-5.227-2.009,27.119,27.119,0,0,1-4.436-3.5,23.242,23.242,0,0,1-3.826-4.4,14.029,14.029,0,0,1-2.223-5.686,20.98,20.98,0,0,1,2.124-12.094,19.326,19.326,0,0,1,7.7-8.16,12.172,12.172,0,0,1,4.739-1.284,20.691,20.691,0,0,0,4.681-.8c.493-.177.2-1.555-.35-1.43-2.069.457-4.118.934-6.138,1.587a19.734,19.734,0,0,0-5.719,2.815,24.054,24.054,0,0,0-4.924,4.728,18.3,18.3,0,0,0-3.139,6.294Z" transform="translate(256.359 4858.626) rotate(-90)" fill="#55fbdc" fill-rule="evenodd" opacity="0.803"/>
    <path id="Path_584" data-name="Path 584" d="M68.164,124.9a312.26,312.26,0,0,1-57.505,31.114Q5.349,158.219,0,160.33A676.774,676.774,0,0,0,207.494,88.685c1.9-1.67,4.206-3.591,6.889-5.845,2.6-2.114,8.655-6.771,17.018-13.229q1.562-1.213,3.238-2.5l3.337-2.836,7.215-6.14c5-4.342,10.565-8.835,16.139-14A618.971,618.971,0,0,0,305.019,0,650.664,650.664,0,0,1,68.164,124.9" transform="translate(1889.408 3608.029) rotate(-169)" fill-rule="evenodd" fill="url(#linear-gradient)"/>
  </g>
</svg>
