<svg xmlns="http://www.w3.org/2000/svg" width="59.941" height="51.377" viewBox="0 0 59.941 51.377">
  <g id="sloth" transform="translate(-0.01 -0.011)">
    <g id="colors" transform="translate(2.373 0.403)">
      <path id="Path_585" data-name="Path 585" d="M567.18,166.564a4.162,4.162,0,0,1,.917,2.8,3.259,3.259,0,0,1-3.712-3.712A4.191,4.191,0,0,1,567.18,166.564Z" transform="translate(-515.231 -159.254)" fill="#3bd466"/>
      <path id="Path_586" data-name="Path 586" d="M456.359,174.015V189.2H450.33V174.015a3.015,3.015,0,1,1,6.029,0Z" transform="translate(-416.127 -163.906)" fill="#00ace0"/>
      <path id="Path_587" data-name="Path 587" d="M366.3,311.495a16.217,16.217,0,0,1-1.093,5.362A12,12,0,0,1,363,309.91h3.342Q366.342,310.736,366.3,311.495Z" transform="translate(-340.243 -284.609)" fill="#dbf6ff"/>
      <path id="Path_588" data-name="Path 588" d="M332.7,174.015V189.2h-1.267a10.212,10.212,0,0,0-4.762-8.643v-6.546a3.015,3.015,0,1,1,6.029,0Z" transform="translate(-308.675 -163.906)" fill="#00ace0"/>
      <path id="Path_589" data-name="Path 589" d="M301.779,276.031a7.527,7.527,0,0,1-.535,2.794,7.8,7.8,0,0,0-3.932-4.5,4.461,4.461,0,0,0-.6-.242,1.627,1.627,0,0,1,.186-3.122,1.648,1.648,0,0,1,.447-.028,5.557,5.557,0,0,1,3.64,1.742A7.488,7.488,0,0,1,301.779,276.031Z" transform="translate(-281.701 -250.734)" fill="#e6e6ae"/>
      <path id="Path_590" data-name="Path 590" d="M238.512,252.32a7.541,7.541,0,0,1,6.755,4.185,5.556,5.556,0,0,0-3.64-1.742,1.593,1.593,0,0,0-1.712,1.442,1.628,1.628,0,0,0,1.079,1.709,4.453,4.453,0,0,1,.6.242,7.78,7.78,0,0,1,3.932,4.5,7.547,7.547,0,0,1-14.025,0,7.8,7.8,0,0,1,3.932-4.5,4.456,4.456,0,0,1,.6-.242,1.627,1.627,0,0,0-.186-3.122,1.646,1.646,0,0,0-.447-.028,5.557,5.557,0,0,0-3.64,1.742,7.541,7.541,0,0,1,6.755-4.186Z" transform="translate(-225.979 -234.568)" fill="#dbf6ff"/>
      <path id="Path_591" data-name="Path 591" d="M260.369,193.987a3.259,3.259,0,0,1-3.713,3.713,3.261,3.261,0,0,1,3.713-3.713Z" transform="translate(-247.836 -183.878)" fill="#3bd466"/>
      <path id="Path_592" data-name="Path 592" d="M233.563,272.372a1.628,1.628,0,0,1-1.079,1.714,4.458,4.458,0,0,0-.6.242,7.78,7.78,0,0,0-3.932,4.5,7.556,7.556,0,0,1,.254-6.154,5.557,5.557,0,0,1,3.64-1.742,1.593,1.593,0,0,1,1.712,1.442Z" transform="translate(-222.434 -250.74)" fill="#e6e6ae"/>
      <path id="Path_593" data-name="Path 593" d="M193.341,155.119a5.893,5.893,0,0,1,1.3,3.962,4.616,4.616,0,0,1-5.26-5.261A5.891,5.891,0,0,1,193.341,155.119Z" transform="translate(-189.377 -148.975)" fill="#3bd466"/>
      <path id="Path_594" data-name="Path 594" d="M425.825,316.262a15.66,15.66,0,0,0-1.32,5.185,12.085,12.085,0,0,1-8.6-.63h0a18.988,18.988,0,0,0,1.5-3.772,26.167,26.167,0,0,0,.935-7.145h14.744a11.082,11.082,0,0,0-3.357,1.586A11.7,11.7,0,0,0,425.825,316.262Z" transform="translate(-386.209 -284.601)" fill="#dbf6ff"/>
      <path id="Path_595" data-name="Path 595" d="M251.564,142.177h-6.641V126.988a3.015,3.015,0,1,0-6.029,0v15.189h-2.075V126.988a3.015,3.015,0,0,0-6.029,0v15.189h-2.075V126.988a3.015,3.015,0,0,0-6.029,0v6.546A10.224,10.224,0,0,0,207,142.177a25.3,25.3,0,0,1,43.4-17.671,2.128,2.128,0,0,0-3.4,2.482h0C249.487,131.779,251.564,136.687,251.564,142.177Zm-35.258-12.39a4.162,4.162,0,0,0,.917-2.8,3.259,3.259,0,0,0-3.712,3.712A4.188,4.188,0,0,0,216.306,129.786Z" transform="translate(-204.69 -116.88)" fill="#b3f2ff"/>
      <path id="Path_596" data-name="Path 596" d="M224.233,191.355a7.547,7.547,0,1,0-7.01,4.75A7.547,7.547,0,0,0,224.233,191.355ZM247,173.372a2.127,2.127,0,0,1,3.4-2.481l.017.017A25.3,25.3,0,1,1,207,188.561a10.224,10.224,0,1,1,20.447,0,12,12,0,0,0,2.206,6.947,16.283,16.283,0,0,0,1.093-5.362q.043-.759.043-1.589V173.372a3.015,3.015,0,1,1,6.029,0v15.189a26.166,26.166,0,0,1-.935,7.145,18.989,18.989,0,0,1-1.5,3.772h0a12.085,12.085,0,0,0,8.606.633,15.66,15.66,0,0,1,1.32-5.183,11.7,11.7,0,0,1,3.9-4.779,11.083,11.083,0,0,1,3.357-1.589c0-5.489-2.077-10.4-4.565-15.189Z" transform="translate(-204.69 -163.264)" fill="#00ace0"/>
    </g>
    <g id="shadows" transform="translate(2.376 5.247)">
      <path id="Path_597" data-name="Path 597" d="M189.4,153.84c3.22.055,5.28,1.366,5.1,5.1Z" transform="translate(-189.4 -153.84)" fill="#fff" opacity="0.4"/>
      <path id="Path_598" data-name="Path 598" d="M260.391,194q-3.734-.022-3.712,3.712Z" transform="translate(-247.861 -188.735)" fill="#fff" opacity="0.4"/>
      <path id="Path_599" data-name="Path 599" d="M564.39,165.66c2.291.087,3.794,1.033,3.712,3.712Z" transform="translate(-515.24 -164.111)" fill="#002042" opacity="0.2"/>
      <path id="Path_600" data-name="Path 600" d="M365.995,314.154a13.391,13.391,0,0,1-.8,2.559,12.959,12.959,0,0,1-2.2-6.833,12.235,12.235,0,0,0,2.995,4.274Z" transform="translate(-340.246 -289.428)" fill="#1c0300" opacity="0.1"/>
      <path id="Path_601" data-name="Path 601" d="M426.389,358.44l-1.32,5.185a13.007,13.007,0,0,1-8.52-.63,28.5,28.5,0,0,0,1.45-3.92A17.47,17.47,0,0,0,426.389,358.44Z" transform="translate(-386.777 -331.623)" fill="#1c0300" opacity="0.1"/>
      <path id="Path_602" data-name="Path 602" d="M327.67,199.68c0,4.631,6.029,4.631,6.029,0C333.7,202.659,327.67,202.659,327.67,199.68Z" transform="translate(-309.547 -193.672)" fill="#1c0300" opacity="0.2"/>
      <path id="Path_603" data-name="Path 603" d="M500.312,190.5a12.15,12.15,0,0,0-7.712,4.264,12.024,12.024,0,0,1,7.13-6.079c-.043-5.5-1.956-10.5-4.631-15.276a2.294,2.294,0,0,1,.362-2.311c.443-.933,2.253-.894,3.12-.067a3.042,3.042,0,0,0-1.364.183,1.1,1.1,0,0,0-.431,1.646,28,28,0,0,1,5.534,15.156A2.386,2.386,0,0,1,500.312,190.5Z" transform="translate(-452.859 -168.237)" fill="#fff" opacity="0.3"/>
      <path id="Path_604" data-name="Path 604" d="M241.425,279.93l3.822,3.822c.376,3.768.655,4.07,2.167,7.054a10.151,10.151,0,0,1-5.382,5.278l-1.281.5c-8.052-1.049-12.15-5.588-13.312-12.73C228.529,295.914,246.7,292.522,241.425,279.93Z" transform="translate(-222.454 -263.403)" fill="#1c0300" opacity="0.15"/>
      <path id="Path_605" data-name="Path 605" d="M248.632,255.452c-3.623-1.254-5.962-1.469-8.257-.169a12.107,12.107,0,0,0-3.514,1.271A7.724,7.724,0,0,1,248.632,255.452Z" transform="translate(-230.639 -240.204)" fill="#fff" opacity="0.5"/>
      <path id="Path_606" data-name="Path 606" d="M228.676,278.59a7.742,7.742,0,0,0-1.237,4.1,7.248,7.248,0,0,1,1.237-4.1Z" transform="translate(-222.453 -262.239)" fill="#fff" opacity="0.3"/>
      <path id="Path_607" data-name="Path 607" d="M231.869,271c-.088.008-.174.016-.262.027a8.127,8.127,0,0,0-2.929.973h0a7.742,7.742,0,0,0-1.237,4.1,8.474,8.474,0,0,1,6.15-3.932A1.745,1.745,0,0,0,231.869,271Z" transform="translate(-222.454 -255.644)" fill="#fff" opacity="0.3"/>
      <path id="Path_608" data-name="Path 608" d="M295.64,272.17a8.447,8.447,0,0,1,6.15,3.926,7.255,7.255,0,0,0-1.237-4.1,8.047,8.047,0,0,0-3.192-.995A1.743,1.743,0,0,0,295.64,272.17Z" transform="translate(-281.715 -255.644)" fill="#fff" opacity="0.3"/>
      <path id="Path_609" data-name="Path 609" d="M381.122,501.82l.2.046q-.737-.008-1.494-.043C380.273,501.83,380.7,501.83,381.122,501.82Z" transform="translate(-354.87 -456.21)" fill="#1c0300" opacity="0.15"/>
      <rect id="Rectangle_506" data-name="Rectangle 506" width="6.72" height="2.254" rx="1.127" transform="translate(33.076 21.615)" fill="#fff" opacity="0.5"/>
      <path id="Path_610" data-name="Path 610" d="M206.972,243.988c1.994-7.482,6.356-11.984,15.685-10.231C213.46,229.07,206.775,235.862,206.972,243.988Z" transform="translate(-204.665 -221.947)" fill="#fff" opacity="0.3"/>
      <path id="Path_611" data-name="Path 611" d="M392.452,502.11l-.786.1c-.151-.029-.3-.06-.446-.093C391.635,502.123,392.047,502.12,392.452,502.11Z" transform="translate(-364.767 -456.462)" fill="#1c0300" opacity="0.15"/>
      <path id="Path_612" data-name="Path 612" d="M362.316,248.95a33.731,33.731,0,0,1,.2,8.718,10.846,10.846,0,0,1-5.289,8.057c-3.277,1.881-6.512,1.416-6.787-2.709A15.62,15.62,0,0,0,349,268.483a13.136,13.136,0,0,1-8.52-.63,14.872,14.872,0,0,1-8.1,7.01l-1.25.393L329,275.7c4.54,4.915,21.2,6.4,29.825-3.962a26.067,26.067,0,0,0,4.112-8.972h0C364.187,258.152,363.515,253.544,362.316,248.95Z" transform="translate(-310.702 -236.484)" fill="#1c0300" opacity="0.1"/>
      <path id="Path_613" data-name="Path 613" d="M242.25,312.521c2.425,2.654,11.065,1.94,10.681-4.861a13.976,13.976,0,0,1,1.771,2.9C253.194,313.7,248.476,318.977,242.25,312.521Z" transform="translate(-235.323 -287.499)" fill="#1c0300" opacity="0.1"/>
      <path id="Path_614" data-name="Path 614" d="M348.06,190.087V174.894a3.015,3.015,0,0,1,3.015-3.015,2.941,2.941,0,0,1,.667.076,3.015,3.015,0,0,0-5.124,2.152V189.3c0,7.306-2.5,10.466-6.518,12.229C344.774,201.561,348.06,197.388,348.06,190.087Z" transform="translate(-320.348 -168.833)" fill="#fff" opacity="0.3"/>
      <path id="Path_615" data-name="Path 615" d="M331.418,174.383a3.015,3.015,0,0,0-4.194,4.194,3.015,3.015,0,1,1,4.194-4.194Z" transform="translate(-308.029 -170.561)" fill="#fff" opacity="0.3"/>
      <path id="Path_616" data-name="Path 616" d="M456.418,174.383a3.015,3.015,0,0,0-4.194,4.194,3.015,3.015,0,1,1,4.194-4.194Z" transform="translate(-416.645 -170.561)" fill="#fff" opacity="0.3"/>
      <path id="Path_617" data-name="Path 617" d="M451.67,199.94c0,4.631,6.029,4.631,6.029,0C457.7,202.919,451.67,202.919,451.67,199.94Z" transform="translate(-417.294 -193.898)" fill="#1c0300" opacity="0.2"/>
      <path id="Path_618" data-name="Path 618" d="M450.33,248.781c0,1.354,6.029,1.419,6.029-6.281v8.832H450.33Z" transform="translate(-416.13 -230.879)" fill="#1c0300" opacity="0.07"/>
      <path id="Path_619" data-name="Path 619" d="M359.783,242.5v8.832h-1.3l-.591-3.118C358.942,247.166,359.783,245.374,359.783,242.5Z" transform="translate(-335.806 -230.879)" fill="#1c0300" opacity="0.07"/>
    </g>
    <g id="lines" transform="translate(0.01 0.011)">
      <path id="Path_620" data-name="Path 620" d="M328.416,446.677a17.77,17.77,0,0,1-2.08.425.393.393,0,1,0,.113.779,18.526,18.526,0,0,0,2.172-.443.393.393,0,0,0-.206-.759Z" transform="translate(-305.729 -403.047)" fill="#1e4378"/>
      <path id="Path_621" data-name="Path 621" d="M239.736,260.311a.393.393,0,0,0,.064-.161,7.915,7.915,0,0,0-.271-6.352.393.393,0,0,0-.046-.089,7.932,7.932,0,0,0-14.167,0,.393.393,0,0,0-.046.089,7.915,7.915,0,0,0-.271,6.352.393.393,0,0,0,.058.161,7.936,7.936,0,0,0,14.68,0Zm-.918-6.16a7.128,7.128,0,0,1,.524,4.8,8.139,8.139,0,0,0-3.694-3.724,4.986,4.986,0,0,0-.647-.262,1.233,1.233,0,0,1,.147-2.37,1.3,1.3,0,0,1,.342-.018A5.094,5.094,0,0,1,238.818,254.15Zm-9.524-1.573a1.282,1.282,0,0,1,.342.018,1.233,1.233,0,0,1,.142,2.367,4.978,4.978,0,0,0-.649.262,8.064,8.064,0,0,0-3.68,3.726,7.128,7.128,0,0,1,.524-4.8,5.062,5.062,0,0,1,3.327-1.573Zm3.1,11.854a7.162,7.162,0,0,1-6.586-4.365,7.346,7.346,0,0,1,3.687-4.147,4.236,4.236,0,0,1,.547-.22,2.016,2.016,0,0,0,1.34-2.126,1.986,1.986,0,0,0-2.122-1.783,5.505,5.505,0,0,0-1.966.492,7.136,7.136,0,0,1,10.208,0,5.5,5.5,0,0,0-1.966-.492,1.986,1.986,0,0,0-2.122,1.786,2.016,2.016,0,0,0,1.34,2.126,4.234,4.234,0,0,1,.547.22,7.346,7.346,0,0,1,3.687,4.147,7.162,7.162,0,0,1-6.592,4.361Z" transform="translate(-217.5 -231.592)" fill="#1e4378"/>
      <path id="Path_622" data-name="Path 622" d="M261.625,296.756a5.708,5.708,0,0,1-3.021,1.106v-1.075c.824-.1,1.442-.49,1.442-.962,0-.544-.822-.986-1.835-.986s-1.835.442-1.835.986c0,.472.617.866,1.442.962v1.075a5.708,5.708,0,0,1-3.021-1.106.393.393,0,1,0-.467.633,6.554,6.554,0,0,0,7.762,0,.393.393,0,0,0-.467-.633Z" transform="translate(-243.314 -271.123)" fill="#1e4378"/>
      <circle id="Ellipse_26" data-name="Ellipse 26" cx="0.743" cy="0.743" r="0.743" transform="translate(9.674 21.969)" fill="#1e4378"/>
      <circle id="Ellipse_27" data-name="Ellipse 27" cx="0.743" cy="0.743" r="0.743" transform="translate(18.63 21.969)" fill="#1e4378"/>
      <path id="Path_623" data-name="Path 623" d="M201.31,165.406a.307.307,0,0,0-.025-.046.23.23,0,0,0-.033-.039.27.27,0,0,0-.371,0,.336.336,0,0,0-.033.039.312.312,0,0,0-.024.046.212.212,0,0,0-.014.048.231.231,0,0,0,0,.051.262.262,0,0,0,.076.186.284.284,0,0,0,.085.056.263.263,0,0,0,.363-.242.231.231,0,0,0,0-.051A.3.3,0,0,0,201.31,165.406Z" transform="translate(-196.948 -158.516)" fill="#1e4378"/>
      <path id="Path_624" data-name="Path 624" d="M236.6,124h-.961a4.194,4.194,0,0,0-1.026-2.68,4.528,4.528,0,0,0-3.093-1.032.393.393,0,0,0-.372.372,4.541,4.541,0,0,0,1.031,3.093,2.779,2.779,0,0,0,.286.246H230.4a25.9,25.9,0,0,0-1.952-2.266.393.393,0,0,0-.058-.077,2.529,2.529,0,0,0-.186-.172A25.653,25.653,0,0,0,189.582,124h-1.541a5.887,5.887,0,0,0-1.414-3.847,6.236,6.236,0,0,0-4.26-1.414.393.393,0,0,0-.372.372,6.264,6.264,0,0,0,1.414,4.26,4.01,4.01,0,0,0,.824.628h-2.51a.393.393,0,0,0,0,.786H189a25.655,25.655,0,0,0-3.059,23.834h0a1.712,1.712,0,0,1-.38,1.381.393.393,0,1,0,.556.556,1.924,1.924,0,0,0,.333-.46,3.58,3.58,0,0,1-.117,2.071.393.393,0,1,0,.733.286,3.9,3.9,0,0,0,.225-.852,25.678,25.678,0,0,0,32.639,11.667h.026a4.888,4.888,0,0,1,3.2,0,.393.393,0,0,0,.262-.742,5.417,5.417,0,0,0-1.311-.29,25.675,25.675,0,0,0,8.864-37.45H236.6a.393.393,0,0,0,0-.786Zm-53.816-4.476a5.132,5.132,0,0,1,3.289,1.18,4.8,4.8,0,0,1,1.153,2.884l-2.058-2.05a.262.262,0,0,0-.371.371l2.06,2.06a4.8,4.8,0,0,1-2.891-1.155A5.155,5.155,0,0,1,182.782,119.522Zm27.209-4.85a24.8,24.8,0,0,1,16.439,6.214,2.518,2.518,0,0,0-2.3,3.112h-1.144a3.408,3.408,0,0,0-6.768,0h-1.336a3.408,3.408,0,0,0-6.768,0h-1.336a3.408,3.408,0,0,0-6.769,0h-9.428a24.867,24.867,0,0,1,19.409-9.322Zm15.6,26.234H224.3a.262.262,0,1,0,0,.524h.615a11.977,11.977,0,0,0-2.608,3.084,13.161,13.161,0,0,0-.615,1.168h-1.235a.262.262,0,0,0,0,.524h1a16.235,16.235,0,0,0-1.14,4.615,11.674,11.674,0,0,1-7.7-.515,19.516,19.516,0,0,0,1.3-3.32h1.123a.262.262,0,1,0,0-.524h-.976a26.533,26.533,0,0,0,.84-6.489h12.245A11.289,11.289,0,0,0,225.589,140.906Zm-8.607-14.34a3.435,3.435,0,0,0,.721.655v1.351a.393.393,0,1,0,.786,0v-.958a3.38,3.38,0,0,0,.721.165V129.1a.393.393,0,1,0,.786,0v-1.323a3.379,3.379,0,0,0,.721-.165v.958a.393.393,0,1,0,.786,0v-1.35a3.436,3.436,0,0,0,.721-.655v12.621h-5.243Zm4.522-.375v-.948a.393.393,0,0,0-.786,0v1.518a2.6,2.6,0,0,1-.721.219v-1.737a.393.393,0,0,0-.786,0v1.737a2.6,2.6,0,0,1-.721-.219v-1.518a.393.393,0,0,0-.786,0v.948a2.621,2.621,0,1,1,3.8,0Zm-5.308,13h-1.288v-14.4h1.288Zm6.816,0v-14.4h1.442c2.251,4.357,4.31,9.111,4.408,14.4Zm-15.772,6.471a11.565,11.565,0,0,1-1.7-5.685h2.545c0,.32-.014.63-.029.933h-.878a.262.262,0,1,0,0,.524h.852A16.8,16.8,0,0,1,207.239,145.657Zm.845-6.471H206.8v-14.4h1.288ZM204.9,124.85a.393.393,0,0,0-.393.393v1.518a2.6,2.6,0,0,1-.721.219v-1.737a.393.393,0,0,0-.786,0v1.737a2.6,2.6,0,0,1-.721-.219v-1.518a.393.393,0,0,0-.786,0v.948a2.621,2.621,0,1,1,3.8,0v-.948A.393.393,0,0,0,204.9,124.85Zm-3.408,2.368v1.351a.393.393,0,0,0,.786,0v-.958a3.38,3.38,0,0,0,.721.165V129.1a.393.393,0,0,0,.786,0v-1.32a3.379,3.379,0,0,0,.721-.165v.958a.393.393,0,1,0,.786,0v-1.35a3.436,3.436,0,0,0,.721-.655v12.621h-.492a10.617,10.617,0,0,0-4.751-8.458v-4.16a3.435,3.435,0,0,0,.721.653Zm-7.4-2.378-.9.9a.262.262,0,1,0,.371.371l.9-.9a3.063,3.063,0,0,1-.75,1.7,3.4,3.4,0,0,1-2.117.793,3.385,3.385,0,0,1,.794-2.115A3,3,0,0,1,194.1,124.841Zm-4.125-.056h2.159a2.789,2.789,0,0,0-.29.25,4.52,4.52,0,0,0-1.032,3.093.393.393,0,0,0,.372.372h.143a4.386,4.386,0,0,0,2.95-1.034,4.2,4.2,0,0,0,1.026-2.686h4.682v5.471a10.541,10.541,0,0,0-2.943-1.076,5.8,5.8,0,0,0,.591-.372.393.393,0,1,0-.459-.638,4.115,4.115,0,0,1-1.722.752,4.3,4.3,0,0,0,1.088-1.452.393.393,0,1,0-.713-.33,3.468,3.468,0,0,1-2.279,1.92,10.638,10.638,0,0,0-7.936,5.413A24.8,24.8,0,0,1,189.974,124.784Zm20.017,39.7a24.931,24.931,0,0,1-24.9-24.9,9.83,9.83,0,0,1,19.661,0h0a12.363,12.363,0,0,0,2.147,6.985,9.092,9.092,0,0,1-5.088,4.884.393.393,0,1,0,.316.72c4.734-2.076,6.754-5.842,6.754-12.583V124.391a2.621,2.621,0,0,1,5.243,0V139.58c0,8.828-3.715,15.227-10.192,17.557a.393.393,0,1,0,.262.741,14.834,14.834,0,0,0,4.247-2.359.394.394,0,0,0,.071-.046,2.577,2.577,0,0,1,2.038-.589.4.4,0,0,0,.088-.786,3.9,3.9,0,0,0-.642-.02c.08-.085.16-.172.239-.262a.387.387,0,0,0,.034-.029,2.707,2.707,0,0,1,1.911-.908.393.393,0,0,0-.024-.786,3.344,3.344,0,0,0-.644.081q.384-.566.726-1.18a12.321,12.321,0,0,0,4.966,1.038,12.451,12.451,0,0,0,3.047-.378,21.215,21.215,0,0,0,.028,2.843.393.393,0,0,0,.393.363h.03a.393.393,0,0,0,.363-.422,16.193,16.193,0,0,1,1.922-9.52,10.736,10.736,0,0,1,6.384-4.958l.022-.009.034-.013.035-.018.028-.017a.394.394,0,0,0,.033-.028l.022-.02a.39.39,0,0,0,.03-.037l.016-.02a.394.394,0,0,0,.034-.063v-.012a.392.392,0,0,0,.018-.058v-.024a.4.4,0,0,0,0-.051v-.008c0-5.694-2.2-10.736-4.587-15.335l-.009-.02h0a1.733,1.733,0,0,1,2.621-2.156,24.877,24.877,0,0,1-17.674,42.411Zm21.949-43.407a3.384,3.384,0,0,1,2.115.794,3.052,3.052,0,0,1,.748,1.7l-1.22-1.228a.262.262,0,1,0-.371.371l1.227,1.227a3.063,3.063,0,0,1-1.7-.75A3.385,3.385,0,0,1,231.94,121.076Z" transform="translate(-180.022 -113.891)" fill="#1e4378"/>
      <path id="Path_625" data-name="Path 625" d="M612.054,191h-1.661a.393.393,0,1,0,0,.786h1.661a.393.393,0,0,0,0-.786Z" transform="translate(-552.506 -180.893)" fill="#1e4378"/>
      <path id="Path_626" data-name="Path 626" d="M171.743,191h0a.393.393,0,1,0,.278.115.393.393,0,0,0-.278-.115Z" transform="translate(-171.35 -180.893)" fill="#1e4378"/>
      <path id="Path_627" data-name="Path 627" d="M326.393,404a.393.393,0,1,0,.393.393A.393.393,0,0,0,326.393,404Z" transform="translate(-305.73 -365.975)" fill="#1e4378"/>
      <path id="Path_628" data-name="Path 628" d="M460.092,320.524h2.25a.262.262,0,1,0,0-.524h-2.25a.262.262,0,0,0,0,.524Z" transform="translate(-422.019 -292.985)" fill="#1e4378"/>
      <path id="Path_629" data-name="Path 629" d="M472.382,337.75h-2.119a.262.262,0,1,0,0,.524h2.119a.262.262,0,0,0,0-.524Z" transform="translate(-430.856 -308.409)" fill="#1e4378"/>
      <path id="Path_630" data-name="Path 630" d="M444.044,362.652a.262.262,0,0,0-.262-.262h0a.262.262,0,1,0,.262.262Z" transform="translate(-407.846 -329.819)" fill="#1e4378"/>
      <path id="Path_631" data-name="Path 631" d="M449.247,377.25h-2.265a.262.262,0,1,0,0,.524h2.265a.262.262,0,1,0,0-.524Z" transform="translate(-410.627 -342.731)" fill="#1e4378"/>
      <path id="Path_632" data-name="Path 632" d="M441.585,331.762a.262.262,0,0,0-.262-.262h-1.311a.262.262,0,1,0,0,.524h1.311A.262.262,0,0,0,441.585,331.762Z" transform="translate(-404.571 -302.978)" fill="#1e4378"/>
      <path id="Path_633" data-name="Path 633" d="M501.152,320h0a.262.262,0,1,0,.185.076.262.262,0,0,0-.185-.076Z" transform="translate(-457.697 -292.985)" fill="#1e4378"/>
      <path id="Path_634" data-name="Path 634" d="M480.393,430.56h0a.393.393,0,1,0,.393.393A.393.393,0,0,0,480.393,430.56Z" transform="translate(-439.545 -389.054)" fill="#1e4378"/>
    </g>
  </g>
</svg>
