<svg xmlns="http://www.w3.org/2000/svg" xmlns:xlink="http://www.w3.org/1999/xlink" width="264.061" height="168.185" viewBox="0 0 264.061 168.185">
  <defs>
    <linearGradient id="linear-gradient" y1="0.5" x2="1" y2="0.5" gradientUnits="objectBoundingBox">
      <stop offset="0" stop-color="#4de1ff"/>
      <stop offset="1" stop-color="#0090f0"/>
    </linearGradient>
    <linearGradient id="linear-gradient-2" x1="0.061" y1="0.027" x2="1.068" y2="0.932" gradientUnits="objectBoundingBox">
      <stop offset="0" stop-color="#4de1ff"/>
      <stop offset="1" stop-color="#0078f0"/>
    </linearGradient>
    <linearGradient id="linear-gradient-3" y1="0.499" x2="1" y2="0.499" gradientUnits="objectBoundingBox">
      <stop offset="0" stop-color="#fff" stop-opacity="0.8"/>
      <stop offset="0.15" stop-color="#fff" stop-opacity="0.788"/>
      <stop offset="0.3" stop-color="#fff" stop-opacity="0.741"/>
      <stop offset="0.43" stop-color="#fff" stop-opacity="0.671"/>
      <stop offset="0.56" stop-color="#fff" stop-opacity="0.569"/>
      <stop offset="0.7" stop-color="#fff" stop-opacity="0.431"/>
      <stop offset="0.82" stop-color="#fff" stop-opacity="0.271"/>
      <stop offset="0.95" stop-color="#fff" stop-opacity="0.078"/>
      <stop offset="1" stop-color="#fff" stop-opacity="0"/>
    </linearGradient>
    <linearGradient id="linear-gradient-4" y1="0.5" x2="1" y2="0.5" gradientUnits="objectBoundingBox">
      <stop offset="0" stop-color="#fff" stop-opacity="0"/>
      <stop offset="0.15" stop-color="#878787" stop-opacity="0.38"/>
      <stop offset="1" stop-color="#fff" stop-opacity="0.8"/>
    </linearGradient>
    <linearGradient id="linear-gradient-5" x1="165.21" y1="280.46" x2="277.8" y2="280.46" xlink:href="#linear-gradient-4"/>
    <linearGradient id="linear-gradient-6" x1="0.5" x2="0.5" y2="1" gradientUnits="objectBoundingBox">
      <stop offset="0" stop-color="#fff" stop-opacity="0.8"/>
      <stop offset="1" stop-color="#fff" stop-opacity="0"/>
    </linearGradient>
    <linearGradient id="linear-gradient-7" y1="0.5" x2="1" y2="0.5" gradientUnits="objectBoundingBox">
      <stop offset="0" stop-color="#fff" stop-opacity="0.8"/>
      <stop offset="0.12" stop-color="#fff" stop-opacity="0.741"/>
      <stop offset="0.35" stop-color="#fff" stop-opacity="0.569"/>
      <stop offset="0.67" stop-color="#fff" stop-opacity="0.302"/>
      <stop offset="1" stop-color="#fff" stop-opacity="0"/>
    </linearGradient>
    <linearGradient id="linear-gradient-8" x1="433.75" y1="324.14" x2="456" y2="324.14" xlink:href="#linear-gradient-7"/>
    <linearGradient id="linear-gradient-9" x1="0.002" y1="0.5" x2="1" y2="0.5" gradientUnits="objectBoundingBox">
      <stop offset="0" stop-color="#fff" stop-opacity="0.6"/>
      <stop offset="0.41" stop-color="#fff" stop-opacity="0.588"/>
      <stop offset="0.56" stop-color="#fff" stop-opacity="0.569"/>
      <stop offset="0.67" stop-color="#fff" stop-opacity="0.522"/>
      <stop offset="0.75" stop-color="#fff" stop-opacity="0.451"/>
      <stop offset="0.83" stop-color="#fff" stop-opacity="0.369"/>
      <stop offset="0.89" stop-color="#fff" stop-opacity="0.259"/>
      <stop offset="0.95" stop-color="#fff" stop-opacity="0.141"/>
      <stop offset="1" stop-color="#fff" stop-opacity="0"/>
    </linearGradient>
    <linearGradient id="linear-gradient-10" x1="391.97" y1="389.87" x2="410.87" y2="389.87" xlink:href="#linear-gradient-9"/>
    <linearGradient id="linear-gradient-11" x1="0.775" y1="-0.023" x2="0.236" y2="1.046" gradientUnits="objectBoundingBox">
      <stop offset="0" stop-color="#fff" stop-opacity="0.8"/>
      <stop offset="0.11" stop-color="#fff" stop-opacity="0.78"/>
      <stop offset="0.25" stop-color="#fff" stop-opacity="0.722"/>
      <stop offset="0.41" stop-color="#fff" stop-opacity="0.612"/>
      <stop offset="0.58" stop-color="#fff" stop-opacity="0.471"/>
      <stop offset="0.76" stop-color="#fff" stop-opacity="0.29"/>
      <stop offset="0.95" stop-color="#fff" stop-opacity="0.071"/>
      <stop offset="1" stop-color="#fff" stop-opacity="0"/>
    </linearGradient>
    <radialGradient id="radial-gradient" cx="0.499" cy="0.5" r="0.257" gradientUnits="objectBoundingBox">
      <stop offset="0" stop-color="#fff" stop-opacity="0.102"/>
      <stop offset="0.39" stop-color="#fff" stop-opacity="0.078"/>
      <stop offset="0.8" stop-color="#fff" stop-opacity="0.039"/>
      <stop offset="1" stop-color="#fff" stop-opacity="0"/>
    </radialGradient>
    <radialGradient id="radial-gradient-2" cx="0.5" cy="0.5" r="0.5" gradientUnits="objectBoundingBox">
      <stop offset="0" stop-color="#fff" stop-opacity="0.6"/>
      <stop offset="1" stop-color="#fff" stop-opacity="0"/>
    </radialGradient>
    <radialGradient id="radial-gradient-3" cx="186.71" cy="48.68" r="8.26" xlink:href="#radial-gradient-2"/>
    <radialGradient id="radial-gradient-4" cx="133.05" cy="184.71" r="7.56" xlink:href="#radial-gradient-2"/>
    <radialGradient id="radial-gradient-5" cx="-98.83" cy="-23.58" r="25.67" xlink:href="#radial-gradient"/>
  </defs>
  <g id="mana-potion" transform="translate(0 3)">
    <g id="mana-potion-2" data-name="mana-potion" transform="translate(0 -3)">
      <g id="background" transform="translate(3.416 15.38)">
        <g id="colors" transform="translate(1.185 1.141)">
          <path id="Shape" d="M205.191,178.1v3.854l-15.266,21.294H89.471l-6.231-8.584L81.5,203.252H71.857a52.591,52.591,0,0,0-6.323-11.54C59.326,183.228,51,177.8,42.24,177.31h0C93.267,180.689,157.85,181.4,205.191,178.1Z" transform="translate(-18.301 -74.837)" fill="#fcfaf0"/>
          <path id="Shape-2" data-name="Shape" d="M57.135,211.375a16.194,16.194,0,0,0-3.559-5.344A13.041,13.041,0,0,0,44.3,202.2H64.409a52.592,52.592,0,0,1,6.323,11.54h9.644l1.739-8.584,6.231,8.584H188.823l-5.929,8.253a8.311,8.311,0,0,0,6.746,13.157H39.62a20.372,20.372,0,0,0,13.956-6.01,16.228,16.228,0,0,0,3.762-5.871h0A16.362,16.362,0,0,0,57.135,211.375Z" transform="translate(-17.2 -85.301)" fill="#fcfaf0"/>
          <path id="Shape-3" data-name="Shape" d="M23.357,224.641h-.493a20.367,20.367,0,0,1-14.449-5.987,25.542,25.542,0,0,1-.667-35.424,16.019,16.019,0,0,1,1.327-1.159,24.941,24.941,0,0,1,15.8-4.776c8.763.5,17.086,5.918,23.294,14.4H28.04a13.018,13.018,0,0,0-9.221,3.831,10.462,10.462,0,0,0,0,14.8,8.323,8.323,0,0,0,6.057,2.44h16.2a16.228,16.228,0,0,1-3.762,5.889A20.373,20.373,0,0,1,23.357,224.641Z" transform="translate(-0.937 -74.815)" fill="#fcfaf0"/>
          <path id="Shape-4" data-name="Shape" d="M58.283,218.013a16.362,16.362,0,0,1,.2,11.893H42.35a8.323,8.323,0,0,0,5.715-2.44,6.706,6.706,0,0,0,0-9.476Z" transform="translate(-18.348 -91.939)" fill="#fcfaf0"/>
          <path id="Shape-5" data-name="Shape" d="M51.62,211.392H41.4a6.706,6.706,0,0,1,0,9.476,8.323,8.323,0,0,1-5.715,2.44h-.064a8.323,8.323,0,0,1-6.057-2.44,10.462,10.462,0,0,1,0-14.8,13.018,13.018,0,0,1,9.221-3.831h0a13.041,13.041,0,0,1,9.273,3.831A16.193,16.193,0,0,1,51.62,211.392Z" transform="translate(-11.685 -85.317)" fill="#fcfaf0"/>
          <path id="Shape-6" data-name="Shape" d="M391.144,1.94c3.559,3.437.933,12.45-5.993,23.508h0l-1.8,2.562-13.429,1.159,9.476,4.6A163.88,163.88,0,0,1,366.308,49.02c-16.994,17.573-34.775,28.811-43.092,27.768,9.273-17.347,28.933-38.543,42.1-51.751a.8.8,0,0,0-1.09-1.159c-14.2,12.131-35.274,32.086-44.756,50.778-3.866-5.929,4.445-22.6,19.6-39.9h0l2.353,5.483s.951-6.144,1.524-9.766h0q.974-1.055,1.994-2.1C364.558,8.055,385.243-3.763,391.144,1.94Z" transform="translate(-134.454 -0.506)" fill="#f7f7f7"/>
          <path id="Shape-7" data-name="Shape" d="M316.705,91.449c9.482-18.692,30.556-38.647,44.756-50.778a.8.8,0,0,1,1.09,1.159c-13.162,13.209-32.822,34.4-42.1,51.751h0a57.211,57.211,0,0,0-3.582,7.969h-4.9c1.229-2.979,2.684-5.877,4.173-8.96C316.323,92.191,316.514,91.832,316.705,91.449Z" transform="translate(-131.699 -17.324)" fill="#fefff5"/>
          <path id="Shape-8" data-name="Shape" d="M319.959,145.85a6.294,6.294,0,1,1,0,12.589H265.164a6.294,6.294,0,1,1,0-12.589Z" transform="translate(-109.375 -61.61)" fill="#f0f7ff"/>
          <path id="Shape-9" data-name="Shape" d="M307.191,177.881l21.219,29.53a8.311,8.311,0,0,1-6.746,13.157H243.836a8.311,8.311,0,0,1-6.746-13.157l5.929-8.253,15.29-21.277V167.57h48.882Z" transform="translate(-99.563 -70.742)" fill="#f0f7ff"/>
        </g>
        <g id="shadows" transform="translate(1.25 1.126)">
          <path id="Shape-10" data-name="Shape" d="M63.588,188.515c10.641-1.206,126.014-3.049,139.31-2.087l3.072-4.272v-3.872a1261.375,1261.375,0,0,1-126.652,1.043L45.47,177.74,57.1,182.377Z" transform="translate(-19.145 -75.002)" fill="#fff" opacity="0.75"/>
          <path id="Shape-11" data-name="Shape" d="M69.51,202.293c-1.617.58-3.234,1.107-4.44,1.658a1.739,1.739,0,0,0-.788,2.365q7.239,13.841-2.741,20.952l3.188-5.8.412-6.132-2.318-5.413L56.15,202.16Z" transform="translate(-23.635 -85.269)" fill="#fff" opacity="0.75"/>
          <g id="Group" transform="translate(8.357 102.755)" opacity="0.2">
            <path id="Shape-12" data-name="Shape" d="M77.7,35.984h6.225a2.9,2.9,0,0,0,2.718-1.849l2.069-5.245-1,9.378H78.071Z" transform="translate(-32.938 -12.592)" fill="#d5e0e5"/>
            <path id="Shape-13" data-name="Shape" d="M98.7,29.56l6.086,5.8a2.9,2.9,0,0,0,2.017.811h99.782l-1.617,2.382H104.513Z" transform="translate(-41.766 -12.874)" fill="#d5e0e5"/>
            <path id="Shape-14" data-name="Shape" d="M39.244,14.924l-.852-1.194L30.069,5.384,21.091,1.761l.249-.336L16.049.77,9.5,1.425l-5,1.362c-8.931,10.676-.887,17.318,3.75,19.126l2.631-3.982,5.182-3.008Z" transform="translate(-0.469 -0.77)" fill="#d5e0e5"/>
            <path id="Shape-15" data-name="Shape" d="M43.445,71.69h128.13l3.344,5.981H36.2Z" transform="translate(-15.491 -30.586)" fill="#d5e0e5"/>
            <path id="Shape-16" data-name="Shape" d="M86.12,39.207l1.936,4.637a2.62,2.62,0,0,0,2.417,1.611h2.562a2.62,2.62,0,0,0,2.573-2.144l1.42-7.656,6.955,8.8a2.62,2.62,0,0,0,2.052.991h88.294l5.35-6.77H98.946l-5.941-8.81-2.063,8.694Z" transform="translate(-36.478 -13.004)" fill="#d5e0e5"/>
            <path id="Shape-17" data-name="Shape" d="M16.9,28.919a12.751,12.751,0,0,0-1.113,2.846A3.4,3.4,0,0,0,19.123,35.9h9.72v-1.3l8.873-.064-2.1-4.509L28.078,25.61l-8,.765Z" transform="translate(-6.876 -11.213)" fill="#d5e0e5"/>
            <path id="Shape-18" data-name="Shape" d="M47.335,48.784l-.226-5.326L45.915,39.98l-9.227.667,1.026,2.811H40.78a3.536,3.536,0,0,1,2.579,1.032,3.189,3.189,0,0,1,.214.249,2.85,2.85,0,0,1-2.347,4.509H36.688L34.37,52.661h9.963l.058-.185h2.046Z" transform="translate(-14.721 -17.254)" fill="#d5e0e5"/>
          </g>
          <path id="Shape-19" data-name="Shape" d="M26.51,214.97s-1.953,11.389,11.435,12.8l-4,.864-6.283-2.7-2.794-6.567Z" transform="translate(-10.485 -90.654)" fill="#fff" opacity="0.7"/>
          <path id="Shape-20" data-name="Shape" d="M4.484,192.54s-8.439,29.9,17.08,38.525l-5.75-.927-5.981-3.02-6.683-7.726L.438,211.8.05,204.966l.649-6.59Z" transform="translate(-0.05 -81.224)" fill="#fff" opacity="0.75"/>
          <g id="Group-2" data-name="Group" transform="translate(135.884 1.136)" opacity="0.25">
            <path id="Shape-21" data-name="Shape" d="M82.059,165.56H39.83v5.158H76.924a5.158,5.158,0,0,1,5.158,5.158h6.654V165.56Z" transform="translate(-17.035 -69.858)" fill="#dae5eb"/>
            <path id="Shape-22" data-name="Shape" d="M.5,218.454H46.461A19.374,19.374,0,0,0,62.47,188.165l-3.275-4.8H72.178l21.9,30.654.893,4.445-1.194,3.553-4.022,3.478-4.741.58L7,225.855l-4.017-2.087Z" transform="translate(-0.5 -77.342)" fill="#dae5eb"/>
            <path id="Shape-23" data-name="Shape" d="M91.575,153l-.452-2.318q-.232.406-.464.794a8.334,8.334,0,0,1-7.152,3.964H24.65a3.866,3.866,0,0,0,3.866,3.866H86.805a3.866,3.866,0,0,0,3.866-3.866H90.6Z" transform="translate(-10.653 -63.603)" fill="#dae5eb"/>
            <path id="Shape-24" data-name="Shape" d="M138.315,44.842c-.046.469,2.208,2.747,3.564,4.5a2.318,2.318,0,0,1-.07,2.933C128.056,68.5,114.494,80.225,101.14,86.815a.846.846,0,0,1-1.09-1.211c2.9-4.637,6.375-9.615,10.305-14.861a7.083,7.083,0,0,1,5.935-2.828,17.88,17.88,0,0,1,1.872.168.58.58,0,0,0,.44-1.014,10.74,10.74,0,0,0-2.77-1.739.475.475,0,0,1,.075-.9,72.924,72.924,0,0,1,8.618-1.107.58.58,0,0,0,.313-1.026,10.82,10.82,0,0,0-5.3-1.611.724.724,0,0,1-.493-1.159c4.886-6.115,10.172-12.473,15.649-18.953L121.542,53.176,105.6,71.578l-14,20.465h4.132l-.1.481,10.52-4.718,15.452-10.919,17.451-16.872,8.2-10.833Z" transform="translate(-38.8 -17.311)" fill="#dae5eb"/>
            <path id="Shape-25" data-name="Shape" d="M201.375.44c.724,7.535-3.535,16.773-9.4,26.551h2.8l6.132-10.763,2.852-10.543Z" transform="translate(-81 -0.44)" fill="#dae5eb"/>
          </g>
          <path id="Shape-26" data-name="Shape" d="M262.516,146.01h32.161a3.866,3.866,0,0,1-3.866,3.866H258.65a3.866,3.866,0,0,1,3.866-3.866Z" transform="translate(-108.769 -61.663)" fill="#fff" opacity="0.7"/>
          <path id="Shape-27" data-name="Shape" d="M358.224,149.876h-15.9a3.866,3.866,0,0,1-3.866-3.866h15.9a3.86,3.86,0,0,1,3.866,3.866Z" transform="translate(-142.322 -61.663)" fill="#fff" opacity="0.7"/>
          <path id="Shape-28" data-name="Shape" d="M357.912,49.68c-28.4,29.188-37.9,43.765-41.922,55.136h2.2l7.981-15.649,18.112-22.679,13.232-14.524Z" transform="translate(-132.875 -21.164)" fill="#020202" opacity="0.05"/>
          <path id="Shape-29" data-name="Shape" d="M318.463,73.265C322,61.447,326.919,50.243,336.2,40.987a1.35,1.35,0,0,1,1.658-.168,2.045,2.045,0,0,0,2.631-.209c1.478-3.866,2.95-7.923,4.5-9.633a.348.348,0,0,1,.58.238,8.634,8.634,0,0,0,.377,2.353.272.272,0,0,0,.527-.058,26.087,26.087,0,0,1,.446-2.973,7.413,7.413,0,0,1,2-3.605C358.4,17.4,367.844,9.945,377.3,6.032a.632.632,0,0,1,.864.661,6.294,6.294,0,0,0,.3,2.486.5.5,0,0,0,.951,0,20.217,20.217,0,0,1,1.043-2.417,9.766,9.766,0,0,1,6.955-5.153l1.889-.325L384.328.48l-8.45,2.927-14.055,8.885L346.278,25.924l-4.353,4.492-1.287,8.23-2.6-3.947-8.4,10.473-6.6,10.12-3.779,7.9L317.53,69.3Z" transform="translate(-133.522 -0.48)" fill="#fff" opacity="0.7"/>
          <path id="Shape-30" data-name="Shape" d="M384.48,40.7c5.216-4.845,10.305-9.273,15.15-13.093a.58.58,0,0,1,.782.753,55.338,55.338,0,0,1-9.476,10.722Z" transform="translate(-161.669 -11.861)" fill="#fff" opacity="0.7"/>
        </g>
        <g id="lines" transform="translate(0 0)">
          <path id="Shape-31" data-name="Shape" d="M116.687,189.412c3.054.249,6.144.377,9.215.377q1.524,0,3.043-.041a.58.58,0,0,0,0-1.159,112.281,112.281,0,0,1-12.131-.33.581.581,0,1,0-.093,1.159Z" transform="translate(-49.364 -79.456)" fill="#dae5eb"/>
          <path id="Shape-32" data-name="Shape" d="M127.29,193.078a.582.582,0,0,0-.1,1.159q1.782.156,3.559.156c1.182,0,2.347-.052,3.478-.156a.582.582,0,0,0-.1-1.159A38.026,38.026,0,0,1,127.29,193.078Z" transform="translate(-53.765 -81.482)" fill="#dae5eb"/>
          <path id="Shape-33" data-name="Shape" d="M138.66,217.73a.58.58,0,0,0,.58.58h8.085a.58.58,0,0,0,0-1.159H139.24A.58.58,0,0,0,138.66,217.73Z" transform="translate(-58.812 -91.603)" fill="#dae5eb"/>
          <path id="Shape-34" data-name="Shape" d="M74.651,208.424a.5.5,0,0,0-.185-.128.579.579,0,0,0-.336-.035.633.633,0,0,0-.11.035.331.331,0,0,0-.1.052.365.365,0,0,0-.087.075.5.5,0,0,0-.128.185.56.56,0,0,0,0,.446.516.516,0,0,0,.128.185.6.6,0,0,0,.632.128.62.62,0,0,0,.313-.313.634.634,0,0,0,0-.446A.7.7,0,0,0,74.651,208.424Z" transform="translate(-31.485 -87.862)" fill="#dae5eb"/>
          <path id="Shape-35" data-name="Shape" d="M152.173,238.431l1.565-1.565a.58.58,0,0,0-.817-.817l-3.344,3.344-2.266-2.243a.58.58,0,0,0-.817.817l2.243,2.243-2.243,2.243a.58.58,0,1,0,.817.817l2.243-2.243,2.017,2.017a.58.58,0,0,0,.817-.817l-2.017-2.017,1-.956,4.834,4.834a.58.58,0,0,0,.817-.817Z" transform="translate(-62.02 -99.49)" fill="#dae5eb"/>
          <path id="Shape-36" data-name="Shape" d="M259.573,2.277c-7.21-6.955-29.994,7.964-47.845,26.429q-1.017,1.052-2.011,2.115l-.035.041a1.158,1.158,0,0,0-.1.139l-.041.075a1.165,1.165,0,0,0-.064.128v.1a1.164,1.164,0,0,0-.029.116c-.267,1.675-.614,3.889-.91,5.8l-.765-1.774h0l-.041-.075a1.163,1.163,0,0,0-.075-.128l-.035-.041a1.16,1.16,0,0,0-.122-.133h0a1.158,1.158,0,0,0-.151-.1h-.052l-.157-.07h-.058l-.162-.035h-.435l-.093.029H206.3l-.1.052-.1.064-.075.064-.1.093h0c-7.43,8.491-13.5,17.179-17.1,24.47C186.29,64.78,183.8,71.648,185.9,75.862l-.307.626-.8,1.652c-1.107,2.272-2.15,4.434-3.1,6.659H157.867a7.454,7.454,0,1,0,0,14.907h1.8v5.6c-40.977,1.374-90.416.58-133.572-2.318a1.09,1.09,0,0,0-.29,0,25.991,25.991,0,0,0-16.228,4.984A16.808,16.808,0,0,0,8.055,109.3a26.6,26.6,0,0,0,.7,37.036,21.445,21.445,0,0,0,15.266,6.329H224.178a9.476,9.476,0,0,0,9.4-8.311,1.729,1.729,0,0,0,.081-.655,9.436,9.436,0,0,0-1.768-6.01l-21.027-29.269V99.66h1.8a7.454,7.454,0,1,0,0-14.907H188.9a58.352,58.352,0,0,1,2.585-5.6h.423c9.239,0,26.51-11.308,42.837-28.185a164.71,164.71,0,0,0,13.186-15.359,1.159,1.159,0,0,0,.093-.156v-.035a1.159,1.159,0,0,0-.348-1.432h0a1.16,1.16,0,0,0-.168-.1l-5.692-2.765,9.233-.788a1.159,1.159,0,0,0,.846-.487l1.8-2.562h0C258.211,20.123,264.894,7.418,259.573,2.277ZM172.635,112.724l-5,9.61a4.637,4.637,0,0,0,2.9,6.619H155.259l8.479-12.751a9.98,9.98,0,0,1,8.311-4.451.678.678,0,0,1,.6.974Zm-54.348-4.486c14.327,0,28.267-.22,41.359-.655v.84l-14.722,20.488H73.838L67.956,120.8a1.159,1.159,0,0,0-2.075.452l-1.553,7.656H56.41C52.028,118.328,44.9,110.087,36.7,105.925c26.447,1.542,54.7,2.313,81.6,2.313ZM9.736,110.881a14.281,14.281,0,0,1,1.159-1.008c6.375-4.457,13.475-5.7,20.448-3.605a25.826,25.826,0,0,1,3.078,1.159l-4.527,4.527a.58.58,0,1,0,.817.817l4.822-4.822q.655.325,1.292.69l-2.017,2.017a.58.58,0,1,0,.817.817l2.226-2.226a36.978,36.978,0,0,1,9.123,8.172h-17.8a14.119,14.119,0,0,0-10.038,4.173,11.632,11.632,0,0,0,0,16.437,9.505,9.505,0,0,0,6.822,2.776h14.49a15.128,15.128,0,0,1-2.817,3.895,19.126,19.126,0,0,1-13.464,5.645h-.2a19.126,19.126,0,0,1-13.6-5.645,24.291,24.291,0,0,1-.638-33.819ZM41.37,138.486H32.1c.174-.151.348-.3.516-.464a7.813,7.813,0,0,0,2.127-3.964h1.675a.58.58,0,1,0,0-1.159H34.89a7.94,7.94,0,0,0-.087-1.692h3.373a.58.58,0,0,0,0-1.159H34.525a7.818,7.818,0,0,0-.475-1.159h7.158a15.121,15.121,0,0,1,.162,9.6ZM31.8,126.564h0a1.159,1.159,0,0,0-.823,1.976,5.558,5.558,0,0,1,0,7.836,7.227,7.227,0,0,1-10.195,0,9.314,9.314,0,0,1,0-13.157,11.829,11.829,0,0,1,8.4-3.478h.046a11.841,11.841,0,0,1,8.41,3.478,15.069,15.069,0,0,1,2.539,3.362Zm18.686,23.763a13.788,13.788,0,0,0,1.385-2.689.58.58,0,1,0-1.078-.423,11.43,11.43,0,0,1-1.739,3.112H46.69a11.082,11.082,0,0,0,3.159-5.663.581.581,0,1,0-1.13-.272,9.482,9.482,0,0,1-3.889,5.935H33.76a21.659,21.659,0,0,0,5.523-4,17.324,17.324,0,0,0,4.011-6.213v-.041h0a17.451,17.451,0,0,0-.185-12.67,1.158,1.158,0,0,0-.058-.145,17.3,17.3,0,0,0-3.785-5.657,14.356,14.356,0,0,0-2.278-1.849H48.719c.278.394.58.788.823,1.194H45.775a.58.58,0,1,0,0,1.159H50.29q.336.539.661,1.09H49.27a.58.58,0,1,0,0,1.159h2.318a53.524,53.524,0,0,1,2.933,6.184,1.159,1.159,0,0,0,1.078.73h9.644a1.158,1.158,0,0,0,.226,0h.041l.162-.052h.064l.128-.07.058-.041.11-.093.046-.046.1-.116.035-.052a1.16,1.16,0,0,0,.075-.139V130.6a1.159,1.159,0,0,0,.058-.191h0l1.217-6,4.683,6.451a1.126,1.126,0,0,0,.075.087l.058.064.11.087.07.052.11.058.093.046.1.035.116.029h70.292l-4.637,6.416a9.436,9.436,0,0,0-1.768,6.01,1.714,1.714,0,0,0,.081.649,9.488,9.488,0,0,0,3.194,6.016Zm180.832-7.587H215.553a1.159,1.159,0,1,0,0,2.318h15.527a7.437,7.437,0,0,1-.545,1.385,7.03,7.03,0,0,1-6.375,3.883h-77.81a7.025,7.025,0,0,1-6.375-3.883,7.442,7.442,0,0,1-.545-1.385h22.447a1.159,1.159,0,1,0,0-2.318H139.2a7.117,7.117,0,0,1,1.345-3.733l1.576-2.2a17.388,17.388,0,0,0,11.337-5.576H173.7a1.159,1.159,0,1,0,0-2.318h-.777a4.637,4.637,0,0,0,3.037-2.527l5.912-12.751a3.3,3.3,0,0,1,3-1.913h.806a2.9,2.9,0,0,0,2.684-1.779,1.159,1.159,0,0,0,.672-.064,1.246,1.246,0,0,0,.377-.249,2,2,0,0,0,.145-.18,1.286,1.286,0,0,0,.1-.2,1,1,0,0,0,.064-.214,1.042,1.042,0,0,0,0-.232.986.986,0,0,0,0-.226.909.909,0,0,0-.064-.214,1.325,1.325,0,0,0-.1-.2,1.37,1.37,0,0,0-.145-.174,1.089,1.089,0,0,0-.18-.145,1.309,1.309,0,0,0-.2-.1,1.427,1.427,0,0,0-.22-.07,1.159,1.159,0,0,0-.435,0,3.217,3.217,0,0,0-1.1-1.455l1.785-.116a1.162,1.162,0,1,0-.162-2.318c-8.363.58-17.388,1.037-26.9,1.379V99.648h40.507v2.318a.58.58,0,1,0,1.159,0V99.648h1.258v4.463a.58.58,0,1,0,1.159,0V99.648h2.486v7.993H194.955a1.159,1.159,0,0,0,0,2.318h1.884l2.539,3.53a.581.581,0,0,0,.945-.678l-2.052-2.852h1.8l5.628,7.836a.581.581,0,0,0,.945-.678l-5.141-7.158h7.622l20.865,29.049a7.118,7.118,0,0,1,1.345,3.744ZM217.791,92.195a5.141,5.141,0,0,1-5.135,5.135H157.867a5.135,5.135,0,1,1,0-10.27h54.794A5.141,5.141,0,0,1,217.791,92.195Zm-33.7-7.453c.823-1.86,1.739-3.709,2.655-5.645l.806-1.658c4.474-9.273,14.7-24.406,38.038-45.417-12.1,12.629-27.675,30.318-35.726,45.266a1.16,1.16,0,0,0-.1.18,59.592,59.592,0,0,0-3.315,7.285Zm66.235-56.684L237.456,29.17a1.159,1.159,0,0,0-.406,2.2l8.2,3.982q-3.263,4.248-7.013,8.485h-4.26a.58.58,0,1,0,0,1.159H237.2q-1.988,2.2-4.086,4.376A146.13,146.13,0,0,1,208.824,69.88h-2.788a.58.58,0,0,0,0,1.159h.951l-.846.516h-4.5a.58.58,0,1,0,0,1.159h2.475c-4.44,2.446-8.334,3.895-11.314,4.109a141.686,141.686,0,0,1,10.873-16.066h3.037a.58.58,0,1,0,0-1.159h-2.144q1.24-1.588,2.515-3.17h8.5a.58.58,0,1,0,0-1.159h-7.535c5.437-6.665,11.244-13.133,16.582-18.79H230.9a.58.58,0,1,0,0-1.159h-5.17c2.9-3.06,5.651-5.871,8.079-8.305a1.967,1.967,0,1,0-2.66-2.9c-2.15,1.837-4.19,3.628-6.155,5.384V28.463a.58.58,0,0,0-1.159,0v2.081q-3.205,2.9-6.086,5.639V33.558a.58.58,0,0,0-1.159,0V37.29c-5.883,5.663-10.763,10.85-14.82,15.568V49.305a.58.58,0,0,0-1.159,0v4.944a120.843,120.843,0,0,0-13.215,18.64c-.667-6.642,6.851-20.575,19.022-34.822l1.623,3.779a1.159,1.159,0,0,0,1.066.7h.145a1.159,1.159,0,0,0,1-.974s.887-5.75,1.466-9.4q.858-.922,1.739-1.831A149.807,149.807,0,0,1,234.935,11.69v4.979a.58.58,0,0,0,1.159,0v-5.8q.846-.58,1.669-1.107v3.512a.58.58,0,0,0,1.159,0V9.03c7.975-4.967,14.3-7.019,17.631-5.923l-3.941,3.941a.58.58,0,1,0,.817.817l4.214-4.214a3.365,3.365,0,0,1,.371.3c2.933,2.834.58,11.256-6.126,21.99h0Z" transform="translate(-0.893 -0.537)" fill="#dae5eb"/>
          <path id="Shape-37" data-name="Shape" d="M351.539,245.91a1.159,1.159,0,0,0,0,2.318h5.095a1.159,1.159,0,0,0,0-2.318Z" transform="translate(-147.822 -103.694)" fill="#dae5eb"/>
          <path id="Shape-38" data-name="Shape" d="M314.063,245.91h-22.6a1.159,1.159,0,0,0,0,2.318h22.6a1.159,1.159,0,0,0,0-2.318Z" transform="translate(-122.563 -103.694)" fill="#dae5eb"/>
          <path id="Shape-39" data-name="Shape" d="M286.021,246.634a1.282,1.282,0,0,0-.1-.2,1.078,1.078,0,0,0-.145-.174,1.194,1.194,0,0,0-1.64,0,1.159,1.159,0,0,0-.336.817.989.989,0,0,0,0,.226.833.833,0,0,0,.064.214,1.4,1.4,0,0,0,.1.2,1.43,1.43,0,0,0,.145.174,1.161,1.161,0,0,0,1.264.255,1.118,1.118,0,0,0,.377-.255.83.83,0,0,0,.145-.174,1,1,0,0,0,.11-.2,1.159,1.159,0,0,0,.064-.214,1.112,1.112,0,0,0,0-.452A1.423,1.423,0,0,0,286.021,246.634Z" transform="translate(-119.826 -103.706)" fill="#dae5eb"/>
          <path id="Shape-40" data-name="Shape" d="M357.374,205.69a.58.58,0,0,0-.133.811l1.333,1.855a.581.581,0,0,0,.945-.678l-1.333-1.855a.58.58,0,0,0-.811-.133Z" transform="translate(-150.66 -86.739)" fill="#dae5eb"/>
          <path id="Shape-41" data-name="Shape" d="M306.8,162.48H291.88a.58.58,0,1,0,0,1.159H306.8a.58.58,0,1,0,0-1.159Z" transform="translate(-122.984 -68.619)" fill="#dae5eb"/>
          <path id="Shape-42" data-name="Shape" d="M321.26,162.528a.58.58,0,0,0-.446,0,.5.5,0,0,0-.185.128.58.58,0,1,0,.823,0,.5.5,0,0,0-.191-.128Z" transform="translate(-135.243 -68.621)" fill="#dae5eb"/>
          <path id="Shape-43" data-name="Shape" d="M291.92,159.389h5.8a.58.58,0,0,0,0-1.159h-5.8a.58.58,0,0,0,0,1.159Z" transform="translate(-123.001 -66.833)" fill="#dae5eb"/>
        </g>
      </g>
      <g id="bung" transform="translate(106.491 2.133)">
        <g id="colors-2" transform="translate(1.759 1.762)">
          <path id="Shape-44" data-name="Shape" d="M32.369,41.848H8.907a5.268,5.268,0,0,1-5.216-4.764l-2.9-30.6A5.268,5.268,0,0,1,6.009.72H35.29a5.268,5.268,0,0,1,5.216,5.767l-2.9,30.6a5.268,5.268,0,0,1-5.239,4.764Z" transform="translate(-0.769 -0.72)" fill="#e6a15c"/>
        </g>
        <g id="shadows-2" transform="translate(1.747 2.249)">
          <path id="Shape-45" data-name="Shape" d="M35.228,9.68l-.116,1.379A22.818,22.818,0,0,1,12.375,31.925H4.4l1.681,11.1,3.478,1.93,24.627.075,3.843-2.005,1.588-7.848,1.965-25.5Z" transform="translate(-2.285 -4.394)" opacity="0.1"/>
          <path id="Shape-46" data-name="Shape" d="M34.772.56H6.024A5.274,5.274,0,0,0,.75,5.834h0l2.115,18.68c0-6.3.278-11.9,1.211-15.388A4.457,4.457,0,0,1,8.395,5.834h.748V9.068a4.469,4.469,0,0,0,4.214,4.527,4.347,4.347,0,0,0,4.48-4.347v-3.4h2.075V7.782A2.127,2.127,0,0,0,21.847,9.9a2.052,2.052,0,0,0,2.162-2.046V5.846H40.046A5.274,5.274,0,0,0,34.772.56Z" transform="translate(-0.75 -0.56)" fill="#fff" opacity="0.25"/>
        </g>
        <g id="lines-2" transform="translate(0 0)">
          <path id="Shape-47" data-name="Shape" d="M42.184,3A7.019,7.019,0,0,0,37,.68H7.722A7,7,0,0,0,.767,8.348l2.9,30.6a6.955,6.955,0,0,0,6.955,6.341H34.082a6.955,6.955,0,0,0,6.955-6.341l2.9-30.6A7.019,7.019,0,0,0,42.184,3ZM37.6,38.643a3.512,3.512,0,0,1-3.512,3.194H33.56V39.565a.869.869,0,1,0-1.739,0v2.266H29.9V40.816a.869.869,0,0,0-1.739,0v1.014H10.632a3.512,3.512,0,0,1-3.512-3.194L4.308,9.078H7.873a.869.869,0,1,0,0-1.739H4.2A3.53,3.53,0,0,1,7.71,4.181H36.991A3.53,3.53,0,0,1,40.5,7.339H32.7a.869.869,0,1,0,0,1.739h7.714Z" transform="translate(-0.735 -0.68)" fill="#3c5a78"/>
          <path id="Shape-48" data-name="Shape" d="M19.394,20.153a2.185,2.185,0,0,0-.162-.3,1.333,1.333,0,0,0-.214-.261,1.739,1.739,0,0,0-1.571-.475,1.316,1.316,0,0,0-.325.1,1.692,1.692,0,0,0-.3.156,2.052,2.052,0,0,0-.481.481,2.092,2.092,0,0,0-.156.3,1.611,1.611,0,0,0-.1.325,1.669,1.669,0,0,0-.035.342,1.652,1.652,0,0,0,.035.336,1.617,1.617,0,0,0,.1.325,1.374,1.374,0,0,0,.162.3,1.35,1.35,0,0,0,.214.267,1.739,1.739,0,0,0,2.457,0,1.617,1.617,0,0,0,.214-.267,1.7,1.7,0,0,0,.162-.3,2.086,2.086,0,0,0,.1-.325,1.652,1.652,0,0,0,.035-.336,1.675,1.675,0,0,0-.035-.342A2.081,2.081,0,0,0,19.394,20.153Z" transform="translate(-7.174 -8.416)" fill="#3c5a78"/>
          <path id="Shape-49" data-name="Shape" d="M56.045,23.584a2.156,2.156,0,0,0-.162-.3,1.768,1.768,0,0,0-.214-.261,1.327,1.327,0,0,0-.267-.214,1.826,1.826,0,0,0-.3-.162,1.774,1.774,0,0,0-1.008-.1,1.611,1.611,0,0,0-.325.1,2.133,2.133,0,0,0-.3.162,1.466,1.466,0,0,0-.261.214,1.849,1.849,0,0,0-.22.261,2.174,2.174,0,0,0-.156.3,1.31,1.31,0,0,0-.1.325,1.739,1.739,0,0,0,.475,1.571,1.489,1.489,0,0,0,.261.214,1.64,1.64,0,0,0,.3.162,1.611,1.611,0,0,0,.325.1,1.735,1.735,0,0,0,2.081-1.7,1.7,1.7,0,0,0-.035-.342A2.069,2.069,0,0,0,56.045,23.584Z" transform="translate(-22.582 -9.859)" fill="#3c5a78"/>
          <path id="Shape-50" data-name="Shape" d="M28.112,44.749a2.087,2.087,0,0,0-.325.1,1.878,1.878,0,0,0-.3.162,2.319,2.319,0,0,0-.267.214,1.74,1.74,0,1,0,2.457,0A1.779,1.779,0,0,0,28.112,44.749Z" transform="translate(-11.654 -19.194)" fill="#3c5a78"/>
          <path id="Shape-51" data-name="Shape" d="M50.228,12.708a.736.736,0,0,0-.075-.151,1.251,1.251,0,0,0-.11-.133.9.9,0,0,0-1.229,0,.881.881,0,0,0-.191.284,1.35,1.35,0,0,0-.046.162.771.771,0,0,0,0,.168.916.916,0,0,0,.064.33.881.881,0,0,0,.191.284.927.927,0,0,0,.278.191.968.968,0,0,0,.336.064.91.91,0,0,0,.33-.064.893.893,0,0,0,.475-.475.9.9,0,0,0,.064-.33.771.771,0,0,0,0-.168A.742.742,0,0,0,50.228,12.708Z" transform="translate(-20.846 -5.515)" fill="#3c5a78"/>
          <path id="Shape-52" data-name="Shape" d="M26.635,67.854a.864.864,0,0,0-.255.614.806.806,0,0,0,.07.33.823.823,0,0,0,.185.284.84.84,0,0,0,.284.185.805.805,0,0,0,.33.07.869.869,0,0,0,.614-.255.852.852,0,0,0,.255-.614.869.869,0,0,0-.255-.614A.9.9,0,0,0,26.635,67.854Z" transform="translate(-11.517 -28.819)" fill="#3c5a78"/>
          <path id="Shape-53" data-name="Shape" d="M47.237,45.065l-.151-.081-.162-.046a.846.846,0,0,0-.342,0l-.162.046-.151.081a1.159,1.159,0,0,0-.133.11.869.869,0,0,0,0,1.229.84.84,0,0,0,.284.185.806.806,0,0,0,.33.07.835.835,0,0,0,.336-.07.811.811,0,0,0,.278-.185.846.846,0,0,0,.255-.614.881.881,0,0,0-.255-.614Z" transform="translate(-19.715 -19.279)" fill="#3c5a78"/>
          <path id="Shape-54" data-name="Shape" d="M19.228,41.96a.614.614,0,0,0-.075-.151.84.84,0,0,0-.11-.133,1.16,1.16,0,0,0-.133-.11l-.151-.081-.162-.046a.875.875,0,0,0-.782.238.84.84,0,0,0-.11.133.922.922,0,0,0-.081.151,1.334,1.334,0,0,0-.046.162.765.765,0,0,0,0,.168.91.91,0,0,0,.064.33.875.875,0,0,0,.191.284.863.863,0,0,0,.945.191.939.939,0,0,0,.284-.191.777.777,0,0,0,.185-.284.806.806,0,0,0,.07-.33.765.765,0,0,0,0-.168.736.736,0,0,0-.087-.162Z" transform="translate(-7.814 -17.809)" fill="#3c5a78"/>
          <path id="Shape-55" data-name="Shape" d="M28.5,13.613a.869.869,0,0,0,.614.255.881.881,0,0,0,.614-.255.835.835,0,0,0,.185-.284.806.806,0,0,0,.07-.33.771.771,0,0,0,0-.168.742.742,0,0,0-.052-.162.632.632,0,0,0-.081-.151.58.58,0,0,0-.1-.133.9.9,0,0,0-1.229,0,.858.858,0,0,0-.11.133.881.881,0,0,0-.081.151.73.73,0,0,0-.046.162.771.771,0,0,0,0,.168.9.9,0,0,0,.064.33A.945.945,0,0,0,28.5,13.613Z" transform="translate(-12.312 -5.498)" fill="#3c5a78"/>
        </g>
      </g>
      <g id="bottle">
        <g id="colors-3" transform="translate(67.116 21.207)">
          <path id="Shape-56" data-name="Shape" d="M185.277,144.99a4.926,4.926,0,1,1-4.926,4.926,4.926,4.926,0,0,1,4.926-4.926Z" transform="translate(-76.285 -61.297)" fill="#27b2ff" stroke="#2e4d5c" stroke-linecap="round" stroke-linejoin="round" stroke-width="3"/>
          <path id="Shape-57" data-name="Shape" d="M175.282,185.28a3.988,3.988,0,1,1-3.982,3.988,3.988,3.988,0,0,1,3.982-3.988Z" transform="translate(-72.48 -78.236)" fill="#27b2ff" stroke="#2e4d5c" stroke-linecap="round" stroke-linejoin="round" stroke-width="3"/>
          <path id="Shape-58" data-name="Shape" d="M106.934.59a8.19,8.19,0,0,1,0,16.373H58.388a8.19,8.19,0,0,1,0-16.373Z" transform="translate(-21.659 -0.59)" fill="#f2f4ff" opacity="0.5"/>
          <circle id="Oval" cx="3.402" cy="3.402" r="3.402" transform="translate(83.606 91.894)" fill="#0af"/>
          <path id="Shape-59" data-name="Shape" d="M87.693,58.4a60.2,60.2,0,0,1,31.188,26.365c-14.206-4.306-27.82,4.463-41.771,13.429C62.191,86.475,18.143,71.313,8.62,90.138A59.728,59.728,0,0,1,42.485,58.4Z" transform="translate(-4.088 -24.894)" fill="#f2f4ff" opacity="0.5"/>
          <rect id="Rectangle-path" width="45.208" height="17.133" transform="translate(38.398 16.373)" fill="#f2f4ff" opacity="0.5"/>
          <ellipse id="Oval-2" data-name="Oval" cx="3.396" cy="3.402" rx="3.396" ry="3.402" transform="translate(56.081 125.44)" fill="#0af"/>
          <path id="Shape-60" data-name="Shape" d="M76.846,114.771c-3.97,2.556-7.969,5.124-12.021,7.407-24.632,13.91-60.857,9.905-56.469-15.463C17.878,87.889,61.927,103.051,76.846,114.771ZM45.7,109.833a2.631,2.631,0,1,0-2.631,2.626,2.631,2.631,0,0,0,2.631-2.626Z" transform="translate(-3.823 -41.47)" fill="url(#linear-gradient)"/>
          <path id="Shape-61" data-name="Shape" d="M66.606,114a2.631,2.631,0,1,1-2.626,2.631A2.631,2.631,0,0,1,66.606,114Z" transform="translate(-27.362 -48.269)" fill="#31bbf7"/>
          <path id="Shape-62" data-name="Shape" d="M46.476,192.16a4.926,4.926,0,1,1-4.926,4.926A4.926,4.926,0,0,1,46.476,192.16Z" transform="translate(-17.932 -81.128)" fill="#52caff"/>
          <path id="Shape-63" data-name="Shape" d="M5.332,108.443C.945,133.812,37.169,137.817,61.8,123.907c4.057-2.284,8.05-4.851,12.021-7.407,13.956-8.966,27.565-17.735,41.771-13.429a54.9,54.9,0,0,1,7.21,27.241c0,21.717-12.7,40.629-31.46,50.465a15.945,15.945,0,0,1,2.805,2.9,2.939,2.939,0,0,1-2.382,4.671H31.831a2.939,2.939,0,0,1-2.394-4.637,16.426,16.426,0,0,1,1.553-1.8,14.781,14.781,0,0,1,1.269-1.159C13.5,170.894.8,152,.8,130.282a54.73,54.73,0,0,1,4.532-21.839Zm109.386,23.375a4.927,4.927,0,1,0-4.927,4.926,4.927,4.927,0,0,0,4.927-4.926Zm-7.129,22.413a3.988,3.988,0,1,0-3.988,3.982,3.988,3.988,0,0,0,3.988-3.982ZM91.21,138.5a3.4,3.4,0,1,0-3.4,3.4,3.4,3.4,0,0,0,3.4-3.4ZM63.68,172.042a3.4,3.4,0,1,0-3.4,3.4A3.4,3.4,0,0,0,63.68,172.042ZM34.271,159.169a4.926,4.926,0,1,0-4.926,4.927A4.926,4.926,0,0,0,34.271,159.169Z" transform="translate(-0.8 -43.199)" fill="url(#linear-gradient-2)"/>
        </g>
        <g id="shadows-3" transform="translate(67.163 21.207)">
          <circle id="Oval-3" data-name="Oval" cx="2.011" cy="2.011" r="2.011" transform="translate(40.16 5.042)" fill="#fff" opacity="0.75"/>
          <circle id="Oval-4" data-name="Oval" cx="2.828" cy="2.828" r="2.828" transform="translate(33.245 3.402)" fill="#fff" opacity="0.75"/>
          <path id="Shape-64" data-name="Shape" d="M87.284,28.84H78.3V35.8a4.926,4.926,0,0,0,9.853,0V28.84Z" transform="translate(-33.428 -12.467)" fill="#fff" opacity="0.35"/>
          <path id="Shape-65" data-name="Shape" d="M111.221.59a1,1,0,0,1,0,.226H73.675a1,1,0,0,1,0-.226Z" transform="translate(-31.481 -0.59)" opacity="0.15"/>
          <path id="Shape-66" data-name="Shape" d="M13.943,99.42l-4.5,7.6.255-.9Z" transform="translate(-4.479 -42.139)" opacity="0.15"/>
          <path id="Shape-67" data-name="Shape" d="M36.163,69.9,23.98,80.808l.243-.383L35.676,70.172Z" transform="translate(-10.592 -29.729)" opacity="0.15"/>
          <path id="Shape-68" data-name="Shape" d="M145.774,162.438A56.869,56.869,0,0,0,136.39,58.39l8.6,1.484,9.691,5.454,11.447,10.253,8.416,13.29,4.944,17.162.325,14.148-4.532,13.632-7.042,11.957-8.056,8.572-9.007,6.375Z" transform="translate(-57.85 -24.89)" fill="#fff" opacity="0.1"/>
          <path id="Shape-69" data-name="Shape" d="M111.2.98c-.968,5.344-36.555,5.344-37.523,0Z" transform="translate(-31.486 -0.754)" opacity="0.15"/>
          <path id="Shape-70" data-name="Shape" d="M151.573,1.809,147.11.98h.469Z" transform="translate(-62.357 -0.754)" fill="#fff" opacity="0.25"/>
          <path id="Shape-71" data-name="Shape" d="M113.756,3.326l-.881-1.507h0L108.413.99h-5.037c-.968,5.344-36.555,5.344-37.523,0H60.324l-3.993.829L55.05,3.969a14.571,14.571,0,0,0,1.8.829c9.65,3.767,33.616,4.4,48.059,1.9a39.348,39.348,0,0,0,7.419-1.9,14.576,14.576,0,0,0,1.8-.829Z" transform="translate(-23.654 -0.758)" opacity="0.5" fill="url(#linear-gradient-3)"/>
          <path id="Shape-72" data-name="Shape" d="M114.754,8.9,112.835,14.2l-5.083,2.9H55.705l-3.733-2.672L49.55,8.9,52.4,2.627,56.737.94a8.862,8.862,0,0,0-3.93,3.814A8.769,8.769,0,0,0,51.776,8.9v.035c0,2.428,3.391,4.932,5.6,5.019,5.147.191,15.029.122,25.021.116h7.227c2.359,0,4.637-.041,6.775-.087,8.021,0,6.207-7.314,6.207-7.314a39.348,39.348,0,0,0,7.419-1.9,14.577,14.577,0,0,0,1.8-.829l-.377-.643-.881-1.507,2.933,2.77Z" transform="translate(-21.341 -0.737)" opacity="0.1"/>
          <path id="Shape-73" data-name="Shape" d="M122.845,103.89c-13.22,65.569-71.759,67.91-104.8,58.637l13.62,14.78,7.824,4.26H98.613l8.277-4.411,9.563-9.129,9.129-14.345,3-9.923,1.472-13.533-1.472-14.287Z" transform="translate(-8.098 -44.019)" opacity="0.07" fill="url(#linear-gradient-4)"/>
          <path id="Shape-74" data-name="Shape" d="M114.1,240.849l-1.982-2.939H52l-1.791,4.237h51.862l1.559,3.356h10.531l1.3-3.356V240.7Z" transform="translate(-21.619 -100.362)" opacity="0.07" fill="url(#linear-gradient-5)"/>
          <path id="Shape-75" data-name="Shape" d="M21.153,88.73,17.27,94.862l3.35-5.651Z" transform="translate(-7.771 -37.645)" opacity="0.15"/>
          <path id="Shape-76" data-name="Shape" d="M50.667,64.4,45.01,67.582l1.182-1.061Z" transform="translate(-19.433 -27.416)" opacity="0.15"/>
          <path id="Shape-77" data-name="Shape" d="M8.513,92.938c.539-.875,19.294-30.376,85.744-27.119L89.621,62.84,81.072,58.4H44.245l-7.569,1.321-4.527,2.15h-.035L26.48,65.059h0L14.309,75.967h0L10.426,82.1l-.035.064-4.5,7.6L1.2,106.031.88,120.178,5.412,133.81l7.042,11.957,8.056,8.572,9.007,6.375,5.4,1.7a56.939,56.939,0,0,1-26.4-69.464Z" transform="translate(-0.88 -24.894)" opacity="0.07" fill="url(#linear-gradient-6)"/>
          <path id="Shape-78" data-name="Shape" d="M70.7,237.92c-4.017,4.017-1.837,8-1.837,8H59.495c-3.431-3.431,3.072-8,3.072-8Z" transform="translate(-25.102 -100.366)" fill="#fff" opacity="0.25"/>
          <circle id="Oval-5" data-name="Oval" cx="1.264" cy="1.264" r="1.264" transform="translate(100.576 122.728)" fill="#fff" opacity="0.31"/>
          <path id="Shape-79" data-name="Shape" d="M118.845,216.59c-22.274,12.363-69.5,12.363-91.8,0l16.228,12.363H102.4Z" transform="translate(-11.882 -91.399)" opacity="0.5" fill="url(#linear-gradient-7)"/>
          <path id="Shape-80" data-name="Shape" d="M152.692,11.783,151.677,6.81h-2.7l-2,.788c5.268,7.83-3.24,11.632-7.193,11.98h5.871l5.865-2.84.817-4.469-.07-.423Z" transform="translate(-59.279 -3.205)" opacity="0.38" fill="url(#linear-gradient-8)"/>
          <path id="Shape-81" data-name="Shape" d="M137.05,45.973h4.637V28.84H137.05a26.047,26.047,0,0,1,0,17.133Z" transform="translate(-58.127 -12.467)" fill="#fff" opacity="0.15"/>
          <path id="Shape-82" data-name="Shape" d="M83.566,28.84H67.39V42.4h0v3.576H112.4V28.84Zm12.3,13.539H74.27a3.744,3.744,0,0,1-3.744-3.744h0a3.744,3.744,0,0,1,3.744-3.744h9.273v.052h11.94c4.747.012,5.095,7.135.383,7.43Z" transform="translate(-28.842 -12.467)" opacity="0.1"/>
          <circle id="Oval-6" data-name="Oval" cx="2.411" cy="2.411" r="2.411" transform="translate(105.699 86.202)" fill="#fff" opacity="0.15"/>
          <circle id="Oval-7" data-name="Oval" cx="1.716" cy="1.716" r="1.716" transform="translate(69.261 43.817)" opacity="0.6" fill="url(#linear-gradient-9)"/>
          <circle id="Oval-8" data-name="Oval" cx="1.721" cy="1.721" r="1.721" transform="translate(100.414 108.615)" fill="#fff" opacity="0.15"/>
          <circle id="Oval-9" data-name="Oval" cx="1.721" cy="1.721" r="1.721" transform="translate(56.962 126.512)" fill="#fff" opacity="0.15"/>
          <circle id="Oval-10" data-name="Oval" cx="2.626" cy="2.626" r="2.626" transform="translate(24.447 113.083)" fill="#fff" opacity="0.15"/>
          <circle id="Oval-11" data-name="Oval" cx="1.148" cy="1.148" r="1.148" transform="translate(84.95 93.992)" fill="#fff" opacity="0.15"/>
          <circle id="Oval-12" data-name="Oval" cx="0.696" cy="0.696" r="0.696" transform="translate(38.05 67.209)" fill="#fff" opacity="0.15"/>
          <path id="Shape-83" data-name="Shape" d="M100.477,78.647l5.877-.991a2.249,2.249,0,0,1,2.382,1.188h0a2.249,2.249,0,0,1-1.124,3.1l-5.483,2.318a2.944,2.944,0,0,1-3.773-1.374h0a2.944,2.944,0,0,1,2.121-4.243Z" transform="translate(-41.724 -32.976)" opacity="0.6" fill="url(#linear-gradient-10)"/>
          <path id="Shape-84" data-name="Shape" d="M165.291,217.86a36.606,36.606,0,0,1-5.379,3.669,2.144,2.144,0,0,1-2.805-.667h0a2.15,2.15,0,0,1,.522-2.962,37.851,37.851,0,0,0,4.434-3.675,2.423,2.423,0,0,1,3.675.394h0A2.423,2.423,0,0,1,165.291,217.86Z" transform="translate(-66.402 -90.124)" opacity="0.5" fill="url(#linear-gradient-11)"/>
        </g>
        <g id="lines-3" transform="translate(0 19.468)">
          <path id="Shape-85" data-name="Shape" d="M236.669,145.73H166.834a4.6,4.6,0,0,0-.748-3.976,17.969,17.969,0,0,0-1.258-1.513c18.727-10.746,30.26-30.011,30.26-50.836A56.9,56.9,0,0,0,184,55.668a62.114,62.114,0,0,0-27.31-21.016V20.435A9.923,9.923,0,0,0,156.616.59H108.076a9.923,9.923,0,0,0-.07,19.845V34.652A62.115,62.115,0,0,0,80.7,55.668a58.365,58.365,0,0,0-6.375,11.1h0v.052a56.493,56.493,0,0,0-4.7,22.6c0,20.825,11.528,40.09,30.255,50.83a18.043,18.043,0,0,0-1.275,1.53,4.585,4.585,0,0,0-.736,3.959H11.789a1.739,1.739,0,1,0,0,3.478h224.88a1.739,1.739,0,1,0,0-3.478ZM111.478,34.1V20.441h41.73V34.1Zm-9.853-23.6a6.457,6.457,0,0,1,6.451-6.445h48.541a6.451,6.451,0,0,1,0,12.9H108.076A6.457,6.457,0,0,1,101.625,10.5Zm8.45,27.055h3.217l-6.451,6.462a.869.869,0,1,0,1.229,1.229l7.674-7.674h2.614L113.8,42.152a.869.869,0,1,0,1.229,1.229l5.8-5.8h33.784a58.718,58.718,0,0,1,26.568,20.152q.684.939,1.321,1.9c-13.122-1.86-25.774,6.01-38.056,13.91C132.2,64.548,104.094,54,87.06,57.784A24.21,24.21,0,0,0,82.423,59.3c.354-.522.713-1.037,1.084-1.548a58.718,58.718,0,0,1,26.568-20.181ZM77.543,68.106c1.884-3.535,5.344-5.883,10.3-6.955,7.355-1.629,17.886-.469,29.646,3.275,9.065,2.9,17.921,7.036,23.815,11.117-3.228,2.063-6.526,4.138-9.812,5.993C115.4,90.623,94.45,91.858,83.8,84.346c-5.3-3.756-7.407-9.21-6.26-16.217Zm24.83,77.6a1.217,1.217,0,0,1-1.1-.678,1.124,1.124,0,0,1,.093-1.2,14.492,14.492,0,0,1,1.385-1.605c.226-.226.452-.429.678-.626h19.706a1.739,1.739,0,0,0,0-3.478h-19.9C84.626,128.2,73.1,109.57,73.1,89.394a53.166,53.166,0,0,1,1.4-12.247,18.182,18.182,0,0,0,7.291,10c5.216,3.68,12.618,5.483,20.743,5.483a64,64,0,0,0,30.66-8.114c4.057-2.318,8.149-4.915,12.079-7.442l.052-.035L145.39,77c13.568-8.694,26.4-16.953,39.574-13.331A53.131,53.131,0,0,1,191.606,89.4c0,20.175-11.551,38.832-30.139,48.726h-7.709l1.043-1.043a.869.869,0,0,0-1.229-1.229l-2.278,2.278h-2.759l10.224-10.224a.869.869,0,0,0-1.229-1.229l-11.453,11.453h-2.51a1.739,1.739,0,1,0,0,3.478h17.695a14.427,14.427,0,0,1,2.058,2.22,1.159,1.159,0,0,1,.1,1.217,1.211,1.211,0,0,1-1.09.678Z" transform="translate(-4.225 -0.59)" fill="#3c5a78"/>
          <path id="Shape-86" data-name="Shape" d="M289.661,196.484a4.857,4.857,0,1,0-4.851-4.851,4.857,4.857,0,0,0,4.851,4.851Zm0-7.969a3.118,3.118,0,1,1-3.112,3.118A3.118,3.118,0,0,1,289.661,188.514Z" transform="translate(-119.738 -78.862)" fill="#3c5a78"/>
          <path id="Shape-87" data-name="Shape" d="M219.593,222.792a4.272,4.272,0,1,0-4.272,4.272,4.272,4.272,0,0,0,4.272-4.272Zm-6.8,0a2.533,2.533,0,1,1,2.533,2.533A2.533,2.533,0,0,1,212.789,222.792Z" transform="translate(-88.728 -92.21)" fill="#3c5a78"/>
          <path id="Shape-88" data-name="Shape" d="M262.822,169.173a4.272,4.272,0,1,0-4.272-4.272,4.272,4.272,0,0,0,4.272,4.272Zm0-6.8a2.518,2.518,0,1,0,0,.029Z" transform="translate(-108.697 -67.873)" fill="#3c5a78"/>
          <path id="Shape-89" data-name="Shape" d="M180.988,122.525a3.478,3.478,0,1,0-3.478-3.478A3.478,3.478,0,0,0,180.988,122.525Zm0-5.257a1.739,1.739,0,1,1-1.739,1.739,1.739,1.739,0,0,1,1.739-1.739Z" transform="translate(-74.627 -48.929)" fill="#3c5a78"/>
          <path id="Shape-90" data-name="Shape" d="M160.846,193.68a5.8,5.8,0,1,0,5.8,5.8A5.8,5.8,0,0,0,160.846,193.68Zm0,9.853a4.057,4.057,0,1,1,4.057-4.057A4.057,4.057,0,0,1,160.846,203.533Z" transform="translate(-65.185 -81.767)" fill="#3c5a78"/>
          <path id="Shape-91" data-name="Shape" d="M299.646,158.072a5.8,5.8,0,1,0-5.8-5.8,5.8,5.8,0,0,0,5.8,5.8Zm0-9.853a4.057,4.057,0,1,1-4.057,4.057,4.057,4.057,0,0,1,4.057-4.057Z" transform="translate(-123.538 -61.924)" fill="#3c5a78"/>
          <path id="Shape-92" data-name="Shape" d="M185.1,181.376a1.61,1.61,0,0,0-.325.1,1.35,1.35,0,0,0-.3.162,1.31,1.31,0,0,0-.267.214,1.768,1.768,0,0,0-.214.261,2.155,2.155,0,0,0-.162.3,2.082,2.082,0,0,0-.1.325,1.687,1.687,0,0,0,0,.684,2.081,2.081,0,0,0,.1.325,2.133,2.133,0,0,0,.162.3,2.268,2.268,0,0,0,.214.261,1.739,1.739,0,0,0,2.457,0,1.844,1.844,0,0,0,.22-.261,1.645,1.645,0,0,0,.156-.3,1.629,1.629,0,0,0,.1-.325,2.256,2.256,0,0,0,0-.342,1.739,1.739,0,0,0-2.075-1.7Z" transform="translate(-77.229 -76.581)" fill="#3c5a78"/>
          <path id="Shape-93" data-name="Shape" d="M203.46,136.846a1.738,1.738,0,0,0,1.229-2.967,1.768,1.768,0,0,0-1.571-.481,1.635,1.635,0,0,0-.325.1,1.5,1.5,0,0,0-.3.156,1.856,1.856,0,0,0-.267.22,1.739,1.739,0,0,0,1.235,2.962Z" transform="translate(-84.807 -56.411)" fill="#3c5a78"/>
          <path id="Shape-94" data-name="Shape" d="M144.119,122.016a2.185,2.185,0,0,0,.342-.035,2.028,2.028,0,0,0,.626-.261,1.908,1.908,0,0,0,.261-.214,1.647,1.647,0,0,0,.22-.267,1.489,1.489,0,0,0,.156-.3,1.616,1.616,0,0,0,.1-.325,1.653,1.653,0,0,0,.035-.336,1.676,1.676,0,0,0-.035-.342,1.61,1.61,0,0,0-.1-.325,1.5,1.5,0,0,0-.156-.3,2,2,0,0,0-.22-.267,1.951,1.951,0,0,0-.261-.214,1.68,1.68,0,0,0-.3-.156,1.628,1.628,0,0,0-.325-.1,1.9,1.9,0,0,0-.678,0,1.634,1.634,0,0,0-.325.1,1.379,1.379,0,0,0-.3.156,1.969,1.969,0,0,0-.267.214,1.917,1.917,0,0,0-.214.267,1.883,1.883,0,0,0-.162.3,2.145,2.145,0,0,0-.1.325,1.669,1.669,0,0,0-.035.342,1.739,1.739,0,0,0,.51,1.229,1.768,1.768,0,0,0,1.229.51Z" transform="translate(-59.858 -50.176)" fill="#3c5a78"/>
          <path id="Shape-95" data-name="Shape" d="M237.1,151.609a1.739,1.739,0,0,0,.342.035,1.651,1.651,0,0,0,.336-.035,1.385,1.385,0,0,0,.33-.1,1.843,1.843,0,0,0,.3-.156,1.646,1.646,0,0,0,.267-.22,1.52,1.52,0,0,0,.214-.261,1.879,1.879,0,0,0,.162-.3,2.085,2.085,0,0,0,.1-.325,1.681,1.681,0,0,0,0-.678,2.081,2.081,0,0,0-.1-.325,1.651,1.651,0,0,0-.162-.3,1.583,1.583,0,0,0-.214-.267,1.791,1.791,0,0,0-2.457,0,1.646,1.646,0,0,0-.22.267,1.664,1.664,0,0,0-.156.3,1.316,1.316,0,0,0-.1.325,1.659,1.659,0,0,0-.035.336,1.739,1.739,0,0,0,.51,1.229,1.883,1.883,0,0,0,.261.22,2.151,2.151,0,0,0,.3.156,1.339,1.339,0,0,0,.325.1Z" transform="translate(-99.091 -62.642)" fill="#3c5a78"/>
          <path id="Shape-96" data-name="Shape" d="M267.571,146.619a2.155,2.155,0,0,0,.3.162,2.088,2.088,0,0,0,.325.1,1.7,1.7,0,0,0,.342.035,1.738,1.738,0,0,0,.342-.035,2.065,2.065,0,0,0,.325-.1,1.8,1.8,0,0,0,.3-.162,1.583,1.583,0,0,0,.267-.214,1.617,1.617,0,0,0,.214-.267,1.837,1.837,0,0,0,.162-.3,1.966,1.966,0,0,0,.1-.33,1.65,1.65,0,0,0,.035-.336,1.737,1.737,0,0,0-.035-.342,1.612,1.612,0,0,0-.1-.325,2.257,2.257,0,0,0-.162-.3,1.543,1.543,0,0,0-.214-.261,1.8,1.8,0,0,0-2.457,0,1.879,1.879,0,0,0-.22.261,2.162,2.162,0,0,0-.156.3,1.614,1.614,0,0,0-.1.325,1.728,1.728,0,0,0,.475,1.571,1.766,1.766,0,0,0,.261.214Z" transform="translate(-112.166 -60.655)" fill="#3c5a78"/>
          <path id="Shape-97" data-name="Shape" d="M3.35,252.083a1.866,1.866,0,0,0-.162-.3,1.971,1.971,0,0,0-.214-.267,1.53,1.53,0,0,0-.267-.214,1.507,1.507,0,0,0-.3-.162,1.611,1.611,0,0,0-.325-.1,1.739,1.739,0,0,0-1.571.475,1.559,1.559,0,0,0-.214.267,1.825,1.825,0,0,0-.162.3,2.068,2.068,0,0,0-.1.325,1.7,1.7,0,0,0,0,.684,2.081,2.081,0,0,0,.1.325,2.133,2.133,0,0,0,.162.3,1.8,1.8,0,0,0,.214.261,1.739,1.739,0,0,0,2.463,0,2.388,2.388,0,0,0,.214-.261,2.185,2.185,0,0,0,.162-.3,2.081,2.081,0,0,0,.1-.325,1.7,1.7,0,0,0,0-.684,2.068,2.068,0,0,0-.1-.325Z" transform="translate(0 -105.87)" fill="#3c5a78"/>
          <path id="Shape-98" data-name="Shape" d="M410.706,251.47a1.833,1.833,0,0,0-.3-.156,1.61,1.61,0,0,0-.325-.1,1.67,1.67,0,0,0-.678,0,1.616,1.616,0,0,0-.325.1,1.849,1.849,0,0,0-.3.156,1.59,1.59,0,0,0-.267.22,1.739,1.739,0,0,0-.5,1.229,2.117,2.117,0,0,0,0,.336,1.678,1.678,0,0,0,.1.33,1.419,1.419,0,0,0,.156.3,1.9,1.9,0,0,0,.214.267,1.735,1.735,0,0,0,2.457,0,1.6,1.6,0,0,0,.22-.267,1.445,1.445,0,0,0,.156-.3,1.685,1.685,0,0,0,.1-.33,2.125,2.125,0,0,0,.029-.336,1.739,1.739,0,0,0-.51-1.229A1.549,1.549,0,0,0,410.706,251.47Z" transform="translate(-171.527 -105.941)" fill="#3c5a78"/>
          <path id="Shape-99" data-name="Shape" d="M147.394,167.767a1.7,1.7,0,0,0-.162-.3,1.615,1.615,0,0,0-.214-.267,1.8,1.8,0,0,0-2.457,0,1.617,1.617,0,0,0-.22.267,1.646,1.646,0,0,0-.156.3,1.618,1.618,0,0,0-.1.325,1.67,1.67,0,0,0,0,.678,1.611,1.611,0,0,0,.1.325,1.525,1.525,0,0,0,.162.3,1.328,1.328,0,0,0,.214.261,1.739,1.739,0,0,0,2.967-1.223,1.652,1.652,0,0,0-.035-.336,2.087,2.087,0,0,0-.1-.33Z" transform="translate(-60.56 -70.431)" fill="#3c5a78"/>
          <path id="Shape-100" data-name="Shape" d="M162.184,139.763a2.132,2.132,0,0,0,.162.3,1.879,1.879,0,0,0,.214.261,1.728,1.728,0,0,0,1.571.475,1.6,1.6,0,0,0,.325-.1,1.461,1.461,0,0,0,.3-.162,1.363,1.363,0,0,0,.267-.214,1.877,1.877,0,0,0,.214-.261,2.184,2.184,0,0,0,.162-.3,2.08,2.08,0,0,0,.1-.325,1.687,1.687,0,0,0,0-.684,2.08,2.08,0,0,0-.1-.325,2.212,2.212,0,0,0-.162-.3,1.843,1.843,0,0,0-.214-.261,1.8,1.8,0,0,0-2.457,0,1.5,1.5,0,0,0-.214.261,1.692,1.692,0,0,0-.162.3,1.61,1.61,0,0,0-.1.325,1.739,1.739,0,0,0,0,.684,1.61,1.61,0,0,0,.1.325Z" transform="translate(-68.128 -58.099)" fill="#3c5a78"/>
          <path id="Shape-101" data-name="Shape" d="M261.86,230.4a.7.7,0,0,0-.145-.081.842.842,0,0,0-.168-.052.823.823,0,0,0-.336,0,.766.766,0,0,0-.162.052,1.026,1.026,0,0,0-.284.185,1.164,1.164,0,0,0-.11.133.709.709,0,0,0-.075.151.8.8,0,0,0-.052.162.889.889,0,0,0,0,.168.869.869,0,0,0,.255.614.852.852,0,0,0,.614.255.869.869,0,0,0,.869-.869.881.881,0,0,0-.278-.62A.58.58,0,0,0,261.86,230.4Z" transform="translate(-109.527 -97.142)" fill="#3c5a78"/>
          <path id="Shape-102" data-name="Shape" d="M236.3,97.03a.869.869,0,0,0,.614-.255l7.726-7.726a.869.869,0,0,0-1.229-1.229l-7.726,7.726a.869.869,0,0,0,.614,1.484Z" transform="translate(-98.978 -37.165)" fill="#3c5a78"/>
          <path id="Shape-103" data-name="Shape" d="M248.756,92.527a.869.869,0,0,0,1.229,0l7.059-7.059a.869.869,0,1,0-1.229-1.229L248.756,91.3a.869.869,0,0,0,0,1.229Z" transform="translate(-104.473 -35.641)" fill="#3c5a78"/>
          <path id="Shape-104" data-name="Shape" d="M222.969,237.91h-7.1a1.739,1.739,0,0,0,0,3.478h7.1a1.739,1.739,0,0,0,0-3.478Z" transform="translate(-90.023 -100.362)" fill="#3c5a78"/>
          <path id="Shape-105" data-name="Shape" d="M431.171,251.01h-10.5a1.739,1.739,0,0,0,0,3.478h10.5a1.739,1.739,0,0,0,0-3.478Z" transform="translate(-176.123 -105.869)" fill="#3c5a78"/>
        </g>
        <g id="lights" transform="translate(53.351)">
          <ellipse id="Oval-13" data-name="Oval" cx="23.282" cy="13.759" rx="23.282" ry="13.759" transform="translate(21.376 91.9) rotate(-45)" fill="#fff" opacity="0.5"/>
          <circle id="Oval-14" data-name="Oval" cx="46.367" cy="46.367" r="46.367" transform="translate(0 42.739)" fill="url(#radial-gradient)"/>
          <g id="Group-3" data-name="Group" transform="translate(26.847 73.903)" opacity="0.85">
            <path id="Shape-106" data-name="Shape" d="M14.38,24.216v0Z" transform="translate(-6.26 -10.474)" fill="#fff"/>
            <path id="Shape-107" data-name="Shape" d="M15.4,10.442h0l-2.933-.736L11.66,4.82h0l-.817,4.886-2.933.736,2.933.73.817,4.886.811-4.886Z" transform="translate(-3.54 -2.322)" fill="#fff"/>
            <circle id="Oval-15" data-name="Oval" cx="8.12" cy="8.12" r="8.12" transform="translate(0 0)" fill="url(#radial-gradient-2)"/>
          </g>
          <g id="Group-4" data-name="Group" transform="translate(50.076 23.427)" opacity="0.85">
            <path id="Shape-108" data-name="Shape" d="M9.316,6.279h0L7.589,5.851,7.108,2.97h0L6.627,5.851,4.9,6.279l1.727.435.481,2.881.481-2.881Z" transform="translate(-2.321 -1.492)" fill="#fff"/>
            <circle id="Oval-16" data-name="Oval" cx="4.787" cy="4.787" r="4.787" transform="translate(0 0)" fill="url(#radial-gradient-3)"/>
          </g>
          <g id="Group-5" data-name="Group" transform="translate(19.381 102.674)" opacity="0.85">
            <path id="Shape-109" data-name="Shape" d="M8.606,5.507h0l-1.582-.4-.44-2.631V2.47l-.44,2.637-1.582.4L6.142,5.9l.44,2.637L7.023,5.9Z" transform="translate(-2.201 -1.125)" fill="#fff"/>
            <circle id="Oval-17" data-name="Oval" cx="4.382" cy="4.382" r="4.382" transform="translate(0 0)" fill="url(#radial-gradient-4)"/>
          </g>
          <circle id="Oval-18" data-name="Oval" cx="28.979" cy="28.979" r="28.979" transform="translate(21.068)" fill="url(#radial-gradient-5)"/>
          <circle id="Oval-19" data-name="Oval" cx="5.408" cy="5.408" r="5.408" transform="translate(21.062 104.714)" fill="#fff" opacity="0.5"/>
        </g>
      </g>
    </g>
  </g>
</svg>
