<svg id="potion-of-luck" xmlns="http://www.w3.org/2000/svg" xmlns:xlink="http://www.w3.org/1999/xlink" width="284.235" height="168.185" viewBox="0 0 284.235 168.185">
  <defs>
    <linearGradient id="linear-gradient" x1="0.025" y1="0.091" x2="0.868" y2="1.002" gradientUnits="objectBoundingBox">
      <stop offset="0" stop-color="#fff04d"/>
      <stop offset="1" stop-color="#f55645"/>
    </linearGradient>
    <linearGradient id="linear-gradient-2" x1="0.209" y1="0" x2="0.815" y2="1" xlink:href="#linear-gradient"/>
    <linearGradient id="linear-gradient-3" y1="0.5" x2="1" y2="0.5" gradientUnits="objectBoundingBox">
      <stop offset="0" stop-color="#fff" stop-opacity="0.8"/>
      <stop offset="0.86" stop-color="#959595" stop-opacity="0.329"/>
      <stop offset="1" stop-color="#fff" stop-opacity="0"/>
    </linearGradient>
    <linearGradient id="linear-gradient-4" x1="1" y1="0.501" x2="0" y2="0.501" gradientUnits="objectBoundingBox">
      <stop offset="0" stop-color="#fff" stop-opacity="0.6"/>
      <stop offset="0.21" stop-color="#fff" stop-opacity="0.588"/>
      <stop offset="0.37" stop-color="#fff" stop-opacity="0.549"/>
      <stop offset="0.51" stop-color="#fff" stop-opacity="0.478"/>
      <stop offset="0.65" stop-color="#fff" stop-opacity="0.388"/>
      <stop offset="0.78" stop-color="#fff" stop-opacity="0.278"/>
      <stop offset="0.9" stop-color="#fff" stop-opacity="0.129"/>
      <stop offset="1" stop-color="#fff" stop-opacity="0"/>
    </linearGradient>
    <linearGradient id="linear-gradient-5" x1="348.33" y1="313.32" x2="440.32" y2="313.32" xlink:href="#linear-gradient-4"/>
    <linearGradient id="linear-gradient-6" y1="0.5" x2="1" y2="0.5" gradientUnits="objectBoundingBox">
      <stop offset="0" stop-color="#fff" stop-opacity="0"/>
      <stop offset="0.15" stop-color="#878787" stop-opacity="0.38"/>
      <stop offset="1" stop-color="#fff" stop-opacity="0.8"/>
    </linearGradient>
    <linearGradient id="linear-gradient-7" y1="0.5" x2="1" y2="0.5" gradientUnits="objectBoundingBox">
      <stop offset="0" stop-color="#fff" stop-opacity="0.8"/>
      <stop offset="0.22" stop-color="#fff" stop-opacity="0.58"/>
      <stop offset="0.49" stop-color="#fff" stop-opacity="0.329"/>
      <stop offset="0.72" stop-color="#fff" stop-opacity="0.149"/>
      <stop offset="0.9" stop-color="#fff" stop-opacity="0.039"/>
      <stop offset="1" stop-color="#fff" stop-opacity="0"/>
    </linearGradient>
    <linearGradient id="linear-gradient-8" x1="0.499" y1="1" x2="0.499" gradientUnits="objectBoundingBox">
      <stop offset="0" stop-color="#fff" stop-opacity="0"/>
      <stop offset="1" stop-color="#fff" stop-opacity="0.8"/>
    </linearGradient>
    <linearGradient id="linear-gradient-9" x1="410.14" y1="548.64" x2="410.14" y2="539.92" xlink:href="#linear-gradient-8"/>
    <linearGradient id="linear-gradient-10" x1="351.54" y1="313.9" x2="360" y2="313.9" xlink:href="#linear-gradient-4"/>
    <linearGradient id="linear-gradient-11" y1="0.502" x2="1" y2="0.502" gradientUnits="objectBoundingBox">
      <stop offset="0" stop-color="#fff" stop-opacity="0"/>
      <stop offset="0.05" stop-color="#e6e6e6" stop-opacity="0.078"/>
      <stop offset="1" stop-color="#fff" stop-opacity="0.8"/>
    </linearGradient>
    <linearGradient id="linear-gradient-12" x1="309.81" y1="390.12" x2="473.29" y2="390.12" xlink:href="#linear-gradient-11"/>
    <radialGradient id="radial-gradient" cx="0.498" cy="0.5" r="0.257" gradientUnits="objectBoundingBox">
      <stop offset="0" stop-color="#fff" stop-opacity="0.102"/>
      <stop offset="0.39" stop-color="#fff" stop-opacity="0.078"/>
      <stop offset="0.8" stop-color="#fff" stop-opacity="0.039"/>
      <stop offset="1" stop-color="#fff" stop-opacity="0"/>
    </radialGradient>
    <radialGradient id="radial-gradient-2" cx="-104.09" cy="-28.05" r="25.67" xlink:href="#radial-gradient"/>
    <radialGradient id="radial-gradient-3" cx="0.5" cy="0.5" r="0.5" gradientUnits="objectBoundingBox">
      <stop offset="0" stop-color="#fff" stop-opacity="0.6"/>
      <stop offset="1" stop-color="#fff" stop-opacity="0"/>
    </radialGradient>
    <radialGradient id="radial-gradient-4" cx="206.69" cy="195" r="10.52" xlink:href="#radial-gradient-3"/>
    <radialGradient id="radial-gradient-5" cx="229.75" cy="43.87" r="10.52" xlink:href="#radial-gradient-3"/>
    <linearGradient id="linear-gradient-13" x1="258.35" y1="397.82" x2="333.67" y2="397.82" xlink:href="#linear-gradient-4"/>
    <linearGradient id="linear-gradient-14" x1="244.84" y1="317.39" x2="274.78" y2="317.39" xlink:href="#linear-gradient-4"/>
    <linearGradient id="linear-gradient-15" x1="457.46" y1="418.52" x2="457.46" y2="526.85" xlink:href="#linear-gradient-4"/>
  </defs>
  <g id="potion-of-luck-2" data-name="potion-of-luck" transform="translate(0 0)">
    <g id="background" transform="translate(24.014 38.441)">
      <g id="colors" transform="translate(1.115 1.148)">
        <path id="Shape" d="M322,218.511a3.769,3.769,0,0,1-3.792,3.708H202.96a3.63,3.63,0,0,1,0-7.259h86.46v3.63l7.539-3.909,7.539,3.909v-3.63h13.871A3.624,3.624,0,0,1,322,218.511Z" transform="translate(-88.021 -95.298)" fill="#f2f8ff"/>
        <path id="Shape-2" data-name="Shape" d="M320.3,180.25v19.506H309.5v-9.75H294.423v9.75H210.66V180.25Z" transform="translate(-93.024 -80.094)" fill="#fff"/>
        <path id="Shape-3" data-name="Shape" d="M366.781,108.317A16.451,16.451,0,1,1,351.9,131.77a16.145,16.145,0,0,1-1.536-5.975c0-.346-.039-.692-.039-1.044A16.457,16.457,0,0,1,366.781,108.3Zm10.878,17.724a9.636,9.636,0,0,0,.078-1.273A10.956,10.956,0,0,0,356.1,122.35a10.772,10.772,0,0,0-.274,2.418,10.954,10.954,0,0,0,21.834,1.273Z" transform="translate(-154.7 -48.323)" fill="#fff7ed"/>
        <path id="Shape-4" data-name="Shape" d="M375.737,207.47v3.63l-7.539-3.909L360.66,211.1V197.72h15.077Z" transform="translate(-159.261 -87.809)" fill="#fcebeb"/>
        <path id="Shape-5" data-name="Shape" d="M354.4,59.716c3.97,1.067,6.628,4.009,5.942,6.578s-4.467,3.792-8.432,2.731a10.471,10.471,0,0,1-3.814-1.876,7.257,7.257,0,0,1,.095,1.173c0,2.72-1.424,4.925-3.183,4.925s-3.189-2.234-3.189-4.925a5.722,5.722,0,0,1,1.675-4.333l3.524-3.205C348.555,59.409,351.425,58.918,354.4,59.716Z" transform="translate(-150.942 -26.7)" fill="#f2f8ff"/>
        <path id="Shape-6" data-name="Shape" d="M344.155,116.97a16.244,16.244,0,0,0-2.708,4.372h0a11.967,11.967,0,0,0-11.431,0h-.028a16.139,16.139,0,0,0-2.708-4.378A18.623,18.623,0,0,1,344.155,116.97Z" transform="translate(-144.521 -51.257)" fill="#fff7ed"/>
        <path id="Shape-7" data-name="Shape" d="M340.625,42.2c.8,2.976.307,5.847-1.067,7.382l-3.205,3.524a5.722,5.722,0,0,1-4.333,1.675c-2.72,0-4.92-1.43-4.92-3.189s2.2-3.183,4.92-3.183a7.26,7.26,0,0,1,1.173.095,10.487,10.487,0,0,1-1.876-3.808c-1.061-3.976.162-7.745,2.731-8.438S339.558,38.235,340.625,42.2Z" transform="translate(-144.442 -16.464)" fill="#f2f8ff"/>
        <path id="Shape-8" data-name="Shape" d="M344.948,139.66a16.145,16.145,0,0,0,1.536,5.975,15.117,15.117,0,0,0-3.116,7.12,2.669,2.669,0,0,1-2.619,2.312H340.7a2.647,2.647,0,0,1-2.625-3.021A20.237,20.237,0,0,1,344.948,139.66Z" transform="translate(-149.278 -62.171)" fill="#fff7ed"/>
        <path id="Shape-9" data-name="Shape" d="M307.04,118.41a16.267,16.267,0,0,1,1.279,6.355,16.445,16.445,0,0,1-32.863,1.273c-.039-.419-.056-.843-.056-1.273a16.154,16.154,0,0,1,.458-3.842,16.445,16.445,0,0,1,28.479-6.891A16.138,16.138,0,0,1,307.04,118.41Zm-4.222,6.355a10.956,10.956,0,1,0-10.956,10.956,10.956,10.956,0,0,0,10.956-10.956Z" transform="translate(-121.612 -48.319)" fill="#fff7ed"/>
        <path id="Shape-10" data-name="Shape" d="M238.956,130.892h5.506a16.155,16.155,0,0,0-.458,3.842,9.63,9.63,0,0,0,.056,1.273H224.582a15.183,15.183,0,0,0-15,12.844,2.669,2.669,0,0,1-2.619,2.312h-.045a2.647,2.647,0,0,1-2.625-3.021,20.3,20.3,0,0,1,20.07-17.272Z" transform="translate(-90.199 -58.289)" fill="#fff7ed"/>
        <path id="Shape-11" data-name="Shape" d="M100.892,171.513a9.359,9.359,0,0,1-.826,7.544,8.713,8.713,0,0,1-4.59-12.877A9.388,9.388,0,0,1,100.892,171.513Z" transform="translate(-41.588 -73.881)" fill="#f5ffe8"/>
        <path id="Shape-12" data-name="Shape" d="M86.407,206.733a7.594,7.594,0,0,1,1.832-.223,7.333,7.333,0,0,1,.112,1.357,7.628,7.628,0,0,1-1.675,4.9,7.828,7.828,0,0,1-5.891,2.636,7.936,7.936,0,0,1,1.558-6.288,7.472,7.472,0,0,1,4.065-2.384Z" transform="translate(-35.619 -91.69)" fill="#f5ffe8"/>
        <path id="Shape-13" data-name="Shape" d="M82.809,182.337a7.689,7.689,0,0,1,2.027,5.9,7.148,7.148,0,0,1-7.907-7.963A7.684,7.684,0,0,1,82.809,182.337Z" transform="translate(-33.947 -80.093)" fill="#f5ffe8"/>
        <path id="Shape-14" data-name="Shape" d="M67.687,139.777a5.145,5.145,0,0,1-3.847,7.12,33.93,33.93,0,0,1-12.6-.084,31.193,31.193,0,0,0-5.026-1.552c.045-.229.1-.452.156-.676q.444-1.382.782-2.764a34.321,34.321,0,0,1,6.835-12.241,5.151,5.151,0,0,1,8.086.335,4.04,4.04,0,0,1,.223.369,5.238,5.238,0,0,1-1.966,7.148A5.249,5.249,0,0,1,67.48,139.4,1.338,1.338,0,0,1,67.687,139.777Z" transform="translate(-20.406 -56.927)" fill="#eeffe6"/>
        <path id="Shape-15" data-name="Shape" d="M72.562,20.465c0,2.234-2.792,4.037-6.238,4.037a7.235,7.235,0,0,1-5.489-2.122l-4.06-4.467c-1.748-1.949-2.362-5.584-1.351-9.359C56.77,3.528,60.5.177,63.762,1.026s4.8,5.657,3.457,10.688a13.307,13.307,0,0,1-2.379,4.83,9.2,9.2,0,0,1,1.485-.117C69.77,16.427,72.562,18.237,72.562,20.465Z" transform="translate(-24.259 -0.895)" fill="#f2f8ff"/>
        <path id="Shape-16" data-name="Shape" d="M47.059,36.166a7.235,7.235,0,0,1,2.122,5.489c0,3.445-1.809,6.238-4.037,6.238s-4.037-2.792-4.032-6.238a9.2,9.2,0,0,1,.117-1.485,13.307,13.307,0,0,1-4.83,2.379c-5.026,1.346-9.811-.2-10.688-3.457s2.5-6.991,7.527-8.337c3.775-1.011,7.41-.4,9.359,1.351l.715-.5,3.8,3.8Z" transform="translate(-11.292 -13.865)" fill="#f2f8ff"/>
        <path id="Shape-17" data-name="Shape" d="M60.27,210.34a6.88,6.88,0,0,1-6.952,8.287,6.885,6.885,0,0,1,6.952-8.276Z" transform="translate(-23.481 -93.382)" fill="#f5ffe8"/>
        <path id="Shape-18" data-name="Shape" d="M43.236,195.9a7.1,7.1,0,0,1-11.1.966,7.092,7.092,0,0,1,11.1-.966Z" transform="translate(-14.192 -86.02)" fill="#f5ffe8"/>
        <path id="Shape-19" data-name="Shape" d="M31.785,119.115a39.19,39.19,0,0,1-.614,16.714c-.3.9-.558,1.82-.782,2.764-.067.223-.14.441-.212.665a38.771,38.771,0,0,0-4.166-1.117h0a39.089,39.089,0,0,1-13.96-7.79,5.865,5.865,0,0,1,.385-9.214c.134-.095.274-.179.413-.262A5.975,5.975,0,0,1,21,123.108a5.975,5.975,0,0,1,2.234-8.147c.14-.078.285-.156.436-.223A5.864,5.864,0,0,1,31.785,119.115Z" transform="translate(-4.417 -50.935)" fill="#eeffe6"/>
        <path id="Shape-20" data-name="Shape" d="M46.195,159.08a31.192,31.192,0,0,1,5.026,1.552,39.01,39.01,0,0,1-5.07-1.323A.876.876,0,0,1,46.195,159.08Z" transform="translate(-20.379 -70.746)" fill="#ffebeb"/>
        <path id="Shape-21" data-name="Shape" d="M46.5,155.684c.229-.944.486-1.86.782-2.764C47.058,153.841,46.8,154.74,46.5,155.684Z" transform="translate(-20.534 -68.026)" fill="#ffebeb"/>
        <path id="Shape-22" data-name="Shape" d="M46.332,157.87c-.056.223-.112.447-.156.676H46.12C46.2,158.311,46.271,158.093,46.332,157.87Z" transform="translate(-20.366 -70.212)" fill="#ffebeb"/>
        <path id="Shape-23" data-name="Shape" d="M44.9,159.06h.056a1.24,1.24,0,0,1-.056.229,39.008,39.008,0,0,0,5.07,1.323,26.87,26.87,0,0,1,7.645,4.691,4.1,4.1,0,0,1-.268,6.455,3.176,3.176,0,0,1-.29.184,4.088,4.088,0,0,1-2.178.558,4.166,4.166,0,0,1-3.535-2.111,4.188,4.188,0,0,1-1.575,5.713l-.3.156a4.116,4.116,0,0,1-5.69-3.071,27.279,27.279,0,0,1,.173-10.61h0C44.315,161.433,44.634,160.244,44.9,159.06Z" transform="translate(-19.136 -70.737)" fill="#eeffe6"/>
        <path id="Shape-24" data-name="Shape" d="M45.379,159.06a31.123,31.123,0,0,1-.949,3.507,33.029,33.029,0,0,1,.949-3.507Z" transform="translate(-19.62 -70.737)" fill="#ffebeb"/>
        <path id="Shape-25" data-name="Shape" d="M38.67,157.04a38.771,38.771,0,0,1,4.166,1.117,42.592,42.592,0,0,1-4.166-1.117Z" transform="translate(-17.076 -69.845)" fill="#ffebeb"/>
        <path id="Shape-26" data-name="Shape" d="M29.594,157.594a33.032,33.032,0,0,0-.949,3.507h0a32.534,32.534,0,0,1-6.494,11.637,4.9,4.9,0,0,1-7.695-.318c-.078-.112-.151-.229-.218-.346a4.992,4.992,0,0,1,1.871-6.807A4.992,4.992,0,0,1,9.3,163.4c-.067-.117-.128-.24-.184-.363a4.9,4.9,0,0,1,3.658-6.774,32.472,32.472,0,0,1,12.643.212h0a42.592,42.592,0,0,0,4.177,1.122Z" transform="translate(-3.834 -69.271)" fill="#eeffe6"/>
        <path id="Shape-27" data-name="Shape" d="M22.89,208.606s-3.847,5.925-10.962,6.539S0,210.594,0,210.594s3.853-5.925,10.967-6.545S22.89,208.606,22.89,208.606Z" transform="translate(0 -90.581)" fill="#f5ffe8"/>
        <path id="Shape-28" data-name="Shape" d="M320.937,168.341a3.635,3.635,0,0,1-2.569,6.2H202.96a3.63,3.63,0,0,1,0-7.259H318.368A3.635,3.635,0,0,1,320.937,168.341Z" transform="translate(-88.021 -74.367)" fill="#f2f8ff"/>
        <path id="Shape-29" data-name="Shape" d="M360.66,132.334l3.68-1.095,3.842-.279,13.424-.05.614,2.546v2.569H367.065l-6.31,1.547Z" transform="translate(-159.261 -58.307)" fill="#fff7ed"/>
      </g>
      <g id="shadows" transform="translate(1.495 3.837)">
        <path id="Shape-30" data-name="Shape" d="M375.521,196.182h-8a3.63,3.63,0,0,0-3.63,3.63v4.646l-3.719,1.5.274-13.24,15.077.391Z" transform="translate(-159.424 -85.498)" fill="#fff" opacity="0.35"/>
        <path id="Shape-31" data-name="Shape" d="M365.38,208.913l3.406-3.244a2.926,2.926,0,0,1,3.351-.491l5.389,2.982v3.3l-7.259-3.63Z" transform="translate(-161.725 -90.858)" fill="#191919" opacity="0.03"/>
        <path id="Shape-32" data-name="Shape" d="M254.128,162.25h0a3.071,3.071,0,0,1-3.071,3.071H221.321a3.071,3.071,0,0,1-3.071-3.071Z" transform="translate(-96.755 -72.043)" fill="#fff" opacity="0.5"/>
        <path id="Shape-33" data-name="Shape" d="M209.154,209.68h0a3.071,3.071,0,0,1-3.071,3.071h-6v-.262a2.792,2.792,0,0,1,2.792-2.792Z" transform="translate(-88.732 -92.987)" fill="#fff" opacity="0.5"/>
        <path id="Shape-34" data-name="Shape" d="M327.1,162.25h0a3.071,3.071,0,0,0,3.071,3.071h13.994a3.071,3.071,0,0,0,3.071-3.071Z" transform="translate(-144.821 -72.043)" fill="#fff" opacity="0.5"/>
        <path id="Shape-35" data-name="Shape" d="M312.462,162.25h0a4.328,4.328,0,0,1-4.328,4.328H199.55l2.63,2.82H318.465l3.244-1.9v-3.713L319.3,162.25Z" transform="translate(-88.497 -72.043)" fill="#191919" opacity="0.03"/>
        <path id="Shape-36" data-name="Shape" d="M319.3,209.435h-5.121V209.1h-9.588v3.909l-7.539-3.63-6.779,3.071-1.033-3.015V213.2H199.55l2.63,3.378H318.465l3.244-1.9v-3.708Z" transform="translate(-88.497 -92.731)" fill="#191919" opacity="0.03"/>
        <rect id="Rectangle-path" width="109.361" height="4.328" transform="translate(117.257 97.606)" fill="#191919" opacity="0.04"/>
        <path id="Shape-37" data-name="Shape" d="M205.583,140.506h0a5.26,5.26,0,0,0,4.395-2.384c2.932-4.467,7.678-7.07,14.379-7.662h19.684v2.552h-22l-5.651,2.128-4.328,4.68-2.792,6.919-2.083,1.474-2.926-1.4v-3.211Z" transform="translate(-90.577 -58.005)" fill="#191919" opacity="0.04"/>
        <path id="Shape-38" data-name="Shape" d="M345.889,139.62l.86,3.351-.854.921-2.792,6.919-2.111,1.457-2.932-1.4v-3.211l1.318-3.1a5.26,5.26,0,0,0,4.4-2.362,15.831,15.831,0,0,1,2.111-2.58Z" transform="translate(-149.661 -62.05)" fill="#191919" opacity="0.03"/>
        <path id="Shape-39" data-name="Shape" d="M383.038,131.779l-.4,1.273H366.078l-4.395,1.647-.514-2.491a23.509,23.509,0,0,1,7.215-1.709h14.229Z" transform="translate(-159.866 -58.023)" fill="#191919" opacity="0.04"/>
        <path id="Shape-40" data-name="Shape" d="M333.58,110.212l.039.128a3.016,3.016,0,0,0,3.155,2.088,21.376,21.376,0,0,1,8.834,1.284l1.173-1.575-4.238-1.72-5.288-.469Z" transform="translate(-147.683 -48.948)" fill="#fff" opacity="0.75"/>
        <path id="Shape-41" data-name="Shape" d="M278.63,112.344h0a2.859,2.859,0,0,0,3.49-.765c4.936-5.964,12.916-7.064,18.567-3.563a2.826,2.826,0,0,0,3.535-.469h0l-6.014-3.423-6.8-.754-4.747,1.379-4.361,2.317Z" transform="translate(-123.418 -46.043)" fill="#fff" opacity="0.75"/>
        <path id="Shape-42" data-name="Shape" d="M275.43,127.313a4.765,4.765,0,0,0,6.9,2.535l2.881,3.351,4.825,2.116,6.5-.877,5.277-4.132,1.022-5.813-1.9-6.171s4-.9,3.607-4.322l2.384,3.848,1.251,4.389.156,5.076-1.251,4.769-3.619,4.68-4.59,2.63-5.165,1.558-6.8-.765-4.953-2.027-3.2-3.736-1.843-3.082Z" transform="translate(-122.005 -50.737)" fill="#191919" opacity="0.03"/>
        <path id="Shape-43" data-name="Shape" d="M353.71,112.344h0a2.859,2.859,0,0,0,3.49-.765c4.936-5.964,12.916-7.064,18.567-3.563a2.826,2.826,0,0,0,3.535-.469h0l-6.014-3.423-6.8-.754-4.747,1.379-4.361,2.317Z" transform="translate(-156.572 -46.043)" fill="#fff" opacity="0.75"/>
        <path id="Shape-44" data-name="Shape" d="M350.5,127.326a4.765,4.765,0,0,0,6.9,2.535l2.881,3.351,4.825,2.116,6.5-.877,5.277-4.132,1.033-5.8-1.9-6.171s4-.9,3.607-4.322L382,117.878l1.251,4.389.156,5.076-1.251,4.769-3.619,4.68-4.585,2.608-5.165,1.558-6.8-.765-4.953-2.027-3.189-3.736-1.843-3.082Z" transform="translate(-155.154 -50.75)" fill="#191919" opacity="0.03"/>
        <path id="Shape-45" data-name="Shape" d="M330.917,111.65l.257.48a3.066,3.066,0,0,0,3.094,1.6,13.6,13.6,0,0,1,7.321,1.15l.9.324-.966,1.893-5.026-1.43-6.561,1.15-2.384-3.848Z" transform="translate(-145.02 -49.699)" fill="#191919" opacity="0.04"/>
        <path id="Shape-46" data-name="Shape" d="M53.43,213.616l6.952-8.276-.346,3.87-2.1,2.887Z" transform="translate(-23.973 -91.071)" fill="#191919" opacity="0.04"/>
        <path id="Shape-47" data-name="Shape" d="M80.84,210.582l7.449-8.672-.2,3.457a30.084,30.084,0,0,1-1.614,2.854c-.313.313-3.479,2.055-3.479,2.055Z" transform="translate(-36.077 -89.556)" fill="#191919" opacity="0.04"/>
        <path id="Shape-48" data-name="Shape" d="M71.5,140.675c4.065.642,7.014,1.608,6.857,5.83l.893-3.351-2.116-2.792L74.588,139Z" transform="translate(-31.953 -61.776)" fill="#fff" opacity="0.5"/>
        <g id="Group" transform="translate(0 62.387)" opacity="0.6">
          <ellipse id="Oval" cx="4.194" cy="4.194" rx="4.194" ry="4.194" transform="translate(15.435 0)" fill="#fff"/>
          <path id="Shape-49" data-name="Shape" d="M18.62,13.637h0a4.116,4.116,0,1,0-7.505,3.082l-.463.19,2.636,3.563,6.483,3.412C15.833,21.142,19.363,17.412,18.62,13.637Z" transform="translate(-5.011 -4.842)" fill="#fff"/>
          <path id="Shape-50" data-name="Shape" d="M52.13,20.919a25.475,25.475,0,0,1,5.674-5.21,5.512,5.512,0,0,1,4.049-.715,4.2,4.2,0,0,1,3.306,3.172l.274-3.468L62.947,11.18H59.038l-3.976,3.177Z" transform="translate(-23.399 -5.177)" fill="#fff"/>
          <path id="Shape-51" data-name="Shape" d="M16.5,48.24c-8.561,1.117-4.434-7.818,2.038-8.46l-.2-1.05-5.461.519L10.467,40.6,8.92,43v3.144l1.9,2.094,2.915,1.117Z" transform="translate(-4.319 -17.343)" fill="#fff"/>
          <path id="Shape-52" data-name="Shape" d="M20.709,56.18c-1.675,3-1.8,5.942.14,8.79l-3.1-2.049s-.525-3.211-.486-3.384,1.452-2.63,1.452-2.63Z" transform="translate(-8 -25.048)" fill="#fff"/>
          <path id="Shape-53" data-name="Shape" d="M44.35,56.629c2.234,4.668,4.713,5.69,7.645,1.53l3.6.318c2.234-1.988,1.954-4.707.514-7.768l2.736,2.658.307,3.909-1.709,1.642-2.943.313-1.765-.279s-1.848,2.7-1.921,2.747-3.6,1.72-3.6,1.72l-2.234-1.463L43.92,59.3Z" transform="translate(-19.774 -22.633)" fill="#fff"/>
          <path id="Shape-54" data-name="Shape" d="M94.92,49.2,99.5,62.066l-3-1.82-2.859-3.965-.737-3.842Z" transform="translate(-41.407 -21.966)" fill="#fff"/>
          <path id="Shape-55" data-name="Shape" d="M76.98,63.29,85.1,71.51l-.324-4.238-1.921-2.4-2.647-1.156Z" transform="translate(-34.373 -28.188)" fill="#fff"/>
          <path id="Shape-56" data-name="Shape" d="M32.14,79.874l10.777-.765-1.971-1.77-3.864-.659L33.81,78.154Z" transform="translate(-14.572 -34.1)" fill="#fff"/>
          <path id="Shape-57" data-name="Shape" d="M22.771,91.872C15.579,93.748,8.464,93.854.68,93.229L3.472,90.4,8.5,87.734l4.83-.374,4.049,1.2,3.982,1.91Z" transform="translate(-0.68 -38.817)" fill="#fff"/>
        </g>
        <path id="Shape-58" data-name="Shape" d="M44.682,146.534,51.6,145.1a19.361,19.361,0,0,1-6.947-1.631,2.234,2.234,0,0,1-.988-3.166h0l-.419-1.15h-.039a2.652,2.652,0,0,1-3.2-2.384,12.2,12.2,0,0,1,.089-2.491l-1.91.96V129.82q-.318.949-.676,1.793a4.155,4.155,0,0,1-6.7,1.385,24.062,24.062,0,0,1-1.96-2.155l.307.9-1.552.681c.558,1.039,1.162,1.938,1.558,2.837a2.407,2.407,0,0,1-2.524,3.351,17.233,17.233,0,0,1-3.529-.927l4.467,3.641h0a3.038,3.038,0,0,1,.558,3.351,12.794,12.794,0,0,1-3.764,4.59l.815,1.441h.056a2.954,2.954,0,0,1,3.518,3.948,47.032,47.032,0,0,1-2.708,5.584l3.043-2.39,4.607-6.969.776,3.786a16.907,16.907,0,0,1,.849-2.234,2.479,2.479,0,0,1,4.171-.558h0l1.519-.944v-.039a3.535,3.535,0,0,1,3.418-4.395Z" transform="translate(-10.585 -57.722)" fill="#191919" opacity="0.03"/>
        <g id="Group-2" data-name="Group" transform="translate(16.736 0)" opacity="0.65">
          <ellipse id="Oval-2" data-name="Oval" cx="4.484" cy="4.484" rx="4.484" ry="4.484" transform="translate(0 15.128)" fill="#fff"/>
          <ellipse id="Oval-3" data-name="Oval" cx="2.245" cy="2.245" rx="2.245" ry="2.245" transform="translate(13.564 23.23)" fill="#fff"/>
          <ellipse id="Oval-4" data-name="Oval" cx="2.245" cy="2.245" rx="2.245" ry="2.245" transform="translate(23.085 13.095)" fill="#fff"/>
          <ellipse id="Oval-5" data-name="Oval" cx="4.484" cy="4.484" rx="4.484" ry="4.484" transform="translate(14.586)" fill="#fff"/>
          <ellipse id="Oval-6" data-name="Oval" cx="3.568" cy="3.568" rx="3.568" ry="3.568" transform="translate(171.228 18.763)" fill="#fff"/>
          <ellipse id="Oval-7" data-name="Oval" cx="2.312" cy="2.312" rx="2.312" ry="2.312" transform="translate(166.224 30.138)" fill="#fff"/>
          <ellipse id="Oval-8" data-name="Oval" cx="2.312" cy="2.312" rx="2.312" ry="2.312" transform="translate(174.634 38.793)" fill="#fff"/>
          <ellipse id="Oval-9" data-name="Oval" cx="3.568" cy="3.568" rx="3.568" ry="3.568" transform="translate(183.418 31.031)" fill="#fff"/>
        </g>
        <path id="Shape-59" data-name="Shape" d="M210.426,187.62h0a4.238,4.238,0,0,1,4.238,4.238h0a4.613,4.613,0,0,0,2.943,4.305c7.3,2.831,17.869,3.613,29.445,3.775l-36.923.246Z" transform="translate(-93.169 -83.246)" fill="#fff" opacity="0.94"/>
        <rect id="Rectangle-path-2" data-name="Rectangle-path" width="19.684" height="3.071" rx="1.536" transform="translate(175.661 108.73)" fill="#fff" opacity="0.94"/>
        <path id="Shape-60" data-name="Shape" d="M376.475,198.952a2.9,2.9,0,0,1,.268-4.082,2.848,2.848,0,0,0,.949-2.128v-.4H353.68v.4a2.87,2.87,0,0,0,2.87,2.87h.737v-3.043h15.837v1.988l-.525.05.056,7.427,10.8-.447C380.356,201.375,377.96,200.554,376.475,198.952Z" transform="translate(-156.559 -85.33)" fill="#191919" opacity="0.03"/>
      </g>
      <g id="lines" transform="translate(0 0)">
        <path id="Shape-61" data-name="Shape" d="M322.835,169.365a4.735,4.735,0,0,0-3.351-1.385H317.53V150.708h1.954a4.747,4.747,0,0,0,0-9.493h-9.705a17.562,17.562,0,1,0-21.3-27.4,19.6,19.6,0,0,0-16.35,0,17.551,17.551,0,0,0-29.6,7.12H223.3a21.527,21.527,0,0,0-21.175,18.227,3.73,3.73,0,0,0,.413,2.329,4.747,4.747,0,0,0,1.541,9.231h1.58V167.98h-1.58a4.747,4.747,0,0,0,0,9.493H319.323a5.026,5.026,0,0,0,3.552-1.5,4.624,4.624,0,0,0,1.351-3.351A4.752,4.752,0,0,0,322.835,169.365Zm-21.616-58.818a15.334,15.334,0,1,1-15.3,16.289v-.05c0-.3-.028-.6-.028-.9a15.351,15.351,0,0,1,15.329-15.334Zm-25.24,9.56a10.61,10.61,0,0,1,8.65,0,17.485,17.485,0,0,0-.983,5.78v.558a21.365,21.365,0,0,0-6.829,12.7,3.725,3.725,0,0,0,.29,2.066h-9.158a17.546,17.546,0,0,0,8.03-21.114Zm3.418,20.578a1.485,1.485,0,0,1-.352-1.206,19.115,19.115,0,0,1,4.936-10.208,17.417,17.417,0,0,0,1.072,3.5,16.256,16.256,0,0,0-2.932,7.092,1.564,1.564,0,0,1-1.558,1.363,1.536,1.536,0,0,1-1.167-.542Zm4.931-.491a14.005,14.005,0,0,1,1.893-5.165,17.7,17.7,0,0,0,6.461,6.187h-8.65a3.964,3.964,0,0,0,.274-1.027Zm2.658-24.57a17.586,17.586,0,0,0-1.491,2.451,12.877,12.877,0,0,0-10.392,0,17.583,17.583,0,0,0-1.491-2.451,17.076,17.076,0,0,1,13.38-.028Zm-27.6-5.026A15.334,15.334,0,1,1,244.1,127.159h0v-.028c-.034-.413-.056-.826-.056-1.245a15.307,15.307,0,0,1,.424-3.579v-.061a15.362,15.362,0,0,1,14.927-11.7Zm-8.561,30.668H209.32a3.964,3.964,0,0,0,.3-1.027,14.15,14.15,0,0,1,13.9-11.917h18.472a17.6,17.6,0,0,0,8.84,12.894ZM204.333,139.5a19.277,19.277,0,0,1,18.986-16.323H242.06a17.625,17.625,0,0,0-.212,2.725v.156H223.521a16.4,16.4,0,0,0-16.11,13.815,1.564,1.564,0,0,1-1.558,1.363,1.536,1.536,0,0,1-1.167-.558,1.485,1.485,0,0,1-.352-1.178Zm-2.792,6.483a2.513,2.513,0,0,1,2.513-2.513H319.485a2.513,2.513,0,0,1,0,5.026H204.077a2.513,2.513,0,0,1-2.513-2.535Zm6.327,19.081h5.21a1.117,1.117,0,0,0,0-2.234h-5.21V157.99h10.984a1.117,1.117,0,1,0,0-2.234H207.891V150.73H315.3v2.234h-6.332a1.117,1.117,0,1,0,0,2.234H315.3V167.98H306.73v-7.522H309.9a1.117,1.117,0,1,0,0-2.234H287.376a1.117,1.117,0,1,0,0,2.234h2.049v7.522H207.9Zm83.763-4.579h12.844V169.1h0v1.77l-5.908-3.066a1.117,1.117,0,0,0-1.027,0l-5.908,3.066Zm29.624,13.96a2.759,2.759,0,0,1-1.954.832H204.077a2.513,2.513,0,0,1,0-5.026H289.42v2.513a1.117,1.117,0,0,0,1.631.994l7.025-3.641,7.025,3.641a1.117,1.117,0,0,0,1.631-.994v-2.552h12.754A2.5,2.5,0,0,1,322,172.676a2.4,2.4,0,0,1-.715,1.731Z" transform="translate(-88.022 -48.287)" fill="#d5e0e5"/>
        <path id="Shape-62" data-name="Shape" d="M90.348,178.081c-9.035-6.807-16.987-11.118-24.928-13.313a17.5,17.5,0,0,1-4.6-7.444,9.791,9.791,0,0,0-5.45-14.022,1.117,1.117,0,0,0-1.3.464,9.8,9.8,0,0,0,4.652,14.312,22.158,22.158,0,0,0,2.943,5.819,48.516,48.516,0,0,0-6.8-.821,9.493,9.493,0,0,0-1.72-3.256,8.242,8.242,0,0,0-9.18-8.689,1.117,1.117,0,0,0-.977.972,8.874,8.874,0,0,0,2.34,6.824,8.65,8.65,0,0,0,6.109,2.418h.05a7.058,7.058,0,0,1,.977,1.675q-2.183,0-4.428.162a51.844,51.844,0,0,1-9.152-8.6,5.315,5.315,0,0,0,.7-.324c.123-.073.246-.145.369-.229a5.026,5.026,0,0,0,2.183-3.909,5.361,5.361,0,0,0-1.809-4.333,27.582,27.582,0,0,0-2.792-2.122h1a34.3,34.3,0,0,0,6.2-.558,6.433,6.433,0,0,0,4.523-3.351,6.009,6.009,0,0,0,.134-5.333,4.979,4.979,0,0,0-.24-.463,6.316,6.316,0,0,0-3.842-2.988,6.416,6.416,0,0,0-1.15-.207,6.36,6.36,0,0,0-.19-5.919c-.089-.151-.179-.3-.274-.441a6.009,6.009,0,0,0-4.652-2.608,6.405,6.405,0,0,0-5.2,2.167,34.343,34.343,0,0,0-3.7,5.137,39.173,39.173,0,0,0-.558-9.085,7.17,7.17,0,0,0-3.747-5.026,6.7,6.7,0,0,0-5.936-.151c-.173.084-.346.168-.514.268a7.047,7.047,0,0,0-3.351,4.283A7.176,7.176,0,0,0,15.8,120.9a7.1,7.1,0,0,0-6.813.112q-.251.145-.491.307A6.7,6.7,0,0,0,5.6,126.5a7.17,7.17,0,0,0,2.418,5.8,39.151,39.151,0,0,0,7.438,5.11,32.69,32.69,0,0,0-5.584.558A6.176,6.176,0,0,0,5.53,141.2a5.774,5.774,0,0,0-.128,5.121q.106.223.229.441a6.064,6.064,0,0,0,3.691,2.87,6.171,6.171,0,0,0,1.022.19,6.143,6.143,0,0,0-.357.977,6.064,6.064,0,0,0,.558,4.635c.084.145.173.29.262.424a5.774,5.774,0,0,0,4.467,2.507h.363a6.176,6.176,0,0,0,4.629-2.094,32.83,32.83,0,0,0,3.959-5.657,27.6,27.6,0,0,0,.424,4.1,5.366,5.366,0,0,0,2.792,3.769,5.126,5.126,0,0,0,2.357.558,4.97,4.97,0,0,0,2.1-.469c.128-.061.262-.128.385-.2a5.322,5.322,0,0,0,2.63-3.853,5.343,5.343,0,0,0,1.351.352,53.274,53.274,0,0,0,8.527,8.611q-1.77.223-3.613.558a29.706,29.706,0,0,0-10.521-3.166,8.627,8.627,0,0,0-6.366-2.256,8.734,8.734,0,0,0-6.143,3.674,1.117,1.117,0,0,0,.117,1.368,8.834,8.834,0,0,0,6.025,2.591,5.469,5.469,0,0,0,.67-.028,8.588,8.588,0,0,0,5.707-3.088,28.394,28.394,0,0,1,6.818,1.675,112.32,112.32,0,0,0-13.2,3.976,16.564,16.564,0,0,0-12.285-4.378C4.441,165.064.375,171.2.2,171.458a1.117,1.117,0,0,0,.078,1.374A16.954,16.954,0,0,0,11.834,177.8q.631,0,1.29-.056c6.7-.558,10.61-5.417,11.582-6.7a110.326,110.326,0,0,1,13.436-4.06l-.793.966a8.376,8.376,0,0,0-5.8,2.8h0a8.51,8.51,0,0,0-1.675,6.774,1.117,1.117,0,0,0,1.055.882h.106a8.488,8.488,0,0,0,6.271-2.848,8.376,8.376,0,0,0,1.793-6.21l2.5-3.1a55.2,55.2,0,0,1,5.763-.782q1,.715,2.021,1.385a8.086,8.086,0,0,0-2.424,1.943h0A9.072,9.072,0,0,0,45.144,176a1.117,1.117,0,0,0,1.055.882h.112a9.041,9.041,0,0,0,6.7-3.032,8.27,8.27,0,0,0,1.787-3.842c9.376,4.948,20.762,8.248,34.739,10.052h.145a1.117,1.117,0,0,0,.67-2.01ZM55.234,151.528a8,8,0,0,1,.3-5.713,7.466,7.466,0,0,1,3.546,9.951,8,8,0,0,1-3.836-4.238Zm-10.052,1.82a5.886,5.886,0,0,1,5.69,5.729,5.886,5.886,0,0,1-5.69-5.729Zm-9.666-27.921A4.16,4.16,0,0,1,38.9,124.02a3.792,3.792,0,0,1,2.937,1.636c.061.095.123.19.179.285a4.132,4.132,0,0,1-1.53,5.646A1.121,1.121,0,0,0,41.6,133.53a4.127,4.127,0,0,1,5.623,1.547c.056.1.106.2.156.3a3.792,3.792,0,0,1-.095,3.351,4.183,4.183,0,0,1-2.937,2.189,33.091,33.091,0,0,1-12.19-.089c-.514-.207-1.039-.4-1.569-.558a22.893,22.893,0,0,0,3.652-2.234,1.117,1.117,0,1,0-1.335-1.793,21.459,21.459,0,0,1-4.361,2.507q.184-.642.346-1.284a33.432,33.432,0,0,1,6.651-12.023ZM7.8,126.617a4.467,4.467,0,0,1,1.932-3.468c.112-.073.223-.145.341-.212a4.864,4.864,0,0,1,6.628,1.82,1.121,1.121,0,1,0,1.943-1.117,4.858,4.858,0,0,1,1.82-6.623q.173-.1.352-.184a4.467,4.467,0,0,1,3.97.112,4.925,4.925,0,0,1,2.574,3.457,38.453,38.453,0,0,1-.676,16.54q-.307.983-.558,2c-1-.3-1.994-.558-2.993-.765a38.224,38.224,0,0,1-13.67-7.589,4.925,4.925,0,0,1-1.636-3.954Zm10.766,28.15a3.909,3.909,0,0,1-3.149,1.312,3.557,3.557,0,0,1-2.759-1.536,2.166,2.166,0,0,1-.168-.268,3.875,3.875,0,0,1,1.452-5.283,1.121,1.121,0,0,0-1.117-1.943A3.87,3.87,0,0,1,7.54,145.6q-.078-.14-.145-.285a3.557,3.557,0,0,1,.089-3.155,3.909,3.909,0,0,1,2.759-2.055,31.629,31.629,0,0,1,12.285.24q1.424.452,2.9.815c-.218.743-.413,1.491-.558,2.234a31.752,31.752,0,0,1-6.282,11.392Zm15.7-3.635a1.121,1.121,0,0,0-1.943,1.117,3.071,3.071,0,0,1-1.156,4.188l-.223.117a2.792,2.792,0,0,1-2.491-.073,3.116,3.116,0,0,1-1.631-2.189,26.374,26.374,0,0,1,.235-10.415q.285-.921.558-1.865a39.908,39.908,0,0,0,3.909.966,26.011,26.011,0,0,1,7.349,4.467,3.116,3.116,0,0,1,1.05,2.518A2.792,2.792,0,0,1,38.7,152.17l-.218.134a3.077,3.077,0,0,1-4.188-1.156Zm-9.543,12.844a6.221,6.221,0,0,1-4.121-1.234,5.847,5.847,0,0,1,7.974-.681A6.193,6.193,0,0,1,24.75,164Zm10.833,10.119a6.009,6.009,0,0,1-3.619,1.966,5.634,5.634,0,0,1,4.936-5.863,5.964,5.964,0,0,1-1.29,3.92Zm-22.633,1.39A14.421,14.421,0,0,1,2.592,171.91a14.487,14.487,0,0,1,9.56-5.3,14.1,14.1,0,0,1,9.421,2.859,39.447,39.447,0,0,1-11.593.715,1.121,1.121,0,1,0-.2,2.234q1.793.156,3.6.156a41.96,41.96,0,0,0,7.449-.676,13.7,13.7,0,0,1-7.885,3.607Zm38.112-10.253q1.39-.034,2.753,0c-.2.162-.38.335-.558.508a9.53,9.53,0,0,0-1.117.14q-.525-.307-1.05-.625Zm.24,7.165a6.573,6.573,0,0,1-4.032,2.156,6.573,6.573,0,0,1,1.43-4.339h0a6.578,6.578,0,0,1,4.032-2.156,6.573,6.573,0,0,1-1.407,4.356Zm3.641-4.864v-.262a7.74,7.74,0,0,1,2.921-1.726c9.007,1.055,17.635,4.747,27.524,11.654-12.123-1.921-22.113-5.1-30.423-9.65Z" transform="translate(-0.003 -50.905)" fill="#d5e0e5"/>
        <path id="Shape-63" data-name="Shape" d="M297.343,142.316a12.073,12.073,0,1,0-12.073-12.073A12.073,12.073,0,0,0,297.343,142.316Zm0-21.912a9.837,9.837,0,1,0,0,.006Z" transform="translate(-125.972 -52.65)" fill="#d5e0e5"/>
        <path id="Shape-64" data-name="Shape" d="M360.672,133.682a1.12,1.12,0,0,0,.05.162,12.073,12.073,0,1,0,22.811-7.907l-.028-.073a12.073,12.073,0,0,0-22.834,7.818Zm21.393-3.5v.156H369.222a16.311,16.311,0,0,0-6.7,1.452,9.085,9.085,0,0,1,0-3.2A18.986,18.986,0,0,1,369,127.478h12.659a9.8,9.8,0,0,1,.4,2.708Zm-9.839,9.839a9.85,9.85,0,0,1-9.1-6.064,14.072,14.072,0,0,1,6.092-1.39h12.52a9.851,9.851,0,0,1-9.515,7.455Zm0-19.679a9.834,9.834,0,0,1,8.482,4.881H369.015a21.309,21.309,0,0,0-5.679.765,9.845,9.845,0,0,1,8.89-5.64Z" transform="translate(-159.029 -52.594)" fill="#d5e0e5"/>
        <path id="Shape-65" data-name="Shape" d="M37.828,146.6a1.117,1.117,0,1,0,1.586-1.569,22.136,22.136,0,0,1-4.2-6.143,1.117,1.117,0,0,0-2.016.96,24.386,24.386,0,0,0,4.635,6.751Z" transform="translate(-14.616 -61.527)" fill="#d5e0e5"/>
        <path id="Shape-66" data-name="Shape" d="M32.472,168.045a1.117,1.117,0,0,0-1.536-.357,19.545,19.545,0,0,1-3.11,1.586,1.117,1.117,0,1,0,.821,2.077,21.778,21.778,0,0,0,3.468-1.765,1.117,1.117,0,0,0,.357-1.541Z" transform="translate(-11.974 -74.442)" fill="#d5e0e5"/>
        <path id="Shape-67" data-name="Shape" d="M53.618,169.173a1.117,1.117,0,0,0-2.122.7,10.387,10.387,0,0,0,1.3,2.7,1.117,1.117,0,0,0,1.865-1.223,8.293,8.293,0,0,1-1.044-2.172Z" transform="translate(-22.716 -74.832)" fill="#d5e0e5"/>
        <path id="Shape-68" data-name="Shape" d="M64.627,151.907a1.11,1.11,0,0,0,1.111-1.117,1.162,1.162,0,0,0-.084-.424,1.3,1.3,0,0,0-.1-.2,2.07,2.07,0,0,0-.14-.168,1.156,1.156,0,0,0-1.58,0,1.016,1.016,0,0,0-.24.363,1.442,1.442,0,0,0-.067.207,1.4,1.4,0,0,0,0,.218,1.117,1.117,0,0,0,1.117,1.117Z" transform="translate(-28.052 -66.569)" fill="#d5e0e5"/>
        <path id="Shape-69" data-name="Shape" d="M324.615,193.25H300.787a1.117,1.117,0,0,0,0,2.234h23.828a1.117,1.117,0,1,0,0-2.234Z" transform="translate(-132.331 -85.804)" fill="#d5e0e5"/>
        <path id="Shape-70" data-name="Shape" d="M287.531,205.92H276.547a1.117,1.117,0,1,0,0,2.234h10.984a1.117,1.117,0,1,0,0-2.234Z" transform="translate(-121.627 -91.398)" fill="#d5e0e5"/>
        <path id="Shape-71" data-name="Shape" d="M33.92,32.3a15.479,15.479,0,0,0,7.259-1.854,9.085,9.085,0,0,0,1.34,4.372,4.561,4.561,0,0,0,3.792,2.334c2.842,0,5.076-3.127,5.149-7.153h.223a3.055,3.055,0,0,0,3.049-3.295c4.026-.073,7.153-2.306,7.153-5.149a4.6,4.6,0,0,0-2.334-3.792,9.085,9.085,0,0,0-4.372-1.34A15.15,15.15,0,0,0,56.5,13.074c1.524-5.713-.341-11.006-4.25-12.056s-8.175,2.608-9.705,8.315a14.647,14.647,0,0,0-.458,5.16,6.528,6.528,0,0,1-1.675-5.255A1.122,1.122,0,1,0,38.18,9.02a8.8,8.8,0,0,0,1.251,5.651,8.784,8.784,0,0,0-5.651-1.251A1.122,1.122,0,0,0,34,15.654a6.528,6.528,0,0,1,5.249,1.675,14.636,14.636,0,0,0-5.154.458c-5.713,1.53-9.365,5.791-8.315,9.705C26.565,30.486,29.843,32.3,33.92,32.3ZM44.7,9.964c1.167-4.35,4.361-7.438,6.969-6.74s3.831,4.97,2.669,9.32a12.157,12.157,0,0,1-2.172,4.417h0a1.117,1.117,0,0,0-.067.106l-.045.084a1.117,1.117,0,0,0-.045.112.112.112,0,0,1-.034.095c-.034.034,0,.073,0,.106v.207a1.115,1.115,0,0,0,0,.123h0v.061a1.116,1.116,0,0,0,.034.123l.039.089a1.082,1.082,0,0,0,.05.106l.061.089.067.084.084.084.05.05h0l.1.067.089.05.095.039.112.039H53.2a8.03,8.03,0,0,1,1.307-.1h0a7.17,7.17,0,0,1,3.8,1,2.532,2.532,0,0,1,1.318,1.915c0,1.558-2.39,2.921-5.121,2.921a8.287,8.287,0,0,1-1.027-.073l-8.806-8.806c-.067-.067-.14-.112-.207-.168a11.939,11.939,0,0,1,.212-5.4ZM34.685,19.976a11.933,11.933,0,0,1,5.489-.218c.056.067.106.145.168.207l8.806,8.806A8.285,8.285,0,0,1,49.22,29.8c0,2.725-1.368,5.121-2.921,5.121A2.532,2.532,0,0,1,44.384,33.6a7.176,7.176,0,0,1-1-3.8,8.069,8.069,0,0,1,.1-1.307v-.028a1.116,1.116,0,0,0,0-.117v-.318a.123.123,0,0,0-.034-.1c-.034-.034,0-.067-.039-.1l-.05-.084a1.118,1.118,0,0,0-.067-.1h0l-.05-.05-.084-.089-.084-.067-.089-.061-.1-.05-.095-.039-.123-.034h-.592l-.084.028-.123.05-.056.034-.134.084h0a12.14,12.14,0,0,1-4.417,2.172c-4.35,1.162-8.622-.056-9.32-2.669s2.362-5.819,6.712-7Z" transform="translate(-11.305 -0.839)" fill="#d5e0e5"/>
        <path id="Shape-72" data-name="Shape" d="M333.1,56.98h0a2.234,2.234,0,0,0,2.167,2.167h0c0,3.384,1.893,6.037,4.305,6.037a3.875,3.875,0,0,0,3.189-1.954,7.26,7.26,0,0,0,1.061-3.211,12.386,12.386,0,0,0,5.512,1.329c3.306,0,5.992-1.485,6.651-3.948.86-3.211-2.1-6.7-6.729-7.946a12,12,0,0,0-3.39-.413,4.948,4.948,0,0,1,3.378-.8,1.117,1.117,0,1,0,.223-2.223,7.293,7.293,0,0,0-3.909.631,7.3,7.3,0,0,0,.631-3.909,1.122,1.122,0,1,0-2.234.218,4.953,4.953,0,0,1-.8,3.378,12,12,0,0,0-.413-3.39c-1.24-4.635-4.724-7.589-7.946-6.729s-4.758,5.171-3.518,9.8a12.243,12.243,0,0,0,.9,2.362,6.7,6.7,0,0,0-4.043,1.731,3.535,3.535,0,0,0-1.117,2.518C327.059,55.115,329.712,56.98,333.1,56.98Zm15.6-5.344c3.311.888,5.668,3.272,5.154,5.21s-3.758,2.826-7.07,1.938a9.348,9.348,0,0,1-3.4-1.675h0l-.1-.067-.089-.05-.089-.034-.117-.039h-.5l-.128.034-.089.039-.106.056-.089.061-.089.067-.084.089-.05.05h0a1.119,1.119,0,0,0-.067.106l-.05.084a1.12,1.12,0,0,0-.039.106.112.112,0,0,1-.033.095c-.034.034,0,.073,0,.106v.212a1.105,1.105,0,0,0,0,.117v.028a6.143,6.143,0,0,1,.078.994,5.422,5.422,0,0,1-.754,2.87,1.781,1.781,0,0,1-1.312.933c-.977,0-2.072-1.564-2.072-3.8a6.238,6.238,0,0,1,.168-1.43l6.059-6.059a8.661,8.661,0,0,1,4.869-.039Zm-18.941.1a4.869,4.869,0,0,1,3.35-1.117h0a6.031,6.031,0,0,1,.988.078h.514l.134-.05.056-.034.134-.084h0l.034-.034.106-.106.056-.073.073-.1.045-.095q.025-.049.045-.1a1.124,1.124,0,0,0,.034-.117V49.81a1.13,1.13,0,0,0,0-.123v-.318a.123.123,0,0,0-.034-.1c-.034-.034,0-.073-.039-.106l-.05-.084a1.123,1.123,0,0,0-.067-.1h0a9.354,9.354,0,0,1-1.675-3.4c-.882-3.311,0-6.55,1.938-7.07s4.322,1.843,5.21,5.149a8.656,8.656,0,0,1-.039,4.948l-6.02,5.953a6.238,6.238,0,0,1-1.424.168c-2.234,0-3.8-1.117-3.8-2.072a1.346,1.346,0,0,1,.436-.888Z" transform="translate(-144.408 -16.393)" fill="#d5e0e5"/>
      </g>
      <g id="lights" transform="translate(161.448 67.67)" opacity="0.5">
        <path id="Shape-73" data-name="Shape" d="M94.879,9.943a7.718,7.718,0,0,1-.034.882l-.034.274a9.918,9.918,0,0,1-8.935,8.728c-.3.028-.592.039-.893.039A9.9,9.9,0,0,1,76.608,15.3a10.052,10.052,0,0,1-1.117-2.418A9.589,9.589,0,0,1,75.1,10.9a8.967,8.967,0,0,1-.05-.955A9.738,9.738,0,0,1,75.3,7.754,9.917,9.917,0,0,1,84.973.02a8.935,8.935,0,0,1,.955.05,9.918,9.918,0,0,1,8.343,6.394l.033.1a9.973,9.973,0,0,1,.575,3.378Z" transform="translate(-33.208 -0.02)" fill="#f2f4ff"/>
        <path id="Shape-74" data-name="Shape" d="M19.966,9.943a7.719,7.719,0,0,1-.034.882L19.9,11.1c-.028.229-.061.452-.106.676A9.912,9.912,0,0,1,11.869,19.7c-.307.056-.614.1-.933.128s-.592.039-.893.039a9.845,9.845,0,0,1-3.384-.592,9.292,9.292,0,0,1-1.418-.648,8.934,8.934,0,0,1-1.363-.91A9.834,9.834,0,0,1,1.689,15.3,9.42,9.42,0,0,1,.919,13.83a8.1,8.1,0,0,1-.357-.949A9.6,9.6,0,0,1,.17,10.9a8.968,8.968,0,0,1-.05-.955A9.739,9.739,0,0,1,.366,7.754a.944.944,0,0,1,.067-.268A9.918,9.918,0,0,1,10.043.02,8.935,8.935,0,0,1,11,.07,9.56,9.56,0,0,1,13.93.819a8.968,8.968,0,0,1,1.469.771,9.923,9.923,0,0,1,2.424,2.183,10.308,10.308,0,0,1,.9,1.363,9.917,9.917,0,0,1,.614,1.329l.034.1a9.968,9.968,0,0,1,.592,3.378Z" transform="translate(-0.12 -0.02)" fill="#f2f4ff"/>
        <path id="Shape-75" data-name="Shape" d="M90.347,1.629,76.638,15.338a10.051,10.051,0,0,1-1.117-2.418,9.588,9.588,0,0,1-.391-1.982L85.947.11a9.8,9.8,0,0,1,4.4,1.519Z" transform="translate(-33.243 -0.06)" fill="#fff"/>
        <path id="Shape-76" data-name="Shape" d="M100.037,15.118A7.72,7.72,0,0,1,100,16l-9,9c-.3.028-.592.039-.893.039a9.845,9.845,0,0,1-3.384-.592L99.445,11.74A9.973,9.973,0,0,1,100.037,15.118Z" transform="translate(-38.365 -5.195)" fill="#fff"/>
        <path id="Shape-77" data-name="Shape" d="M13.93.819.919,13.83a8.1,8.1,0,0,1-.357-.949A9.6,9.6,0,0,1,.17,10.9a8.968,8.968,0,0,1-.05-.955A9.739,9.739,0,0,1,.366,7.754a.944.944,0,0,1,.067-.268L7.592.327A9.862,9.862,0,0,1,10.043.02,8.935,8.935,0,0,1,11,.07,9.56,9.56,0,0,1,13.93.819Z" transform="translate(-0.12 -0.02)" fill="#fff"/>
        <path id="Shape-78" data-name="Shape" d="M21.7,8.089,8.213,21.581a8.934,8.934,0,0,1-1.363-.91L20.81,6.71A10.308,10.308,0,0,1,21.7,8.089Z" transform="translate(-3.092 -2.974)" fill="#fff"/>
        <path id="Shape-79" data-name="Shape" d="M29.084,21.07a9.912,9.912,0,0,1-7.924,7.924C23.539,26.61,26.755,23.4,29.084,21.07Z" transform="translate(-9.411 -9.315)" fill="#fff"/>
      </g>
    </g>
    <g id="bung" transform="translate(122.573)">
      <g id="colors-2" transform="translate(1.675 1.675)">
        <path id="Shape-80" data-name="Shape" d="M.5,6.422C.5,2.876,8.5,0,18.369,0S36.239,2.876,36.239,6.422L32.76,38.33a14.474,14.474,0,0,1-28.781,0Z" transform="translate(-0.5 0)" fill="#f0a860"/>
      </g>
      <g id="shadows-2" transform="translate(1.675 1.675)">
        <path id="Shape-81" data-name="Shape" d="M32.425,2.457,24.048,0,14.254.173l-7,1.642L2.175,3.686.5,6.422,3.1,30.211l1,8.935,2.362,7.064,10.219,4.629C6.246,43.579,8.485,42.462,5.062,8.689A2.055,2.055,0,0,1,7.106,6.422h0A2.055,2.055,0,0,1,9.155,8.477h0a6.092,6.092,0,0,0,6.092,6.092H16.1a6.092,6.092,0,0,0,6.087-6.092V6.422H35.77Z" transform="translate(-0.5 0)" fill="#fff" opacity="0.3"/>
        <path id="Shape-82" data-name="Shape" d="M7.75,46.446C23.112,47.077,31,35.216,31.812,11.5H39.44L35.492,45.809l-4.585,8.069-9.744,2.792L13.63,54.738l-4.2-4.166Z" transform="translate(-3.701 -5.078)" opacity="0.1"/>
        <path id="Shape-83" data-name="Shape" d="M23.469,48.327c-.034-3.055,1.569-4.088,3.6-3.909l-2.178-1.8-1.954.53S22,45.133,22,45.088,23.469,48.327,23.469,48.327Z" transform="translate(-9.994 -18.82)" opacity="0.1"/>
        <path id="Shape-84" data-name="Shape" d="M25.415,87.056c.38-1.441,2.016-1.871,3.909-2.094L26.811,83.75s-2.513.279-2.652.558-1.279,1.848-1.279,1.848Z" transform="translate(-10.383 -36.982)" opacity="0.1"/>
      </g>
      <g id="lines-2" transform="translate(0)">
        <path id="Shape-85" data-name="Shape" d="M20.045,0C10.334,0,.5,2.792.5,8.1v.078a1.675,1.675,0,0,0,.039.352L3.99,40.189a16.149,16.149,0,0,0,32.109,0l3.49-31.914a1.674,1.674,0,0,0,0-.184C39.589,2.781,29.756,0,20.045,0ZM15.979,50.565a2.826,2.826,0,0,1,5.026.625c-.324,0-.642.045-.972.045a12.8,12.8,0,0,1-4.054-.67ZM32.771,39.826A12.771,12.771,0,0,1,22.719,50.95a4.512,4.512,0,0,0-8.3-1.022,12.771,12.771,0,0,1-7.081-10.1L3.985,8.935h6.846a.838.838,0,0,0,0-1.675H4.258c1.474-1.675,6.924-3.909,15.786-3.909S34.357,5.584,35.831,7.259H27.075a.838.838,0,0,0,0,1.675h9.063Z" transform="translate(-0.5 0)" fill="#495385"/>
        <path id="Shape-86" data-name="Shape" d="M42.505,13.838a.838.838,0,0,0-.246-.592l-.123-.106-.145-.078-.156-.045a.849.849,0,0,0-.759.229.838.838,0,0,0-.246.592.776.776,0,0,0,.067.318.8.8,0,0,0,.179.274.849.849,0,0,0,.592.246.838.838,0,0,0,.592-.246.9.9,0,0,0,.184-.274.871.871,0,0,0,.061-.318Z" transform="translate(-18.309 -5.741)" fill="#495385"/>
        <path id="Shape-87" data-name="Shape" d="M22.734,26.09a1.876,1.876,0,0,0,.436-.045,2.1,2.1,0,0,0,.419-.123,2.284,2.284,0,0,0,.385-.207,2.016,2.016,0,0,0,.341-.279,2.413,2.413,0,0,0,.279-.341,1.977,1.977,0,0,0,.2-.385,1.876,1.876,0,0,0,.128-.413,2.368,2.368,0,0,0,.045-.441,2.267,2.267,0,0,0-.653-1.58A2.01,2.01,0,0,0,23.973,22a1.949,1.949,0,0,0-.385-.207,2.116,2.116,0,0,0-.419-.128,2.3,2.3,0,0,0-.871,0,2.233,2.233,0,0,0-.419.128,2.117,2.117,0,0,0-.385.207,2.183,2.183,0,0,0-.994,1.854,2.368,2.368,0,0,0,.045.441,2.234,2.234,0,0,0,.128.413,2,2,0,0,0,.207.385,2.055,2.055,0,0,0,.274.341,2.284,2.284,0,0,0,.341.279,2.519,2.519,0,0,0,.385.207,2.234,2.234,0,0,0,.419.123,1.91,1.91,0,0,0,.436.045Z" transform="translate(-9.332 -9.549)" fill="#495385"/>
        <path id="Shape-88" data-name="Shape" d="M18.194,62.493a1.268,1.268,0,0,0-.128-.246,2.033,2.033,0,0,0-.173-.212,1.6,1.6,0,0,0-.212-.173,2.026,2.026,0,0,0-.24-.128,1.423,1.423,0,0,0-.262-.078,1.284,1.284,0,0,0-.558,0,1.4,1.4,0,0,0-.262.078,2.031,2.031,0,0,0-.24.128,1.637,1.637,0,0,0-.212.173,1.513,1.513,0,0,0-.173.212,1.3,1.3,0,0,0-.128.246,1.385,1.385,0,0,0-.078.257,1.5,1.5,0,0,0,0,.274,1.458,1.458,0,0,0,0,.274,1.441,1.441,0,0,0,.078.262,1.463,1.463,0,0,0,.128.24,1.631,1.631,0,0,0,.173.212,2.028,2.028,0,0,0,.212.173,1.464,1.464,0,0,0,.24.128,1.44,1.44,0,0,0,.262.078,1.362,1.362,0,0,0,.558,0,1.608,1.608,0,0,0,.262-.078,1.458,1.458,0,0,0,.24-.128,2.028,2.028,0,0,0,.212-.173,1.591,1.591,0,0,0,.173-.212,1.418,1.418,0,0,0,.128-.24,1.4,1.4,0,0,0,.078-.262,1.5,1.5,0,0,0,0-.274,1.547,1.547,0,0,0,0-.274,1.346,1.346,0,0,0-.078-.257Z" transform="translate(-7.132 -27.212)" fill="#495385"/>
        <path id="Shape-89" data-name="Shape" d="M52.817,52.1a1.3,1.3,0,0,0-.1-.2,1.34,1.34,0,0,0-.14-.168,1.418,1.418,0,0,0-.168-.14,1.323,1.323,0,0,0-.2-.1,1.307,1.307,0,0,0-.207-.067,1.145,1.145,0,0,0-.436,0,1.362,1.362,0,0,0-.212.067,1.06,1.06,0,0,0-.19.1,1.485,1.485,0,0,0-.173.14,2.073,2.073,0,0,0-.14.168,1.3,1.3,0,0,0-.1.2.96.96,0,0,0-.061.207,1,1,0,0,0,0,.223,1.117,1.117,0,1,0,2.234,0,1.547,1.547,0,0,0,0-.223A1.518,1.518,0,0,0,52.817,52.1Z" transform="translate(-22.662 -22.703)" fill="#495385"/>
        <path id="Shape-90" data-name="Shape" d="M45.4,78.941a.949.949,0,0,0-.2-.106A.9.9,0,0,0,45,78.773a1.117,1.117,0,0,0-1.335,1.117.955.955,0,0,0,0,.218.876.876,0,0,0,.061.207,1.324,1.324,0,0,0,.1.2.983.983,0,0,0,.14.168,1.108,1.108,0,0,0,1.58,0,1.011,1.011,0,0,0,.14-.168,1.351,1.351,0,0,0,.106-.2,1.072,1.072,0,0,1,.061-.207,1.474,1.474,0,0,0,0-.218,1.117,1.117,0,0,0-.329-.787.782.782,0,0,0-.123-.162Z" transform="translate(-19.558 -34.775)" fill="#495385"/>
        <path id="Shape-91" data-name="Shape" d="M14.977,22.19a.994.994,0,0,0,.207-.061.91.91,0,0,0,.19-.106.972.972,0,0,0,.173-.14,1.117,1.117,0,0,0,.329-.787.96.96,0,0,0,0-.218.916.916,0,0,0-.061-.24,1.24,1.24,0,0,0-.1-.19,2.156,2.156,0,0,0-.14-.173,1.485,1.485,0,0,0-.173-.14,1.262,1.262,0,0,0-.19-.1A.949.949,0,0,0,15,19.974a1.15,1.15,0,0,0-.436,0,.994.994,0,0,0-.207.061,1.3,1.3,0,0,0-.2.1,1.424,1.424,0,0,0-.168.14,1.39,1.39,0,0,0-.14.173,1.234,1.234,0,0,0-.1.19,1.374,1.374,0,0,0-.067.212,1.475,1.475,0,0,0,0,.218,1.083,1.083,0,0,0,.084.424,1.067,1.067,0,0,0,.246.363,1.117,1.117,0,0,0,.787.329,1,1,0,0,0,.173.006Z" transform="translate(-6.321 -8.811)" fill="#495385"/>
        <path id="Shape-92" data-name="Shape" d="M26.741,44.13a3.691,3.691,0,1,0,3.691,3.691,3.691,3.691,0,0,0-3.691-3.691Zm0,5.7a2.016,2.016,0,1,1,1.425-.59,2.016,2.016,0,0,1-1.425.59Z" transform="translate(-10.458 -19.487)" fill="#495385"/>
        <path id="Shape-93" data-name="Shape" d="M49.449,21.92a2.859,2.859,0,1,0,2.859,2.859,2.859,2.859,0,0,0-2.859-2.859Zm0,4.037a.492.492,0,1,1,0,.017Z" transform="translate(-20.853 -9.679)" fill="#495385"/>
      </g>
    </g>
    <g id="bottle" transform="translate(0 1.564)">
      <g id="colors-3" transform="translate(93.337 18.958)">
        <path id="Shape-94" data-name="Shape" d="M173.98,189.55a3.055,3.055,0,0,1,.179,1.039,3.1,3.1,0,0,1-.558,1.793Z" transform="translate(-76.74 -84.12)" fill="#a9ffd6"/>
        <path id="Shape-95" data-name="Shape" d="M169.419,187.869l-.385,2.831a3.161,3.161,0,1,1,.385-2.831Z" transform="translate(-72.18 -82.44)" fill="#f96a53"/>
        <path id="Shape-96" data-name="Shape" d="M93.459,7.5v6.338a6.746,6.746,0,0,1-6.746,6.746H43.246A6.746,6.746,0,0,1,36.5,13.834V7.5A6.746,6.746,0,0,1,43.246.75H86.713A6.746,6.746,0,0,1,93.459,7.5Z" transform="translate(-16.199 -0.75)" fill="#f2f4ff" opacity="0.5"/>
        <path id="Shape-97" data-name="Shape" d="M127.475,223.67a2,2,0,1,1-1.417.584A2,2,0,0,1,127.475,223.67Z" transform="translate(-55.487 -99.187)" fill="#ffa788"/>
        <ellipse id="Oval-10" data-name="Oval" cx="2.005" cy="2.005" rx="2.005" ry="2.005" transform="translate(36.768 78.223)" fill="#ffd684"/>
        <ellipse id="Oval-11" data-name="Oval" cx="3.161" cy="3.166" rx="3.161" ry="3.166" transform="translate(20.306 111.159)" fill="#ffd684"/>
        <path id="Shape-98" data-name="Shape" d="M38.433,114.643a3.166,3.166,0,1,1-5.026-.285,36.47,36.47,0,0,1,5.026.285Z" transform="translate(-14.497 -50.916)" fill="#ffd684"/>
        <path id="Shape-99" data-name="Shape" d="M103.634,99.8c-2.128-9.985-23.789-8.711-38.911.034-10.61-8.337-22.164-17.869-36.1-19.651a36.47,36.47,0,0,0-5.026-.285A38.978,38.978,0,0,0,10.44,82.452h0A36.04,36.04,0,0,1,24.618,71.284L25,71.116c4.188-1.675,8.421-3.976,9.566-8.577a9.2,9.2,0,0,0,.246-1.832,80.938,80.938,0,0,0-2.273-24.4H74.424a80.938,80.938,0,0,0-2.273,24.4,9.2,9.2,0,0,0,.246,1.832c1.145,4.6,5.378,6.919,9.566,8.577l.385.168A36.3,36.3,0,0,1,103.634,99.8Z" transform="translate(-4.692 -16.453)" fill="#f2f4ff" opacity="0.5"/>
        <path id="Shape-100" data-name="Shape" d="M97.134,147.035l-1.089,8.114a4,4,0,1,0-1.647,7.645,3.908,3.908,0,0,0,.625-.05l-2.792,20.768a14.96,14.96,0,0,1-1.34,4.467s-3.613,1.675-3.149,1.675h2.234a15.2,15.2,0,0,1-12.765,6.986H20.642A15.2,15.2,0,0,1,7.9,189.67l-.938-1.675a14.96,14.96,0,0,1-1.34-4.467L.45,145.058a34.879,34.879,0,0,1,6.522-25.319,37.34,37.34,0,0,1,10.493-2.189v.285a4,4,0,1,0,8,.19c12.185,2.111,22.577,10.264,32.1,17.747s18.757,14.753,28.39,14.753a20.293,20.293,0,0,0,11.18-3.49Z" transform="translate(-0.146 -52.327)" fill="url(#linear-gradient)"/>
        <path id="Shape-101" data-name="Shape" d="M110.5,143.3c10.342,14.262,21.9,17.4,37.28,10.939,1.96-3.317,1.273-6.511,0-9.594C147.819,144.643,143.028,130.342,110.5,143.3Z" transform="translate(-48.876 -61.299)" fill="url(#linear-gradient-2)"/>
      </g>
      <g id="shadows-3" transform="translate(91.648 18.958)">
        <path id="Shape-102" data-name="Shape" d="M42.04,9.55c1.893,9.962,47.125,12.134,54.049,1.413v11.5l-3.166,1.77H42.933Z" transform="translate(-18.631 -4.636)" opacity="0.12" fill="url(#linear-gradient-3)"/>
        <path id="Shape-103" data-name="Shape" d="M116.9,22.666V24.23l11.3-.62,2.379-2.016L128.75,9.37C128.744,18.634,124.885,21.89,116.9,22.666Z" transform="translate(-51.688 -4.556)" opacity="0.8" fill="url(#linear-gradient-4)"/>
        <path id="Shape-104" data-name="Shape" d="M90.2,2.71V1.75l-47.214.134L38.84,10.126l2.9,10.331a27.3,27.3,0,0,1,1.524-10.052A6.88,6.88,0,0,1,52.007,6.6,42.837,42.837,0,0,0,90.2,2.71Z" transform="translate(-17.218 -1.192)" opacity="0.88" fill="url(#linear-gradient-5)"/>
        <path id="Shape-105" data-name="Shape" d="M58.27.75c0,8.315,35.867,8.315,35.867,0Z" transform="translate(-25.798 -0.75)" opacity="0.12"/>
        <path id="Shape-106" data-name="Shape" d="M104.313,136.772l-.324,12.71L98.4,188.694,97,194.63l-5.735,6.226-6.584,1.887H21.913l-3.244-.732-5.757-4.188-3.5-5.255L8.2,185.98,7.5,177.8c31.489,8.376,83.137-2.033,92.619-50.7Z" transform="translate(-3.379 -56.544)" opacity="0.03" fill="url(#linear-gradient-6)"/>
        <path id="Shape-107" data-name="Shape" d="M97.38,192.732C79.069,217.141,32.8,215.231.12,168.72l6.031,42.669H94.939Z" transform="translate(-0.12 -74.922)" opacity="0.38" fill="url(#linear-gradient-7)"/>
        <path id="Shape-108" data-name="Shape" d="M50.8,249.969a19.037,19.037,0,0,1-.469-4.869H33.58a14.6,14.6,0,0,0,2.234,4.869,12.956,12.956,0,0,0,6,4.869H55.492C52.745,253.672,51.4,252.231,50.8,249.969Z" transform="translate(-14.895 -108.65)" fill="#fff" opacity="0.1"/>
        <path id="Shape-109" data-name="Shape" d="M14.38,245.1h10.7a14.6,14.6,0,0,0,2.234,4.869H19.249A4.869,4.869,0,0,1,14.38,245.1Z" transform="translate(-6.417 -108.65)" opacity="0.1" fill="url(#linear-gradient-8)"/>
        <path id="Shape-110" data-name="Shape" d="M121.731,245.1a4.881,4.881,0,0,1-4.869,4.869H64.041a19.037,19.037,0,0,1-.469-4.869Z" transform="translate(-28.135 -108.65)" opacity="0.1" fill="url(#linear-gradient-9)"/>
        <path id="Shape-111" data-name="Shape" d="M46.764,20.933H42.04V3.27h4.724a35.209,35.209,0,0,0,0,17.663Z" transform="translate(-18.631 -1.863)" opacity="0.8" fill="url(#linear-gradient-10)"/>
        <path id="Shape-112" data-name="Shape" d="M163.79,114.97l2.021,1.7C165.119,116.053,164.449,115.489,163.79,114.97Z" transform="translate(-72.394 -51.187)" opacity="0.08" fill="url(#linear-gradient-11)"/>
        <path id="Shape-113" data-name="Shape" d="M87.525,75.345l-7.589-3.669L74.531,68.5l-3.283-2.278-2.424-9.074,2.652-17.071-.8.229.86-3.2H29.886l1.675,5.942H51.267A12.252,12.252,0,0,1,63.553,55.337v.251A12.252,12.252,0,0,1,51.368,67.873c-9.878.039-19.908-1.223-19.908-3.786C24.368,74.234,4.427,72.558.39,102.155c.558-.8,16.194-26.547,77.162-26.363a22.9,22.9,0,0,1,14.022,4.774l.1.078Z" transform="translate(-0.239 -16.806)" opacity="0.08" fill="url(#linear-gradient-12)"/>
        <path id="Shape-114" data-name="Shape" d="M118.121,35.658a91.464,91.464,0,0,0-2.111,23.593,15.077,15.077,0,0,0,8.376,12.933c12.525,6.187,20.226,14.189,22.409,25.978a35.041,35.041,0,0,1,.212,10.923l-4.931,37.744a20.868,20.868,0,0,1-9.2,14.77l-.128.084,7.617-3.038,4.467-4.992,2.613-6.7,5.121-41.167-1.943-13.6-3.987-8.214L141.4,77.009l-7.5-4.886-7.5-3.63-5.026-5.4-1.424-7.818,3.166-20.366Z" transform="translate(-51.262 -15.834)" fill="#fff" opacity="0.15"/>
      </g>
      <g id="lines-3" transform="translate(0 17.283)">
        <path id="Shape-115" data-name="Shape" d="M6.98,262.18h-5.3a1.675,1.675,0,0,0,0,3.351h5.3a1.675,1.675,0,0,0,0-3.351Z" transform="translate(0 -116.192)" fill="#495385"/>
        <path id="Shape-116" data-name="Shape" d="M286.048,146.738H190.7a18.5,18.5,0,0,0,7.756-12.682l5.177-38.47c.089-.653.151-1.312.207-1.966h0a37.845,37.845,0,0,0,0-6.143v-.045a9.605,9.605,0,0,0-.262-2.234,38.129,38.129,0,0,0-22.2-29.485l-.441-.19c-3.68-1.457-7.578-3.479-8.555-7.427a7.924,7.924,0,0,1-.2-1.513,80.273,80.273,0,0,1,1.932-22.7,8.427,8.427,0,0,0,7.879-8.376V9.171A8.432,8.432,0,0,0,173.566.75H130.1a8.432,8.432,0,0,0-8.421,8.421v6.338a8.427,8.427,0,0,0,7.879,8.376,80.268,80.268,0,0,1,1.932,22.661,7.936,7.936,0,0,1-.2,1.519c-.977,3.948-4.875,5.97-8.6,7.444l-.4.173a37.559,37.559,0,0,0-14.608,11.481,1.675,1.675,0,0,0-.408.558A38.246,38.246,0,0,0,100.017,95.6l5.177,38.47a18.5,18.5,0,0,0,7.773,12.671H23.675a1.675,1.675,0,0,0,0,3.351H286.048a1.675,1.675,0,0,0,0-3.351Zm-85.756-60.9a34.549,34.549,0,0,1,.257,6.79c-11.76,9.493-22.046,3.021-34.421-6.573C177.2,80.42,191.044,78.672,197.4,82.33a5.746,5.746,0,0,1,2.893,3.507Zm-2.111,25.213a2.329,2.329,0,1,1,.558-4Zm-73.153-95.54V9.171A5.076,5.076,0,0,1,130.1,4.1H173.56a5.076,5.076,0,0,1,5.07,5.07v6.338a5.076,5.076,0,0,1-5.07,5.07H130.1a5.076,5.076,0,0,1-5.07-5.07Zm-1.379,43.255.324-.14c4.21-1.675,9.219-4.277,10.576-9.733a11.168,11.168,0,0,0,.3-2.155,84.026,84.026,0,0,0-1.832-22.806h37.649a84.025,84.025,0,0,0-1.832,22.806,11.128,11.128,0,0,0,.3,2.15c1.351,5.45,6.36,8.064,10.532,9.711l.369.162a34.622,34.622,0,0,1,18.707,20.494c-7.723-4.149-23.3-2.133-35.482,4.546l-.7-.558c-13.514-10.61-28.675-22.549-48.493-18.132a34.063,34.063,0,0,1,9.588-6.349Zm3.043,9.158a2.329,2.329,0,1,1-4.629-.335,34.773,34.773,0,0,1,4.624.274.165.165,0,0,1,.017.056Zm-3.144,78.815a15.2,15.2,0,0,1-12.738-6.969h5.841a.838.838,0,0,0,0-1.675h-6.779a15,15,0,0,1-1.34-4.467l-5.177-38.47a34.885,34.885,0,0,1,6.522-25.319,37.274,37.274,0,0,1,10.493-2.189v.285a4,4,0,0,0,8,.19c12.185,2.111,22.577,10.264,32.1,17.747s18.757,14.753,28.39,14.753a20.315,20.315,0,0,0,11.168-3.5l-1.117,8.114a4.009,4.009,0,1,0-1.022,7.595L195.1,133.6a15.005,15.005,0,0,1-1.34,4.467h-3.116a.838.838,0,1,0,0,1.675h2.234a15.194,15.194,0,0,1-12.76,7Z" transform="translate(-9.715 -0.75)" fill="#495385"/>
        <path id="Shape-117" data-name="Shape" d="M505.859,262.673a1.811,1.811,0,0,0-.251-.207,1.676,1.676,0,0,0-.6-.251,1.749,1.749,0,0,0-.659,0,1.642,1.642,0,0,0-.6.251,1.778,1.778,0,0,0-.251.207,1.675,1.675,0,0,0-.491,1.184,1.61,1.61,0,0,0,.034.329,1.537,1.537,0,0,0,.095.313,1.45,1.45,0,0,0,.156.29,1.265,1.265,0,0,0,.207.251,1.815,1.815,0,0,0,.251.212,1.6,1.6,0,0,0,.29.151,1.247,1.247,0,0,0,.313.095,1.643,1.643,0,0,0,.329.033A1.676,1.676,0,0,0,505,265.5a1.233,1.233,0,0,0,.313-.095,1.386,1.386,0,0,0,.285-.151,1.608,1.608,0,0,0,.257-.212,1.514,1.514,0,0,0,.207-.251,1.833,1.833,0,0,0,.156-.29,1.541,1.541,0,0,0,.095-.313,1.61,1.61,0,0,0,.034-.329,1.675,1.675,0,0,0-.491-1.184Z" transform="translate(-222.116 -116.194)" fill="#495385"/>
        <path id="Shape-118" data-name="Shape" d="M206,201.31a4,4,0,1,0,2.831,1.173A4,4,0,0,0,206,201.31Zm0,6.327a.965.965,0,1,1,0,.006Z" transform="translate(-89.2 -89.313)" fill="#495385"/>
        <path id="Shape-119" data-name="Shape" d="M293.817,225.18a2.837,2.837,0,1,0,2.837,2.837A2.837,2.837,0,0,0,293.817,225.18Zm0,4a1.159,1.159,0,1,0,0-.006Z" transform="translate(-128.492 -99.854)" fill="#495385"/>
        <path id="Shape-120" data-name="Shape" d="M234.337,148.014a2.837,2.837,0,1,0-2.837-2.837,2.837,2.837,0,0,0,2.837,2.837Zm0-4a1.162,1.162,0,1,1-1.162,1.162,1.162,1.162,0,0,1,1.162-1.162Z" transform="translate(-102.226 -63.273)" fill="#495385"/>
        <path id="Shape-121" data-name="Shape" d="M260.189,246.7H227.338a.838.838,0,1,0,0,1.675h32.852a.838.838,0,1,0,0-1.675Z" transform="translate(-100.018 -109.357)" fill="#495385"/>
        <path id="Shape-122" data-name="Shape" d="M197.673,247.218a.9.9,0,0,0-.078-.14,1,1,0,0,0-.229-.235l-.145-.078-.156-.045a.849.849,0,0,0-.748.251,1.157,1.157,0,0,0-.1.128.9.9,0,0,0-.078.14.94.94,0,0,0-.05.162.776.776,0,0,0,0,.162.838.838,0,0,0,.838.838.849.849,0,0,0,.843-.838,1.352,1.352,0,0,0,0-.162.892.892,0,0,0-.095-.184Z" transform="translate(-86.587 -109.361)" fill="#495385"/>
        <path id="Shape-123" data-name="Shape" d="M317.435,159.307l-.156.045-.145.078a1.208,1.208,0,0,0-.128.106.811.811,0,0,0-.106.128,1.078,1.078,0,0,0-.078.14.876.876,0,0,1-.045.162.744.744,0,0,0,0,.162.883.883,0,0,0,.061.318.914.914,0,0,0,.184.274.793.793,0,0,0,.268.179.832.832,0,0,0,.916-.179.9.9,0,0,0,.184-.274.871.871,0,0,0,.061-.318.838.838,0,0,0-1-.821Z" transform="translate(-139.881 -70.759)" fill="#495385"/>
        <path id="Shape-124" data-name="Shape" d="M265.262,226.6a.871.871,0,0,0,.274.179.8.8,0,0,0,.324.067.771.771,0,0,0,.318-.067.86.86,0,0,0,.274-.179.793.793,0,0,0,.179-.274.776.776,0,0,0,.067-.318v-.168a.824.824,0,0,0-.05-.156.95.95,0,0,0-.078-.145.708.708,0,0,0-.1-.123.843.843,0,0,0-.759-.229.832.832,0,0,0-.156.045l-.145.078a.753.753,0,0,0-.128.106.682.682,0,0,0-.1.123.906.906,0,0,0-.078.145.868.868,0,0,0-.05.156v.168a.777.777,0,0,0,.061.318.8.8,0,0,0,.151.274Z" transform="translate(-117.041 -99.85)" fill="#495385"/>
        <path id="Shape-125" data-name="Shape" d="M193.124,161.023a1.072,1.072,0,0,0-.078-.14.809.809,0,0,0-.106-.128.866.866,0,0,0-1.184,0,.81.81,0,0,0-.106.128,1.074,1.074,0,0,0-.078.14.72.72,0,0,1-.045.156.833.833,0,0,0,0,.168.882.882,0,0,0,.061.318.915.915,0,0,0,.184.274.759.759,0,0,0,.274.179.793.793,0,0,0,.637,0,.754.754,0,0,0,.274-.179.9.9,0,0,0,.184-.274.872.872,0,0,0,.061-.318.833.833,0,0,0,0-.168C193.185,161.129,193.141,161.079,193.124,161.023Z" transform="translate(-84.573 -71.302)" fill="#495385"/>
        <path id="Shape-126" data-name="Shape" d="M334.359,152.772a.709.709,0,0,0-.073-.145.786.786,0,0,0-.106-.123.751.751,0,0,0-.128-.106.709.709,0,0,0-.145-.078.742.742,0,0,0-.156-.05.86.86,0,0,0-.754.235.783.783,0,0,0-.106.123,1.19,1.19,0,0,0-.078.145.823.823,0,0,1-.045.156.838.838,0,0,0,1.413.754.826.826,0,0,0,.246-.592.792.792,0,0,0-.067-.318Z" transform="translate(-146.938 -67.652)" fill="#495385"/>
        <path id="Shape-127" data-name="Shape" d="M309.872,154.024a1.735,1.735,0,0,0-.156-.285,1.892,1.892,0,0,0-.207-.257,1.559,1.559,0,0,0-.257-.207,1.853,1.853,0,0,0-.29-.156,2.01,2.01,0,0,0-.313-.095,1.675,1.675,0,0,0-1.513.458,1.581,1.581,0,0,0-.207.257,1.778,1.778,0,0,0-.156.285,2.069,2.069,0,0,0-.095.318,2.105,2.105,0,0,0-.028.324,2.163,2.163,0,0,0,.028.329,1.565,1.565,0,0,0,.1.313,1.631,1.631,0,0,0,.151.29,1.715,1.715,0,0,0,.464.464,1.764,1.764,0,0,0,.29.151,1.552,1.552,0,0,0,.313.095,1.609,1.609,0,0,0,.329.034,1.675,1.675,0,0,0,1.184-.491,1.8,1.8,0,0,0,.207-.251,2.076,2.076,0,0,0,.156-.29,1.993,1.993,0,0,0,.095-.313,1.641,1.641,0,0,0,.034-.329,1.6,1.6,0,0,0-.034-.324,2.072,2.072,0,0,0-.095-.318Z" transform="translate(-135.411 -67.977)" fill="#495385"/>
        <path id="Shape-128" data-name="Shape" d="M186.222,170.3a2.139,2.139,0,0,0-.156-.29,1.8,1.8,0,0,0-.207-.251,1.731,1.731,0,0,0-2.368,0,1.81,1.81,0,0,0-.212.251,2.042,2.042,0,0,0-.151.29,1.553,1.553,0,0,0-.095.313,1.674,1.674,0,0,0-.033.329,1.759,1.759,0,0,0,.128.642,1.419,1.419,0,0,0,.156.285,1.3,1.3,0,0,0,.207.257,1.5,1.5,0,0,0,.257.207,1.758,1.758,0,0,0,.285.156,2.013,2.013,0,0,0,.313.095,1.636,1.636,0,0,0,.659,0,1.988,1.988,0,0,0,.313-.095,2.056,2.056,0,0,0,.29-.156,1.738,1.738,0,0,0,.251-.207,1.665,1.665,0,0,0,.458-1.513,2,2,0,0,0-.095-.313Z" transform="translate(-80.81 -75.175)" fill="#495385"/>
        <path id="Shape-129" data-name="Shape" d="M309.878,196.067a1.418,1.418,0,0,0,.156.285,1.3,1.3,0,0,0,.207.257,1.675,1.675,0,0,0,2.368,0,1.557,1.557,0,0,0,.207-.257,1.793,1.793,0,0,0,.156-.285,1.775,1.775,0,0,0,.128-.642,1.678,1.678,0,0,0-.034-.329,1.551,1.551,0,0,0-.095-.313,1.855,1.855,0,0,0-.156-.29,1.536,1.536,0,0,0-.207-.251,1.814,1.814,0,0,0-.251-.212,2.073,2.073,0,0,0-.29-.151,1.541,1.541,0,0,0-.313-.095,1.636,1.636,0,0,0-.659,0,1.557,1.557,0,0,0-.313.095,2.093,2.093,0,0,0-.29.151,1.786,1.786,0,0,0-.251.212,1.278,1.278,0,0,0-.207.251,1.468,1.468,0,0,0-.156.29,1.552,1.552,0,0,0-.095.313,1.673,1.673,0,0,0-.034.329,1.759,1.759,0,0,0,.128.642Z" transform="translate(-136.78 -85.975)" fill="#495385"/>
        <path id="Shape-130" data-name="Shape" d="M279.8,89.585a.838.838,0,0,0,.637-1.379c-1.9-2.234-2.792-6.215-2.792-12.112a.838.838,0,0,0-.832-.843h0a.838.838,0,0,0-.838.832c-.033,6.31,1.005,10.61,3.177,13.2a.832.832,0,0,0,.648.3Z" transform="translate(-121.867 -33.648)" fill="#495385"/>
        <path id="Shape-131" data-name="Shape" d="M273.122,96.985a.838.838,0,0,0,.748-1.212,11.52,11.52,0,0,1-1.033-4.255.826.826,0,0,0-.9-.771.838.838,0,0,0-.771.9,13.112,13.112,0,0,0,1.2,4.869.838.838,0,0,0,.754.469Z" transform="translate(-119.742 -40.49)" fill="#495385"/>
        <path id="Shape-132" data-name="Shape" d="M179.4,205.178a.843.843,0,1,0-1.675.19l1.117,9.493a.838.838,0,0,0,.832.743h.095a.838.838,0,0,0,.737-.927Z" transform="translate(-78.478 -90.691)" fill="#495385"/>
        <path id="Shape-133" data-name="Shape" d="M177.362,195.039a.838.838,0,0,0,.737-.927l-.558-4.624a.843.843,0,0,0-1.675.19l.558,4.624a.838.838,0,0,0,.832.743Z" transform="translate(-77.657 -83.763)" fill="#495385"/>
      </g>
      <g id="lights-2" transform="translate(66.323 0)">
        <ellipse id="Oval-12" data-name="Oval" cx="36.493" cy="36.493" rx="36.493" ry="36.493" transform="translate(0 47.957)" fill="url(#radial-gradient)"/>
        <ellipse id="Oval-13" data-name="Oval" cx="27.921" cy="27.921" rx="27.921" ry="27.921" transform="translate(18.327)" fill="url(#radial-gradient-2)"/>
        <path id="Shape-134" data-name="Shape" d="M66.116,165.176l-.006-.006v.006Z" transform="translate(-29.623 -73.383)" fill="#fff"/>
        <path id="Shape-135" data-name="Shape" d="M57.34,152.03h.006Z" transform="translate(-25.75 -67.58)" fill="#fff"/>
        <path id="Shape-136" data-name="Shape" d="M67.139,146.219h0l-3.831-.96-1.061-6.388h-.006l-1.061,6.388-3.831.96,3.831.955,1.061,6.383,1.067-6.383Z" transform="translate(-25.755 -61.769)" fill="#fff"/>
        <ellipse id="Oval-14" data-name="Oval" cx="10.61" cy="10.61" rx="10.61" ry="10.61" transform="translate(25.883 73.84)" fill="url(#radial-gradient-3)"/>
        <path id="Shape-137" data-name="Shape" d="M89.252,189.785h0l-2.122-.531-.586-3.535h0l-.592,3.535-2.122.531,2.122.53.592,3.535.586-3.535Z" transform="translate(-37.448 -82.457)" fill="#fff"/>
        <ellipse id="Oval-15" data-name="Oval" cx="5.875" cy="5.875" rx="5.875" ry="5.875" transform="translate(43.222 101.454)" fill="url(#radial-gradient-4)"/>
        <path id="Shape-138" data-name="Shape" d="M111.75,49.156V49.15h0Z" transform="translate(-49.777 -22.15)" fill="#fff"/>
        <path id="Shape-139" data-name="Shape" d="M112.312,38.655h0l-2.122-.531L109.6,34.59h0l-.592,3.535-2.122.531,2.122.53.592,3.535.586-3.535Z" transform="translate(-47.631 -15.721)" fill="#fff"/>
        <ellipse id="Oval-16" data-name="Oval" cx="5.875" cy="5.875" rx="5.875" ry="5.875" transform="translate(56.099 17.06)" fill="url(#radial-gradient-5)"/>
        <ellipse id="Oval-17" data-name="Oval" cx="16.697" cy="13.944" rx="16.697" ry="13.944" transform="matrix(0.676, -0.737, 0.737, 0.676, 27.536, 96.272)" opacity="0.9" fill="url(#linear-gradient-13)"/>
        <ellipse id="Oval-18" data-name="Oval" cx="5.54" cy="6.634" rx="5.54" ry="6.634" transform="translate(32.857 108.585)" opacity="0.9" fill="url(#linear-gradient-14)"/>
        <path id="Shape-140" data-name="Shape" d="M189.781,159.626l.128.128A22.13,22.13,0,0,1,196.052,178l-3.808,32.444a8.734,8.734,0,0,1-8.65,7.734h0a8.734,8.734,0,0,1-8.678-9.716l3.758-33.1a17.646,17.646,0,0,0-.838-7.913l-.095-.257a7.042,7.042,0,0,1,6.567-9.527h.592a6.93,6.93,0,0,1,4.881,1.966Z" transform="translate(-77.645 -70.066)" opacity="0.65" fill="url(#linear-gradient-15)"/>
      </g>
    </g>
  </g>
</svg>
